<svg xmlns="http://www.w3.org/2000/svg" fill="none" viewBox="0 0 24 24"><path stroke="#292D32" stroke-linecap="round" stroke-linejoin="round" stroke-miterlimit="10" stroke-width="1.5" d="m12.97 17.61-2.11-2.11m2.09.02-2.12 2.12m-5.29-6.52c-4.68.33-4.68 7.14 0 7.47h1.92m-1.87-7.47C2.38 2.19 15.92-1.38 17.47 8c4.33.55 6.08 6.32 2.8 9.19-1 .91-2.29 1.41-3.64 1.4h-.09"/><path stroke="#292D32" stroke-linecap="round" stroke-linejoin="round" stroke-miterlimit="10" stroke-width="1.5" d="M17 16.53c0 .74-.16 1.44-.46 2.06q-.12.27-.27.51A4.96 4.96 0 0 1 12 21.53c-1.82 0-3.41-.98-4.27-2.43q-.15-.24-.27-.51c-.3-.62-.46-1.32-.46-2.06 0-2.76 2.24-5 5-5s5 2.24 5 5"/></svg>