<svg xmlns="http://www.w3.org/2000/svg" fill="none" viewBox="0 0 24 24"><path stroke="#292D32" stroke-linecap="round" stroke-linejoin="round" stroke-miterlimit="10" stroke-width="1.5" d="M2 15.3V9c0-3.5 2-5 5-5h10c3 0 5 1.5 5 5v6c0 3.5-2 5-5 5H8.5"/><path stroke="#292D32" stroke-linecap="round" stroke-linejoin="round" stroke-miterlimit="10" stroke-width="1.5" d="M12 14.5a2.5 2.5 0 1 0 0-5 2.5 2.5 0 0 0 0 5m6.5-5v5M9 18c0 .75-.21 1.46-.58 2.06A3.97 3.97 0 0 1 5 22a3.97 3.97 0 0 1-3.42-1.94A3.9 3.9 0 0 1 1 18c0-2.21 1.79-4 4-4s4 1.79 4 4m-2.929 1.04-2.11-2.11m2.079.03-2.11 2.11"/></svg>