<svg xmlns="http://www.w3.org/2000/svg" fill="none" viewBox="0 0 24 24"><path stroke="#292D32" stroke-linecap="round" stroke-linejoin="round" stroke-miterlimit="10" stroke-width="1.5" d="M2 3h20M2 9h9m-9 6h6m-6 6h4"/><path stroke="#292D32" stroke-linecap="round" stroke-linejoin="round" stroke-width="1.5" d="M11.84 22a2.18 2.18 0 1 0 0-4.36 2.18 2.18 0 0 0 0 4.36"/><path stroke="#292D32" stroke-linecap="round" stroke-linejoin="round" stroke-width="1.5" d="M22 18.37V9.86c0-1.81-1.14-2.06-2.29-1.75L15.36 9.3c-.79.22-1.34.84-1.34 1.75v8.77"/><path stroke="#292D32" stroke-linecap="round" stroke-linejoin="round" stroke-width="1.5" d="M19.82 20.55a2.18 2.18 0 1 0 0-4.36 2.18 2.18 0 0 0 0 4.36m-5.8-6.95L22 11.42"/></svg>