<svg xmlns="http://www.w3.org/2000/svg" width="24" height="24" fill="none"><path fill="#292D32" d="M7.67 2H5.78c-1.04 0-1.98.42-2.67 1.11S2 4.74 2 5.78c0 2.08 1.7 3.78 3.78 3.78h.94v7.55c0 .73.42 1.36 1.03 1.67a1.77 1.77 0 0 0 1.5.1c.73-.26 1.25-.95 1.25-1.77V4.83C10.5 3.28 9.22 2 7.67 2M5.78 5.97c.41 0 .75.34.75.75s-.34.75-.75.75c-.93 0-1.69-.76-1.69-1.7s.76-1.69 1.69-1.69c.41 0 .75.34.75.75s-.34.75-.75.75a.19.19 0 0 0-.19.19c0 .1.08.2.19.2m15.11-2.86A3.76 3.76 0 0 0 18.22 2h-1.89a2.84 2.84 0 0 0-2.83 2.83v12.28c0 .82.52 1.51 1.25 1.77a1.77 1.77 0 0 0 1.5-.1c.61-.31 1.03-.94 1.03-1.67V9.56h.94c2.08 0 3.78-1.7 3.78-3.78 0-1.04-.42-1.98-1.11-2.67m-2.67 4.36c-.41 0-.75-.34-.75-.75s.34-.75.75-.75c.11 0 .19-.09.19-.2a.19.19 0 0 0-.19-.19c-.41 0-.75-.34-.75-.75s.34-.75.75-.75a1.694 1.694 0 0 1 0 3.39"/><path fill="#292D32" d="M9.25 18.881v3.12c0 .41-.34.75-.75.75s-.75-.34-.75-.75v-3.22a1.77 1.77 0 0 0 1.5.1m7-.1v3.22c0 .41-.34.75-.75.75s-.75-.34-.75-.75v-3.12a1.77 1.77 0 0 0 1.5-.1"/></svg>