<svg xmlns="http://www.w3.org/2000/svg" width="24" height="24" fill="none" viewBox="0 0 24 24"><path fill="#292D32" d="m12.9 10.592 1.67-1.53-1.67-1.39zm0 5.738 1.67-1.39-1.67-1.53z"/><path fill="#292D32" d="M12 2C6.48 2 2 6.48 2 12s4.48 10 10 10 10-4.48 10-10S17.52 2 12 2m3.72 11.95c.29.27.45.64.44 1.02s-.19.75-.49 1L13.6 17.7c-.38.32-.73.41-1 .41-.22 0-.39-.06-.49-.1-.22-.1-.72-.43-.72-1.34V14l-2.3 2.11c-.3.28-.78.26-1.06-.05A.746.746 0 0 1 8.08 15l3.28-3-3.28-3.01A.755.755 0 0 1 9.1 7.88L11.4 10V7.33c0-.9.5-1.23.72-1.34.21-.1.79-.27 1.49.3l2.06 1.72c.3.25.48.62.49 1s-.15.76-.44 1.02L13.58 12z"/></svg>