<svg xmlns="http://www.w3.org/2000/svg" width="24" height="24" fill="none" viewBox="0 0 24 24"><path fill="#292D32" d="M20.97 16h-2.94c-1.27 0-2.03.76-2.03 2.03v2.94c0 1.27.76 2.03 2.03 2.03h2.94c1.27 0 2.03-.76 2.03-2.03v-2.94c0-1.27-.76-2.03-2.03-2.03m.66 2.45-2.37 2.77a.5.5 0 0 1-.38.18h-.02c-.13 0-.27-.05-.36-.15l-1.1-1.08c-.2-.2-.2-.53 0-.74.2-.2.53-.2.74 0l.69.69 2.01-2.34c.18-.22.51-.25.73-.06s.24.52.06.73"/><path fill="#292D32" d="M20.97 16h-2.94c-1.27 0-2.03.76-2.03 2.03v2.94c0 1.27.76 2.03 2.03 2.03h2.94c1.27 0 2.03-.76 2.03-2.03v-2.94c0-1.27-.76-2.03-2.03-2.03m.66 2.45-2.37 2.77a.5.5 0 0 1-.38.18h-.02c-.13 0-.27-.05-.36-.15l-1.1-1.08c-.2-.2-.2-.53 0-.74.2-.2.53-.2.74 0l.69.69 2.01-2.34c.18-.22.51-.25.73-.06s.24.52.06.73"/><path fill="#292D32" d="M21.97 7.21A5.81 5.81 0 0 0 16.19 2H7.81q-.3 0-.6.03A5.81 5.81 0 0 0 2 7.81v8.38q0 .3.03.6A5.81 5.81 0 0 0 7.81 22H14c.55 0 1-.45 1-1v-2.97c0-1.67 1.36-3.03 3.03-3.03H21c.55 0 1-.45 1-1V7.81q0-.3-.03-.6M7.75 13.5c0 .41-.34.75-.75.75s-.75-.34-.75-.75v-3c0-.41.34-.75.75-.75s.75.34.75.75zm5 0c0 .41-.34.75-.75.75s-.75-.34-.75-.75v-3c0-.41.34-.75.75-.75s.75.34.75.75z"/></svg>