<svg xmlns="http://www.w3.org/2000/svg" width="24" height="24" fill="none"><path fill="#292D32" d="M21.97 7.21A5.81 5.81 0 0 0 16.19 2H7.81q-.3 0-.6.03A5.81 5.81 0 0 0 2 7.81v8.38q0 .3.03.6A5.81 5.81 0 0 0 7.81 22H14c.55 0 1-.45 1-1v-2.97c0-1.67 1.36-3.03 3.03-3.03H21c.55 0 1-.45 1-1V7.81q0-.3-.03-.6M7.75 13.5c0 .41-.34.75-.75.75s-.75-.34-.75-.75v-3c0-.41.34-.75.75-.75s.75.34.75.75zm5 0c0 .41-.34.75-.75.75s-.75-.34-.75-.75v-3c0-.41.34-.75.75-.75s.75.34.75.75z"/><path fill="#292D32" d="M20.97 16h-2.94c-1.27 0-2.03.76-2.03 2.03v2.94c0 1.27.76 2.03 2.03 2.03h2.94c1.27 0 2.03-.76 2.03-2.03v-2.94c0-1.27-.76-2.03-2.03-2.03m.5 4.56c.25.25.25.66 0 .91-.13.12-.3.18-.46.18s-.33-.06-.46-.18l-1.06-1.06-1.04 1.06c-.13.12-.29.18-.47.18-.15 0-.32-.06-.44-.18a.646.646 0 0 1 0-.91l1.06-1.06-1.06-1.05a.646.646 0 0 1 0-.91c.25-.25.66-.25.91 0l1.04 1.06 1.06-1.06c.25-.25.67-.25.92 0s.25.66 0 .91l-1.06 1.05z"/></svg>