<svg xmlns="http://www.w3.org/2000/svg" width="24" height="24" fill="none"><path fill="#292D32" d="M21 10H3c-.55 0-1 .45-1 1v5.19q0 .3.03.6c.2 3.08 2.1 4.98 5.18 5.18q.3.03.6.03h8.38q.3 0 .6-.03c3.08-.2 4.98-2.1 5.18-5.18q.03-.3.03-.6V11c0-.55-.45-1-1-1M8 16.15c.34.5.8.91 1.33 1.18.38.18.53.63.34 1.01-.13.26-.4.41-.67.41-.11 0-.23-.03-.33-.08-.78-.38-1.44-.97-1.91-1.68-.4-.6-.4-1.38 0-1.98.47-.71 1.13-1.3 1.91-1.68.37-.19.82-.04 1 .33.19.38.04.83-.34 1.01-.53.27-.99.68-1.33 1.18-.06.09-.06.21 0 .3m9.45.84c-.48.71-1.14 1.3-1.91 1.68a.74.74 0 0 1-1-.33.745.745 0 0 1 .33-1.01c.54-.27 1-.68 1.33-1.18a.24.24 0 0 0 0-.3c-.33-.5-.79-.91-1.33-1.18a.745.745 0 0 1-.33-1.01c.18-.37.63-.52 1-.33.77.38 1.43.97 1.91 1.68.4.6.4 1.38 0 1.98M22 7.81V8c0 .55-.45 1-1 1L3 9.01c-.55 0-1-.45-1-1v-.2q0-.3.03-.6c.2-3.08 2.1-4.98 5.18-5.18q.3-.03.6-.03h8.38q.3 0 .6.03c3.08.2 4.98 2.1 5.18 5.18q.03.3.03.6"/></svg>