<svg xmlns="http://www.w3.org/2000/svg" width="24" height="24" fill="none" viewBox="0 0 24 24"><path fill="#292D32" d="M14 16c0 1.77-.77 3.37-2 4.46A5.93 5.93 0 0 1 8 22c-3.31 0-6-2.69-6-6a5.99 5.99 0 0 1 2.555-4.904c.249-.174.584-.055.718.217a7.5 7.5 0 0 0 4.747 3.916q.945.27 1.98.27.729-.002 1.407-.131c.289-.054.576.13.588.424q.005.105.005.207"/><path fill="#292D32" d="M18 8a5.99 5.99 0 0 1-4.42 5.79c-.5.14-1.03.21-1.58.21s-1.08-.07-1.58-.21A5.99 5.99 0 0 1 6 8c0-3.31 2.69-6 6-6s6 2.69 6 6m4 8a6.005 6.005 0 0 1-8.119 5.613c-.319-.121-.378-.529-.156-.788A7.4 7.4 0 0 0 15.5 16c0-.34-.03-.68-.08-1a.44.44 0 0 1 .228-.456 7.45 7.45 0 0 0 3.079-3.229c.134-.272.47-.392.718-.217A5.99 5.99 0 0 1 22 15.999"/></svg>