<svg xmlns="http://www.w3.org/2000/svg" fill="none" viewBox="0 0 24 24"><path fill="#292D32" d="M19.32 2H4.68C3.21 2 2 3.21 2 4.68v2.63C2 8.79 3.21 10 4.68 10h14.63C20.79 10 22 8.79 22 7.32V4.68C22 3.21 20.79 2 19.32 2M6.75 7c0 .41-.34.75-.75.75s-.75-.34-.75-.75V5c0-.41.34-.75.75-.75s.75.34.75.75zm4 0c0 .41-.34.75-.75.75s-.75-.34-.75-.75V5c0-.41.34-.75.75-.75s.75.34.75.75zM18 6.75h-4c-.41 0-.75-.34-.75-.75s.34-.75.75-.75h4c.41 0 .75.34.75.75s-.34.75-.75.75M19.32 14H4.68C3.21 14 2 15.21 2 16.68v2.63C2 20.79 3.21 22 4.68 22h14.63c1.48 0 2.68-1.21 2.68-2.68v-2.63A2.68 2.68 0 0 0 19.32 14M6.75 19c0 .41-.34.75-.75.75s-.75-.34-.75-.75v-2c0-.41.34-.75.75-.75s.75.34.75.75zm4 0c0 .41-.34.75-.75.75s-.75-.34-.75-.75v-2c0-.41.34-.75.75-.75s.75.34.75.75zm7.25-.25h-4c-.41 0-.75-.34-.75-.75s.34-.75.75-.75h4c.41 0 .75.34.75.75s-.34.75-.75.75"/></svg>