<svg xmlns="http://www.w3.org/2000/svg" width="24" height="24" fill="none"><path fill="#292D32" d="M7.63 3.57c.178-.098.37.052.37.257v13.556c0 .223-.153.412-.35.516l-.02.01-2.35 1.34c-1.64.94-2.99.16-2.99-1.74V7.78c0-.63.45-1.41 1.01-1.73zm7.092 2.533A.5.5 0 0 1 15 6.55v13.153a.5.5 0 0 1-.717.45l-4.25-2.047a.5.5 0 0 1-.283-.45V4.447a.5.5 0 0 1 .722-.449zM22 6.49v9.73c0 .63-.45 1.41-1.01 1.73l-3.491 2.001a.5.5 0 0 1-.749-.434V6.33a.5.5 0 0 1 .252-.434L19.01 4.75C20.65 3.81 22 4.59 22 6.49"/></svg>