<svg xmlns="http://www.w3.org/2000/svg" width="24" height="24" fill="none" viewBox="0 0 24 24"><path fill="#292D32" d="M6 7q-3 0-3 3v5q0 3 3 3l2-2v-1h1l8-8zm1 4.75c-.41 0-.75-.34-.75-.75s.34-.75.75-.75h2c.41 0 .75.34.75.75s-.34.75-.75.75z"/><path fill="#292D32" d="m9 15-1 1v-1zm8-10v2H7V5c0-1.66 1.34-3 3-3h4c1.66 0 3 1.34 3 3"/><path fill="#292D32" d="M22.53 1.471a.754.754 0 0 0-1.06 0l-20 20c-.29.29-.29.77 0 1.06.15.15.34.22.53.22s.38-.07.53-.22l20-20c.29-.29.29-.77 0-1.06M17 14.25h-4.043a.5.5 0 0 0-.353.146L12 15l-.75.75L8.8 18.2c-.64.64-.77 1.8-.25 2.54C9.09 21.5 9.99 22 11 22h2c1.66 0 3-1.34 3-3v-3.25h1c.41 0 .75-.34.75-.75s-.34-.75-.75-.75"/><path fill="#292D32" d="m19.02 7.98-3.56 3.56c-.63.63-.18 1.71.71 1.71h.74c.87 0 1.68.59 1.82 1.45a1.76 1.76 0 0 1-1.237 1.979c-.265.077-.493.294-.493.57v.25a.5.5 0 0 0 .5.5h.5c1.66 0 3-1.34 3-3v-5c0-.79-.16-1.43-.47-1.91-.34-.51-1.08-.54-1.51-.11"/></svg>