<svg xmlns="http://www.w3.org/2000/svg" fill="none" viewBox="0 0 24 24"><path fill="#292D32" d="M15 22.748a.752.752 0 0 1-.64-1.14l1.05-1.75c.21-.35.67-.47 1.03-.26s.47.67.26 1.03l-.27.45c2.76-.65 4.83-3.13 4.83-6.09 0-.41.34-.75.75-.75s.75.34.75.75c-.01 4.28-3.49 7.76-7.76 7.76M2 9.75c-.41 0-.75-.34-.75-.75 0-4.27 3.48-7.75 7.75-7.75a.752.752 0 0 1 .64 1.14L8.59 4.14c-.21.35-.67.47-1.03.25a.746.746 0 0 1-.25-1.03l.27-.45A6.26 6.26 0 0 0 2.75 9c0 .41-.34.75-.75.75m14.4-1.54-3.76-2.03c-.4-.21-.87-.21-1.27 0L7.6 8.21c-.27.15-.44.44-.44.76 0 .33.17.62.44.77l3.76 2.03c.2.11.42.16.64.16s.44-.05.64-.16l3.76-2.03a.87.87 0 0 0 .44-.77c0-.32-.17-.61-.44-.76m-5.66 4.259-3.5-1.75a.87.87 0 0 0-.84.04.86.86 0 0 0-.4.73v3.31c0 .57.32 1.09.83 1.34l3.5 1.75q.18.09.39.09c.16 0 .31-.04.45-.13.26-.16.41-.43.41-.73v-3.31c-.01-.57-.32-1.08-.84-1.34m6.852-1.71a.87.87 0 0 0-.84-.04l-3.5 1.75a1.5 1.5 0 0 0-.83 1.34v3.31c0 .3.15.57.41.73.14.09.29.13.45.13q.195 0 .39-.09l3.5-1.75c.51-.26.83-.77.83-1.34v-3.31c0-.3-.15-.57-.41-.73"/></svg>