<svg xmlns="http://www.w3.org/2000/svg" fill="none" viewBox="0 0 24 24"><path fill="#292D32" d="M21.3 7.58h-5.58c-.39 0-.7-.31-.7-.7s.31-.7.7-.7h5.58c.39 0 .7.31.7.7s-.31.7-.7.7m-14.88 0H2.7c-.39 0-.7-.31-.7-.7s.31-.7.7-.7h3.72c.39 0 .7.31.7.7s-.32.7-.7.7"/><path fill="#292D32" d="M10.14 10.83a3.95 3.95 0 1 0 0-7.9 3.95 3.95 0 0 0 0 7.9m11.16 6.98h-3.72c-.39 0-.7-.31-.7-.7s.31-.7.7-.7h3.72c.39 0 .7.31.7.7s-.31.7-.7.7m-13.02 0H2.7c-.39 0-.7-.31-.7-.7s.31-.7.7-.7h5.58c.39 0 .7.31.7.7s-.32.7-.7.7"/><path fill="#292D32" d="M13.86 21.072a3.95 3.95 0 1 0 0-7.9 3.95 3.95 0 0 0 0 7.9"/></svg>