<svg xmlns="http://www.w3.org/2000/svg" width="24" height="24" fill="none" viewBox="0 0 24 24"><path fill="#292D32" d="M16.25 22.5a1.75 1.75 0 1 0 0-3.5 1.75 1.75 0 0 0 0 3.5m-8 0a1.75 1.75 0 1 0 0-3.5 1.75 1.75 0 0 0 0 3.5M4.84 3.94l-.2 2.45c-.04.47.33.86.8.86h15.31c.42 0 .77-.32.8-.74.13-1.77-1.22-3.21-2.99-3.21H6.27c-.1-.44-.3-.86-.61-1.21-.5-.53-1.2-.84-1.92-.84H2c-.41 0-.75.34-.75.75s.34.75.75.75h1.74c.31 0 .6.13.81.35.21.23.31.53.29.84m15.67 4.81H5.17c-.42 0-.76.32-.8.73l-.36 4.35A2.92 2.92 0 0 0 6.92 17h11.12c1.5 0 2.82-1.23 2.93-2.73l.33-4.67a.78.78 0 0 0-.79-.85"/></svg>