<svg xmlns="http://www.w3.org/2000/svg" fill="none" viewBox="0 0 24 24"><path fill="#292D32" d="M16 12.692v5.39c0 2.34-1.56 3.89-3.89 3.89H5.89c-2.33 0-3.89-1.55-3.89-3.89v-7.77c0-2.34 1.56-3.89 3.89-3.89h3.83c1.03 0 2.02.41 2.75 1.14l2.39 2.38a3.9 3.9 0 0 1 1.14 2.75"/><path fill="#292D32" d="M22 8.249v5.39c0 2.33-1.56 3.89-3.89 3.89H17v-4.84c0-1.29-.52-2.55-1.43-3.46l-2.39-2.38a4.92 4.92 0 0 0-3.46-1.43h-1.7c.18-2.08 1.69-3.45 3.87-3.45h3.83c1.03 0 2.02.41 2.75 1.14l2.39 2.39A3.9 3.9 0 0 1 22 8.249"/></svg>