<svg xmlns="http://www.w3.org/2000/svg" width="24" height="24" fill="none" viewBox="0 0 24 24"><path fill="#292D32" d="m19.53 5.53-14 14c-.02.02-.03.03-.05.04q-.57-.48-1.05-1.05A9.9 9.9 0 0 1 2 12C2 6.48 6.48 2 12 2c2.49 0 4.77.91 6.52 2.43q.57.48 1.05 1.05c-.01.02-.02.03-.04.05M22 12c0 5.49-4.51 10-10 10-1.5 0-2.92-.33-4.2-.93-.62-.29-.74-1.12-.26-1.61L19.46 7.54c.48-.48 1.32-.36 1.61.26.6 1.27.93 2.7.93 4.2"/><path fill="#292D32" d="M21.77 2.229c-.3-.3-.79-.3-1.09 0L2.23 20.689c-.3.3-.3.79 0 1.09a.76.76 0 0 0 1.08-.01l18.46-18.46c.31-.3.31-.78 0-1.08"/></svg>