<svg xmlns="http://www.w3.org/2000/svg" width="24" height="24" fill="none" viewBox="0 0 24 24"><path fill="#292D32" d="M9 14.219H3.92c-.61 0-1.17.31-1.49.83-.32.51-.35 1.12-.09 1.66a10.84 10.84 0 0 0 6.09 5.43c.18.06.38.1.57.1a1.764 1.764 0 0 0 1.75-1.76l.01-4.5c0-.47-.18-.91-.51-1.24a1.8 1.8 0 0 0-1.25-.52M22.48 9.6C21.36 4.68 17.05 1.25 12 1.25S2.64 4.68 1.52 9.6c-.12.52 0 1.05.34 1.47s.84.66 1.38.66h17.53a1.735 1.735 0 0 0 1.71-2.13m-2.42 4.672-5.06-.01a1.74 1.74 0 0 0-1.75 1.75l.01 4.48a1.764 1.764 0 0 0 1.75 1.76c.19 0 .38-.03.56-.1 2.62-.92 4.84-2.89 6.07-5.38a1.7 1.7 0 0 0-.08-1.65c-.33-.54-.89-.85-1.5-.85"/></svg>