<svg xmlns="http://www.w3.org/2000/svg" fill="none" viewBox="0 0 24 24"><path fill="#292D32" d="M12 2C6.48 2 2 6.48 2 12s4.48 10 10 10 10-4.48 10-10S17.52 2 12 2M6.75 14.14c0 .41-.34.75-.75.75s-.75-.34-.75-.75V9.86c0-.41.34-.75.75-.75s.75.34.75.75zm3 1.43c0 .41-.34.75-.75.75s-.75-.34-.75-.75V8.43c0-.41.34-.75.75-.75s.75.34.75.75zm3 1.43c0 .41-.34.75-.75.75s-.75-.34-.75-.75V7c0-.41.34-.75.75-.75s.75.34.75.75zm3-1.43c0 .41-.34.75-.75.75s-.75-.34-.75-.75V8.43c0-.41.34-.75.75-.75s.75.34.75.75zm3-1.43c0 .41-.34.75-.75.75s-.75-.34-.75-.75V9.86c0-.41.34-.75.75-.75s.75.34.75.75z"/></svg>