<svg xmlns="http://www.w3.org/2000/svg" width="24" height="24" fill="none"><path fill="#292D32" d="M14.11 17.61c-.19 0-.38-.07-.53-.22a.754.754 0 0 1 0-1.06l3.04-3.04c.29-.29.77-.29 1.06 0s.29.77 0 1.06l-3.04 3.04a.75.75 0 0 1-.53.22"/><path fill="#292D32" d="M17.15 14.57H6.84c-.41 0-.75-.34-.75-.75s.34-.75.75-.75h10.31a.749.749 0 1 1 0 1.5m-10.3-3.64c-.19 0-.38-.07-.53-.22a.755.755 0 0 1 0-1.06l3.039-3.04c.29-.29.77-.29 1.06 0s.29.77 0 1.06l-3.04 3.04c-.15.15-.34.22-.53.22"/><path fill="#292D32" d="M17.15 10.93H6.84c-.41 0-.75-.34-.75-.75s.34-.75.75-.75h10.31a.749.749 0 1 1 0 1.5"/><path fill="#292D32" d="M12 22.75C6.07 22.75 1.25 17.93 1.25 12S6.07 1.25 12 1.25 22.75 6.07 22.75 12 17.93 22.75 12 22.75m0-20C6.9 2.75 2.75 6.9 2.75 12S6.9 21.25 12 21.25s9.25-4.15 9.25-9.25S17.1 2.75 12 2.75"/></svg>