<svg xmlns="http://www.w3.org/2000/svg" width="24" height="24" fill="none"><path fill="#292D32" d="M15 22.75H9c-5.43 0-7.75-2.32-7.75-7.75V9c0-5.43 2.32-7.75 7.75-7.75h6c5.43 0 7.75 2.32 7.75 7.75v6c0 5.43-2.32 7.75-7.75 7.75m-6-20C4.39 2.75 2.75 4.39 2.75 9v6c0 4.61 1.64 6.25 6.25 6.25h6c4.61 0 6.25-1.64 6.25-6.25V9c0-4.61-1.64-6.25-6.25-6.25z"/><path fill="#292D32" d="M14.11 17.61c-.19 0-.38-.07-.53-.22a.754.754 0 0 1 0-1.06l3.04-3.04c.29-.29.77-.29 1.06 0s.29.77 0 1.06l-3.04 3.04a.75.75 0 0 1-.53.22"/><path fill="#292D32" d="M17.15 14.57H6.85c-.41 0-.75-.34-.75-.75s.34-.75.75-.75h10.31c.41 0 .75.34.75.75s-.34.75-.76.75m-10.3-3.64c-.19 0-.38-.07-.53-.22a.755.755 0 0 1 0-1.06l3.04-3.04c.29-.29.77-.29 1.06 0s.29.77 0 1.06l-3.04 3.04c-.15.15-.34.22-.53.22"/><path fill="#292D32" d="M17.15 10.93H6.85c-.41 0-.75-.34-.75-.75s.34-.75.75-.75h10.31c.41 0 .75.34.75.75s-.34.75-.76.75"/></svg>