<svg xmlns="http://www.w3.org/2000/svg" width="24" height="24" fill="none"><path fill="#292D32" d="M9.01 21.25c-.19 0-.38-.07-.53-.22l-5.01-5.01a.754.754 0 0 1 0-1.06c.29-.29.77-.29 1.06 0l5.01 5.01c.29.29.29.77 0 1.06-.15.14-.34.22-.53.22"/><path fill="#292D32" d="M9.01 21.25c-.41 0-.75-.34-.75-.75v-17c0-.41.34-.75.75-.75s.75.34.75.75v17c0 .41-.34.75-.75.75m11-11.99c-.19 0-.38-.07-.53-.22l-5.01-5.01a.754.754 0 0 1 0-1.06c.29-.29.77-.29 1.06 0l5.01 5.01c.29.29.29.77 0 1.06-.15.15-.34.22-.53.22"/><path fill="#292D32" d="M14.99 21.25c-.41 0-.75-.34-.75-.75v-17c0-.41.34-.75.75-.75s.75.34.75.75v17c0 .41-.33.75-.75.75"/></svg>