<svg xmlns="http://www.w3.org/2000/svg" width="24" height="24" fill="none" viewBox="0 0 24 24"><path fill="#292D32" d="M8 5.75c-.41 0-.75-.34-.75-.75V2c0-.41.34-.75.75-.75s.75.34.75.75v3c0 .41-.34.75-.75.75m8 0c-.41 0-.75-.34-.75-.75V2c0-.41.34-.75.75-.75s.75.34.75.75v3c0 .41-.34.75-.75.75m4.5 4.09h-17c-.41 0-.75-.34-.75-.75s.34-.75.75-.75h17c.41 0 .75.34.75.75s-.34.75-.75.75"/><path fill="#292D32" d="M16 22.75H8c-3.65 0-5.75-2.1-5.75-5.75V8.5c0-3.65 2.1-5.75 5.75-5.75h8c3.65 0 5.75 2.1 5.75 5.75V17c0 3.65-2.1 5.75-5.75 5.75M8 4.25c-2.86 0-4.25 1.39-4.25 4.25V17c0 2.86 1.39 4.25 4.25 4.25h8c2.86 0 4.25-1.39 4.25-4.25V8.5c0-2.86-1.39-4.25-4.25-4.25z"/><path fill="#292D32" d="M8.5 14.5c-.13 0-.26-.03-.38-.08q-.18-.075-.33-.21-.135-.15-.21-.33a1 1 0 0 1-.08-.38c0-.26.11-.52.29-.71q.15-.135.33-.21c.18-.08.38-.1.58-.06q.09.015.18.06.09.03.18.09l.15.12c.04.05.09.1.12.15q.06.09.09.18.045.09.06.18c.01.07.02.13.02.2 0 .26-.11.52-.29.71-.19.18-.45.29-.71.29m3.5 0c-.26 0-.52-.11-.71-.29l-.12-.15a.8.8 0 0 1-.09-.18.6.6 0 0 1-.06-.18c-.01-.07-.02-.13-.02-.2 0-.13.03-.26.08-.38q.075-.18.21-.33c.28-.28.73-.37 1.09-.21.13.05.23.12.33.21.18.19.29.45.29.71 0 .07-.01.13-.02.2q-.015.09-.06.18-.03.09-.09.18l-.12.15c-.1.09-.2.16-.33.21-.12.05-.25.08-.38.08M8.5 18c-.13 0-.26-.03-.38-.08q-.18-.075-.33-.21c-.09-.1-.16-.2-.21-.33A1 1 0 0 1 7.5 17c0-.26.11-.52.29-.71q.15-.135.33-.21c.37-.16.81-.07 1.09.21.04.05.09.1.12.15q.06.09.09.18c.03.06.05.12.06.19.01.06.02.13.02.19 0 .26-.11.52-.29.71-.19.18-.45.29-.71.29"/></svg>