<svg xmlns="http://www.w3.org/2000/svg" width="24" height="24" fill="none"><path fill="#292D32" d="M8 5.75c-.41 0-.75-.34-.75-.75V2c0-.41.34-.75.75-.75s.75.34.75.75v3c0 .41-.34.75-.75.75m8 0c-.41 0-.75-.34-.75-.75V2c0-.41.34-.75.75-.75s.75.34.75.75v3c0 .41-.34.75-.75.75M8.5 14.5c-.13 0-.26-.03-.38-.08-.13-.05-.23-.12-.33-.21-.18-.19-.29-.44-.29-.71 0-.13.03-.26.08-.38q.075-.18.21-.33c.1-.09.2-.16.33-.21.36-.15.81-.07 1.09.21.18.19.29.45.29.71 0 .06-.01.13-.02.2q-.015.09-.06.18-.03.09-.09.18c-.03.05-.08.1-.12.15-.19.18-.45.29-.71.29m3.5 0c-.13 0-.26-.03-.38-.08-.13-.05-.23-.12-.33-.21-.18-.19-.29-.44-.29-.71 0-.13.03-.26.08-.38q.075-.18.21-.33c.1-.09.2-.16.33-.21.36-.16.81-.07 1.09.21.18.19.29.45.29.71 0 .06-.01.13-.02.2q-.015.09-.06.18-.03.09-.09.18c-.03.05-.08.1-.12.15-.19.18-.45.29-.71.29m3.5 0c-.13 0-.26-.03-.38-.08-.13-.05-.23-.12-.33-.21l-.12-.15a.8.8 0 0 1-.09-.18.6.6 0 0 1-.06-.18c-.01-.07-.02-.14-.02-.2 0-.26.11-.52.29-.71.1-.09.2-.16.33-.21.37-.16.81-.07 1.09.21.18.19.29.45.29.71 0 .06-.01.13-.02.2q-.015.09-.06.18-.03.09-.09.18c-.03.05-.08.1-.12.15-.19.18-.45.29-.71.29m-7 3.5c-.13 0-.26-.03-.38-.08q-.18-.075-.33-.21c-.18-.19-.29-.45-.29-.71 0-.13.03-.26.08-.38q.075-.195.21-.33c.37-.37 1.05-.37 1.42 0 .18.19.29.45.29.71s-.11.52-.29.71c-.19.18-.45.29-.71.29m3.5 0c-.26 0-.52-.11-.71-.29-.18-.19-.29-.45-.29-.71 0-.13.03-.26.08-.38q.075-.195.21-.33c.37-.37 1.05-.37 1.42 0q.135.135.21.33c.05.12.08.25.08.38 0 .26-.11.52-.29.71-.19.18-.45.29-.71.29m3.5 0c-.26 0-.52-.11-.71-.29a.9.9 0 0 1-.21-.33 1 1 0 0 1-.08-.38c0-.13.03-.26.08-.38q.075-.195.21-.33c.23-.23.58-.34.9-.27.07.01.13.03.19.06q.09.03.18.09c.05.03.1.08.15.12.18.19.29.45.29.71s-.11.52-.29.71c-.19.18-.45.29-.71.29m5-8.16h-17c-.41 0-.75-.34-.75-.75s.34-.75.75-.75h17c.41 0 .75.34.75.75s-.34.75-.75.75"/><path fill="#292D32" d="M16 22.75H8c-3.65 0-5.75-2.1-5.75-5.75V8.5c0-3.65 2.1-5.75 5.75-5.75h8c3.65 0 5.75 2.1 5.75 5.75V17c0 3.65-2.1 5.75-5.75 5.75M8 4.25c-2.86 0-4.25 1.39-4.25 4.25V17c0 2.86 1.39 4.25 4.25 4.25h8c2.86 0 4.25-1.39 4.25-4.25V8.5c0-2.86-1.39-4.25-4.25-4.25z"/></svg>