<svg xmlns="http://www.w3.org/2000/svg" width="24" height="24" fill="none" viewBox="0 0 24 24"><path fill="#292D32" d="M8 5.75c-.41 0-.75-.34-.75-.75V2c0-.41.34-.75.75-.75s.75.34.75.75v3c0 .41-.34.75-.75.75m8 0c-.41 0-.75-.34-.75-.75V2c0-.41.34-.75.75-.75s.75.34.75.75v3c0 .41-.34.75-.75.75M8.5 14.5c-.26 0-.52-.11-.71-.29-.04-.05-.09-.1-.12-.15a.8.8 0 0 1-.09-.18.6.6 0 0 1-.06-.18c-.01-.07-.02-.14-.02-.2 0-.26.11-.52.29-.71.37-.37 1.04-.37 1.42 0 .18.19.29.45.29.71 0 .06-.01.13-.02.2q-.015.09-.06.18-.03.09-.09.18l-.12.15c-.19.18-.45.29-.71.29m3.5 0c-.13 0-.26-.03-.38-.08a.9.9 0 0 1-.33-.21c-.04-.05-.09-.1-.12-.15a.8.8 0 0 1-.09-.18.6.6 0 0 1-.06-.18c-.01-.07-.02-.14-.02-.2 0-.26.11-.52.29-.71q.135-.135.33-.21c.36-.16.81-.07 1.09.21.18.19.29.45.29.71 0 .06-.01.13-.02.2q-.015.09-.06.18-.03.09-.09.18l-.12.15c-.19.18-.45.29-.71.29M8.5 18c-.27 0-.52-.11-.71-.29-.18-.19-.29-.45-.29-.71s.11-.52.29-.71c.05-.04.1-.09.15-.12q.09-.06.18-.09.09-.045.18-.06c.2-.04.4-.02.58.06.13.05.23.12.33.21.18.19.29.45.29.71s-.11.52-.29.71c-.1.09-.2.16-.33.21-.12.05-.25.08-.38.08m12-8.16h-17c-.41 0-.75-.34-.75-.75s.34-.75.75-.75h17c.41 0 .75.34.75.75s-.34.75-.75.75M18 23.75c-2.62 0-4.75-2.13-4.75-4.75s2.13-4.75 4.75-4.75 4.75 2.13 4.75 4.75-2.13 4.75-4.75 4.75m0-8c-1.79 0-3.25 1.46-3.25 3.25s1.46 3.25 3.25 3.25 3.25-1.46 3.25-3.25-1.46-3.25-3.25-3.25"/><path fill="#292D32" d="M19.07 20.86c-.19 0-.38-.07-.53-.22l-2.11-2.11a.754.754 0 0 1 0-1.06c.29-.29.77-.29 1.06 0l2.11 2.11c.29.29.29.77 0 1.06-.15.15-.34.22-.53.22"/><path fill="#292D32" d="M16.93 20.89c-.19 0-.38-.07-.53-.22a.754.754 0 0 1 0-1.06l2.11-2.11c.29-.29.77-.29 1.06 0s.29.77 0 1.06l-2.11 2.11c-.15.14-.34.22-.53.22"/><path fill="#292D32" d="M15.37 22.75H8c-3.65 0-5.75-2.1-5.75-5.75V8.5c0-3.65 2.1-5.75 5.75-5.75h8c3.65 0 5.75 2.1 5.75 5.75v7.86c0 .31-.19.59-.49.7-.29.11-.62.03-.83-.21-.62-.7-1.51-1.1-2.44-1.1-1.79 0-3.25 1.46-3.25 3.25 0 .59.16 1.17.47 1.67.17.3.39.55.63.76.24.2.33.53.22.83-.09.29-.37.49-.69.49M8 4.25c-2.86 0-4.25 1.39-4.25 4.25V17c0 2.86 1.39 4.25 4.25 4.25h5.82a4.7 4.7 0 0 1-.57-2.25c0-2.62 2.13-4.75 4.75-4.75.79 0 1.57.2 2.25.57V8.5c0-2.86-1.39-4.25-4.25-4.25z"/></svg>