<svg xmlns="http://www.w3.org/2000/svg" fill="none" viewBox="0 0 24 24"><path fill="#292D32" d="M22 18.25h-7c-.41 0-.75-.34-.75-.75s.34-.75.75-.75h7c.41 0 .75.34.75.75s-.34.75-.75.75m-17 0H2c-.41 0-.75-.34-.75-.75s.34-.75.75-.75h3c.41 0 .75.34.75.75s-.34.75-.75.75m17-11h-3c-.41 0-.75-.34-.75-.75s.34-.75.75-.75h3c.41 0 .75.34.75.75s-.34.75-.75.75m-13 0H2c-.41 0-.75-.34-.75-.75s.34-.75.75-.75h7c.41 0 .75.34.75.75s-.34.75-.75.75"/><path fill="#292D32" d="M13 21.25H7c-1.72 0-2.75-1.03-2.75-2.75v-2c0-1.72 1.03-2.75 2.75-2.75h6c1.72 0 2.75 1.03 2.75 2.75v2c0 1.72-1.03 2.75-2.75 2.75m-6-6c-.89 0-1.25.36-1.25 1.25v2c0 .89.36 1.25 1.25 1.25h6c.89 0 1.25-.36 1.25-1.25v-2c0-.89-.36-1.25-1.25-1.25zm10-5h-6c-1.72 0-2.75-1.03-2.75-2.75v-2c0-1.72 1.03-2.75 2.75-2.75h6c1.72 0 2.75 1.03 2.75 2.75v2c0 1.72-1.03 2.75-2.75 2.75m-6-6c-.89 0-1.25.36-1.25 1.25v2c0 .89.36 1.25 1.25 1.25h6c.89 0 1.25-.36 1.25-1.25v-2c0-.89-.36-1.25-1.25-1.25z"/></svg>