<svg xmlns="http://www.w3.org/2000/svg" width="24" height="24" fill="none" viewBox="0 0 24 24"><path fill="#292D32" d="M21.9 10.78h-20c-.41 0-.75-.34-.75-.75s.34-.75.75-.75h20a.749.749 0 1 1 0 1.5"/><path fill="#292D32" d="M11.46 21.28H6.35c-3.98 0-5.2-1.2-5.2-5.14V7.92c0-3.15.67-4.9 4.24-5.11.31-.01.62-.02.96-.02h11.11c3.98 0 5.2 1.2 5.2 5.14v4.41c0 .41-.34.75-.75.75s-.75-.34-.75-.75V7.93c0-3.09-.55-3.64-3.7-3.64H6.35c-.32 0-.61.01-.89.02-2.17.13-2.81.62-2.81 3.62v8.22c0 3.09.55 3.64 3.7 3.64h5.11c.41 0 .75.34.75.75s-.34.74-.75.74"/><path fill="#292D32" d="M17.9 22.78c-2.62 0-4.75-2.13-4.75-4.75s2.13-4.75 4.75-4.75 4.75 2.13 4.75 4.75-2.13 4.75-4.75 4.75m0-8c-1.79 0-3.25 1.46-3.25 3.25s1.46 3.25 3.25 3.25 3.25-1.46 3.25-3.25-1.46-3.25-3.25-3.25"/><path fill="#292D32" d="M18.97 19.9c-.19 0-.38-.07-.53-.22l-2.11-2.11a.754.754 0 0 1 0-1.06c.29-.29.77-.29 1.06 0l2.11 2.11c.29.29.29.77 0 1.06-.14.14-.34.22-.53.22"/><path fill="#292D32" d="M16.83 19.92c-.19 0-.38-.07-.53-.22a.754.754 0 0 1 0-1.06l2.11-2.11c.29-.29.77-.29 1.06 0s.29.77 0 1.06l-2.11 2.11a.7.7 0 0 1-.53.22M9.9 16.78h-4c-.41 0-.75-.34-.75-.75s.34-.75.75-.75h4a.749.749 0 1 1 0 1.5"/></svg>