<svg xmlns="http://www.w3.org/2000/svg" width="24" height="24" fill="none" viewBox="0 0 24 24"><path fill="#292D32" d="M3.93 16.63c-.19 0-.38-.07-.53-.22a.754.754 0 0 1 0-1.06L15.35 3.4c.29-.29.77-.29 1.06 0s.29.77 0 1.06L4.46 16.42c-.14.14-.34.21-.53.21m7.17 2.4c-.19 0-.38-.07-.53-.22a.754.754 0 0 1 0-1.06l1.2-1.2c.29-.29.77-.29 1.06 0s.29.77 0 1.06l-1.2 1.2a.75.75 0 0 1-.53.22m2.69-2.69c-.19 0-.38-.07-.53-.22a.754.754 0 0 1 0-1.06l2.39-2.39c.29-.29.77-.29 1.06 0s.29.77 0 1.06l-2.39 2.39c-.14.14-.34.22-.53.22"/><path fill="#292D32" d="M11.1 22.75c-.98 0-1.96-.6-3.15-1.79l-4.91-4.91c-2.39-2.39-2.38-3.93.03-6.34l6.64-6.64c2.41-2.41 3.95-2.42 6.34-.03l4.91 4.91c2.39 2.39 2.38 3.93-.03 6.34l-6.64 6.64c-1.21 1.21-2.2 1.82-3.19 1.82m1.8-20c-.52 0-1.18.43-2.13 1.38l-6.64 6.64c-.95.95-1.38 1.61-1.38 2.12 0 .52.4 1.15 1.35 2.1l4.91 4.91c.95.95 1.57 1.35 2.09 1.35h.01c.52 0 1.17-.43 2.12-1.38l6.64-6.64c.95-.95 1.38-1.61 1.38-2.12 0-.52-.4-1.15-1.35-2.1L14.99 4.1c-.94-.95-1.57-1.35-2.09-1.35"/><path fill="#292D32" d="M22 22.75H2c-.41 0-.75-.34-.75-.75s.34-.75.75-.75h20c.41 0 .75.34.75.75s-.34.75-.75.75"/></svg>