<svg xmlns="http://www.w3.org/2000/svg" width="24" height="24" fill="none"><path fill="#292D32" d="M21 22.75H3c-.41 0-.75-.34-.75-.75s.34-.75.75-.75h18c.41 0 .75.34.75.75s-.34.75-.75.75m-15.4-3H4c-.96 0-1.75-.79-1.75-1.75V9.38c0-.96.79-1.75 1.75-1.75h1.6c.96 0 1.75.79 1.75 1.75V18c0 .96-.79 1.75-1.75 1.75M4 9.12c-.14 0-.25.11-.25.25V18c0 .14.11.25.25.25h1.6c.14 0 .25-.11.25-.25V9.38c0-.14-.11-.25-.25-.25H4zm8.8 10.63h-1.6c-.96 0-1.75-.79-1.75-1.75V6.19c0-.96.79-1.75 1.75-1.75h1.6c.96 0 1.75.79 1.75 1.75V18c0 .96-.79 1.75-1.75 1.75M11.2 5.94c-.14 0-.25.11-.25.25V18c0 .14.11.25.25.25h1.6c.14 0 .25-.11.25-.25V6.19c0-.14-.11-.25-.25-.25zM20 19.75h-1.6c-.96 0-1.75-.79-1.75-1.75V3c0-.96.79-1.75 1.75-1.75H20c.96 0 1.75.79 1.75 1.75v15c0 .96-.79 1.75-1.75 1.75m-1.6-17c-.14 0-.25.11-.25.25v15c0 .14.11.25.25.25H20c.14 0 .25-.11.25-.25V3c0-.14-.11-.25-.25-.25z"/></svg>