<svg xmlns="http://www.w3.org/2000/svg" fill="none" viewBox="0 0 24 24"><path fill="#292D32" d="M8 14.75c-.19 0-.38-.07-.53-.22l-2-2a.755.755 0 0 1 0-1.06l2-2c.29-.29.77-.29 1.06 0s.29.77 0 1.06L7.06 12l1.47 1.47c.29.29.29.77 0 1.06-.15.15-.34.22-.53.22m8 0c-.19 0-.38-.07-.53-.22a.755.755 0 0 1 0-1.06L16.94 12l-1.47-1.47a.755.755 0 0 1 0-1.06c.29-.29.77-.29 1.06 0l2 2c.29.29.29.77 0 1.06l-2 2c-.15.15-.34.22-.53.22"/><path fill="#292D32" d="M12 22.75C6.07 22.75 1.25 17.93 1.25 12S6.07 1.25 12 1.25 22.75 6.07 22.75 12 17.93 22.75 12 22.75m0-20C6.9 2.75 2.75 6.9 2.75 12S6.9 21.25 12 21.25s9.25-4.15 9.25-9.25S17.1 2.75 12 2.75"/><path fill="#292D32" d="M11 15.08a.745.745 0 0 1-.68-1.05l2-4.67c.16-.38.6-.56.98-.39.38.16.56.6.39.99l-2 4.67c-.12.28-.4.45-.69.45"/></svg>