<svg xmlns="http://www.w3.org/2000/svg" width="24" height="24" fill="none" viewBox="0 0 24 24"><path fill="#292D32" d="M16 16.75H8c-.41 0-.75-.34-.75-.75V8c0-.41.34-.75.75-.75h8c.41 0 .75.34.75.75v8c0 .41-.34.75-.75.75m-7.25-1.5h6.5v-6.5h-6.5z"/><path fill="#292D32" d="M5 22.75c-2.07 0-3.75-1.68-3.75-3.75S2.93 15.25 5 15.25h3c.41 0 .75.34.75.75v3c0 2.07-1.68 3.75-3.75 3.75m0-6c-1.24 0-2.25 1.01-2.25 2.25S3.76 21.25 5 21.25 7.25 20.24 7.25 19v-2.25zm3-8H5C2.93 8.75 1.25 7.07 1.25 5S2.93 1.25 5 1.25 8.75 2.93 8.75 5v3c0 .41-.34.75-.75.75m-3-6C3.76 2.75 2.75 3.76 2.75 5S3.76 7.25 5 7.25h2.25V5c0-1.24-1.01-2.25-2.25-2.25m14 6h-3c-.41 0-.75-.34-.75-.75V5c0-2.07 1.68-3.75 3.75-3.75S22.75 2.93 22.75 5 21.07 8.75 19 8.75m-2.25-1.5H19c1.24 0 2.25-1.01 2.25-2.25S20.24 2.75 19 2.75 16.75 3.76 16.75 5zM19 22.75c-2.07 0-3.75-1.68-3.75-3.75v-3c0-.41.34-.75.75-.75h3c2.07 0 3.75 1.68 3.75 3.75s-1.68 3.75-3.75 3.75m-2.25-6V19c0 1.24 1.01 2.25 2.25 2.25s2.25-1.01 2.25-2.25-1.01-2.25-2.25-2.25z"/></svg>