<svg xmlns="http://www.w3.org/2000/svg" width="24" height="24" fill="none"><path fill="#292D32" d="M7 8.75H4C2.48 8.75 1.25 7.52 1.25 6V4c0-1.52 1.23-2.75 2.75-2.75h3c1.52 0 2.75 1.23 2.75 2.75v2c0 1.52-1.23 2.75-2.75 2.75m-3-6c-.69 0-1.25.56-1.25 1.25v2c0 .69.56 1.25 1.25 1.25h3c.69 0 1.25-.56 1.25-1.25V4c0-.69-.56-1.25-1.25-1.25zm16.8 5h-3.6c-1.08 0-1.95-.88-1.95-1.95V4.2c0-1.08.88-1.95 1.95-1.95h3.6c1.08 0 1.95.88 1.95 1.95v1.6c0 1.08-.87 1.95-1.95 1.95m-3.6-4c-.24 0-.45.21-.45.45v1.6c0 .24.21.45.45.45h3.6c.24 0 .45-.21.45-.45V4.2c0-.24-.21-.45-.45-.45zm3.6 11.5h-3.6c-1.08 0-1.95-.88-1.95-1.95v-1.6c0-1.08.88-1.95 1.95-1.95h3.6c1.08 0 1.95.88 1.95 1.95v1.6c0 1.08-.87 1.95-1.95 1.95m-3.6-4c-.24 0-.45.21-.45.45v1.6c0 .24.21.45.45.45h3.6c.24 0 .45-.21.45-.45v-1.6c0-.24-.21-.45-.45-.45z"/><path fill="#292D32" d="M16 5.75H9c-.41 0-.75-.34-.75-.75s.34-.75.75-.75h7c.41 0 .75.34.75.75s-.34.75-.75.75"/><path fill="#fff" d="M12.5 5v13c0 1.1.9 2 2 2H16"/><path fill="#292D32" d="M16 20.75h-1.5c-1.52 0-2.75-1.23-2.75-2.75V5c0-.41.34-.75.75-.75s.75.34.75.75v13c0 .69.56 1.25 1.25 1.25H16c.41 0 .75.34.75.75s-.34.75-.75.75"/><path fill="#292D32" d="M16 13.25h-3.5c-.41 0-.75-.34-.75-.75s.34-.75.75-.75H16c.41 0 .75.34.75.75s-.34.75-.75.75m4.8 9.5h-3.6c-1.08 0-1.95-.88-1.95-1.95v-1.6c0-1.08.88-1.95 1.95-1.95h3.6c1.08 0 1.95.88 1.95 1.95v1.6c0 1.08-.87 1.95-1.95 1.95m-3.6-4c-.24 0-.45.21-.45.45v1.6c0 .24.21.45.45.45h3.6c.24 0 .45-.21.45-.45v-1.6c0-.24-.21-.45-.45-.45z"/></svg>