<svg xmlns="http://www.w3.org/2000/svg" width="24" height="24" fill="none" viewBox="0 0 24 24"><path fill="#292D32" d="M12 19.42A6.017 6.017 0 0 1 7.75 9.15 5.97 5.97 0 0 1 12 7.39a6.017 6.017 0 0 1 0 12.03M12 8.9c-1.2 0-2.34.47-3.19 1.32a4.515 4.515 0 0 0 0 6.38c1.76 1.76 4.62 1.75 6.38 0a4.515 4.515 0 0 0 0-6.38A4.5 4.5 0 0 0 12 8.9"/><path fill="#292D32" d="M10.41 15.75c-.19 0-.39-.07-.53-.22a.767.767 0 0 1 0-1.07l1.59-1.59c.29-.29.77-.29 1.07 0 .29.29.29.77 0 1.07l-1.59 1.59c-.16.15-.35.22-.54.22m8.38-8.24c-.24 0-.46-.09-.63-.26a.887.887 0 0 1 0-1.26c.17-.17.39-.26.63-.26s.46.09.63.26.26.39.26.63-.09.46-.26.63a.86.86 0 0 1-.63.26m-.07-.97v.15c.02.02.05.03.08.03.12-.07.12-.14.07-.18z"/><path fill="#292D32" d="M18.79 7.76c-.31 0-.59-.12-.81-.34a1.16 1.16 0 0 1 0-1.62c.22-.22.5-.33.81-.33s.59.12.81.34.33.5.33.81-.12.59-.34.81c-.2.21-.49.33-.8.33m-.25-.89c.07.07.16.1.25.1s.18-.04.25-.1a.35.35 0 0 0 0-.5.37.37 0 0 0-.5 0c-.06.06-.1.15-.1.25 0 .09.03.18.1.25M5.21 21.09c-.23 0-.46-.09-.63-.26a.894.894 0 0 1 0-1.26c.17-.17.39-.26.63-.26s.46.09.63.26c.35.35.35.92 0 1.26-.17.17-.4.26-.63.26m-.02-.99q-.03 0-.06.03c-.04.04-.04.11 0 .15.02.02.05.03.07.03l.1-.1c-.03-.09-.07-.11-.11-.11"/><path fill="#292D32" d="M5.21 21.34a1.144 1.144 0 0 1-1.15-1.14 1.14 1.14 0 0 1 1.15-1.14c.31 0 .59.12.81.34.45.45.45 1.17 0 1.62-.22.21-.52.32-.81.32m0-1.5a.35.35 0 1 0 .25.59c.06-.06.1-.15.1-.25 0-.09-.04-.19-.1-.25a.45.45 0 0 0-.25-.09M21.6 14.3a.894.894 0 0 1-.63-1.53c.17-.17.4-.21.63-.26.24 0 .46.09.63.26a.894.894 0 0 1-.63 1.53m-.07-.82c.02.02.05.03.08.03.11-.07.11-.14.07-.18a.11.11 0 0 0-.15 0c-.04.04-.04.11 0 .15"/><path fill="#292D32" d="M21.6 14.55a1.14 1.14 0 0 1-.81-1.95c.22-.22.5-.34.81-.34s.59.12.81.34a1.14 1.14 0 0 1-.81 1.95m-.25-.89c.07.07.16.1.25.1s.18-.04.25-.1a.35.35 0 0 0 0-.5.35.35 0 0 0-.5 0 .36.36 0 0 0 0 .5M2.4 14.3a.894.894 0 0 1-.63-1.53.9.9 0 0 1 1.27 0 .9.9 0 0 1 0 1.27c-.19.17-.42.26-.64.26m-.08-.82c.04.04.11.04.15 0s.04-.11 0-.15a.11.11 0 0 0-.15 0c-.04.04-.04.11 0 .15"/><path fill="#292D32" d="M2.4 14.55a1.14 1.14 0 0 1-.81-1.95 1.15 1.15 0 0 1 1.62 0c.45.45.45 1.17 0 1.62-.23.22-.52.33-.81.33m-.26-.89c.14.14.36.14.5 0a.35.35 0 0 0 0-.5.35.35 0 0 0-.5 0 .37.37 0 0 0 0 .5m16.65 7.43a.894.894 0 0 1-.63-1.53.9.9 0 0 1 1.27 0c.17.17.26.39.26.63s-.09.46-.26.63c-.18.18-.41.27-.64.27m0-1a.1.1 0 0 0-.07.03v.15c.04.04.11.04.15 0s.04-.11 0-.15c-.03-.02-.05-.03-.08-.03"/><path fill="#292D32" d="M18.79 21.34a1.14 1.14 0 0 1-.81-1.95 1.14 1.14 0 0 1 1.62 0c.22.22.34.5.34.81s-.12.59-.34.81-.52.33-.81.33m-.25-.89c.14.14.36.14.5 0a.35.35 0 0 0 0-.5.35.35 0 0 0-.6.25c0 .09.03.18.1.25M5.21 7.51c-.24 0-.46-.09-.63-.26a.88.88 0 0 1-.26-.63c0-.24.09-.46.26-.63s.39-.26.63-.26.46.09.63.26a.9.9 0 0 1 0 1.27.9.9 0 0 1-.63.25m-.08-.82c.02.02.05.03.07.03l.1-.1-.1-.1c-.11.06-.11.13-.07.17"/><path fill="#292D32" d="M5.21 7.76a1.14 1.14 0 0 1-1.14-1.15 1.14 1.14 0 0 1 1.15-1.14c.31 0 .59.12.81.34.44.45.44 1.17 0 1.62-.23.21-.51.33-.82.33m-.25-.89c.07.07.16.11.25.11s.18-.04.25-.1.1-.16.1-.25a.34.34 0 0 0-.11-.25c-.12-.13-.37-.13-.5 0-.13.12-.13.35.01.49M12 4.7c-.24 0-.46-.09-.63-.26a.88.88 0 0 1-.26-.63c0-.24.09-.46.26-.63a.9.9 0 0 1 1.27 0c.35.35.35.92 0 1.26-.17.16-.4.26-.64.26m.07-.97-.15.15c.04.04.11.04.15 0zm-.14 0c-.04.04-.04.11 0 .15l.15-.15z"/><path fill="#292D32" d="M12 4.95a1.14 1.14 0 0 1-1.14-1.15c0-.31.12-.59.34-.81a1.14 1.14 0 0 1 1.62 0c.44.45.44 1.17 0 1.62-.22.22-.51.34-.82.34m.25-1.4-.5.5a.35.35 0 0 0 .6-.25c0-.09-.03-.18-.1-.25m-.25-.1a.34.34 0 0 0-.25.11.35.35 0 0 0 0 .5l.5-.5a.33.33 0 0 0-.25-.11"/></svg>