<svg xmlns="http://www.w3.org/2000/svg" width="24" height="24" fill="none"><path fill="#292D32" d="M19.9 22.75H4.1c-1.92 0-2.85-.98-2.85-2.98v-4.04c0-2.01.93-2.98 2.85-2.98h15.8c1.92 0 2.85.98 2.85 2.98v4.04c0 2-.93 2.98-2.85 2.98m-15.8-8.5c-1.01 0-1.35.21-1.35 1.48v4.04c0 1.27.34 1.48 1.35 1.48h15.8c1.01 0 1.35-.21 1.35-1.48v-4.04c0-1.27-.34-1.48-1.35-1.48zm8.8-3H4.1c-1.92 0-2.85-.98-2.85-2.98V4.23c0-2.01.93-2.98 2.85-2.98h8.8c1.92 0 2.85.98 2.85 2.98v4.04c0 2-.93 2.98-2.85 2.98m-8.8-8.5c-1.01 0-1.35.21-1.35 1.48v4.04c0 1.27.34 1.48 1.35 1.48h8.8c1.01 0 1.35-.21 1.35-1.48V4.23c0-1.27-.34-1.48-1.35-1.48z"/></svg>