<svg xmlns="http://www.w3.org/2000/svg" width="24" height="24" fill="none" viewBox="0 0 24 24"><path fill="#292D32" d="M13.621 18.13h-3.23c-3.13 0-4.52-1.39-4.52-4.52v-3.23c0-3.13 1.39-4.52 4.52-4.52h3.23c3.13 0 4.52 1.39 4.52 4.52v3.23c-.01 3.13-1.4 4.52-4.52 4.52m-3.24-10.76c-2.29 0-3.02.73-3.02 3.02v3.23c0 2.29.73 3.02 3.02 3.02h3.23c2.29 0 3.02-.73 3.02-3.02v-3.23c0-2.29-.73-3.02-3.02-3.02z"/><path fill="#292D32" d="M18.23 13.52h-.85c-.41 0-.75-.34-.75-.75v-2.38c0-2.29-.73-3.02-3.02-3.02h-2.38c-.41 0-.75-.34-.75-.75v-.85c0-3.13 1.39-4.52 4.52-4.52h3.23c3.13 0 4.52 1.39 4.52 4.52V9c0 3.13-1.39 4.52-4.52 4.52m-.1-1.5h.1c2.29 0 3.02-.73 3.02-3.02V5.77c0-2.29-.73-3.02-3.02-3.02H15c-2.29 0-3.02.73-3.02 3.02v.1h1.63c3.13 0 4.52 1.39 4.52 4.52zM9 22.75H5.77c-3.13 0-4.52-1.39-4.52-4.52V15c0-3.13 1.39-4.52 4.52-4.52h.85c.41 0 .75.34.75.75v2.38c0 2.29.73 3.02 3.02 3.02h2.38c.41 0 .75.34.75.75v.85c0 3.13-1.39 4.52-4.52 4.52M5.77 11.98c-2.29 0-3.02.73-3.02 3.02v3.23c0 2.29.73 3.02 3.02 3.02H9c2.29 0 3.02-.73 3.02-3.02v-.1h-1.63c-3.13 0-4.52-1.39-4.52-4.52v-1.63z"/></svg>