<svg xmlns="http://www.w3.org/2000/svg" width="24" height="24" fill="none" viewBox="0 0 24 24"><path fill="#292D32" d="M16 22.75H8c-3.65 0-5.75-2.1-5.75-5.75V7c0-3.65 2.1-5.75 5.75-5.75h8c3.65 0 5.75 2.1 5.75 5.75v10c0 3.65-2.1 5.75-5.75 5.75m-8-20C5.14 2.75 3.75 4.14 3.75 7v10c0 2.86 1.39 4.25 4.25 4.25h8c2.86 0 4.25-1.39 4.25-4.25V7c0-2.86-1.39-4.25-4.25-4.25z"/><path fill="#292D32" d="M16.25 11.75h-8.5a2.5 2.5 0 0 1-2.5-2.5v-2.5a2.5 2.5 0 0 1 2.5-2.5h8.5a2.5 2.5 0 0 1 2.5 2.5v2.5a2.5 2.5 0 0 1-2.5 2.5m-8.5-6c-.55 0-1 .45-1 1v2.5c0 .55.45 1 1 1h8.5c.55 0 1-.45 1-1v-2.5c0-.55-.45-1-1-1zM8 18.33c-.19 0-.38-.07-.53-.22a.754.754 0 0 1 0-1.06l2.3-2.3c.29-.29.77-.29 1.06 0s.29.77 0 1.06l-2.3 2.3c-.15.15-.34.22-.53.22"/><path fill="#292D32" d="M10.33 18.36c-.19 0-.38-.07-.53-.22l-2.3-2.3a.754.754 0 0 1 0-1.06c.29-.29.77-.29 1.06 0l2.3 2.3c.29.29.29.77 0 1.06-.15.15-.34.22-.53.22m6.18-2.03c-.55 0-1.01-.45-1.01-1s.44-1 .99-1h.02c.55 0 1 .45 1 1s-.45 1-1 1m-2.02 2.16c-.55 0-1-.44-1-.99v-.02c0-.55.45-1 1-1s1 .45 1 1-.45 1.01-1 1.01"/></svg>