<svg xmlns="http://www.w3.org/2000/svg" width="24" height="24" fill="none" viewBox="0 0 24 24"><path fill="#292D32" d="M12 20.25c-1.15 0-2.26-.23-3.3-.69a.76.76 0 0 1-.39-.99.76.76 0 0 1 .99-.39c.85.37 1.76.56 2.7.56 3.72 0 6.75-3.03 6.75-6.75 0-.94-.19-1.85-.56-2.7a.751.751 0 1 1 1.38-.6c.46 1.04.69 2.15.69 3.3-.01 4.56-3.71 8.26-8.26 8.26m-5.42-2.31c-.2 0-.39-.08-.54-.23A8.22 8.22 0 0 1 3.75 12c0-4.55 3.7-8.25 8.25-8.25 2.15 0 4.18.82 5.73 2.31.3.29.31.76.02 1.06s-.76.31-1.06.02A6.73 6.73 0 0 0 12 5.25c-3.72 0-6.75 3.03-6.75 6.75 0 1.75.67 3.41 1.88 4.67.29.3.28.77-.02 1.06-.15.14-.34.21-.53.21"/><path fill="#292D32" d="M12 4.75c-.41 0-.75-.34-.75-.75V2c0-.41.34-.75.75-.75s.75.34.75.75v2c0 .41-.34.75-.75.75m-8 8H2c-.41 0-.75-.34-.75-.75s.34-.75.75-.75h2c.41 0 .75.34.75.75s-.34.75-.75.75m8 10c-.41 0-.75-.34-.75-.75v-2c0-.41.34-.75.75-.75s.75.34.75.75v2c0 .41-.34.75-.75.75m10-10h-2c-.41 0-.75-.34-.75-.75s.34-.75.75-.75h2c.41 0 .75.34.75.75s-.34.75-.75.75M9.88 14.87c-.19 0-.38-.07-.53-.22-.71-.71-1.1-1.65-1.1-2.65 0-2.07 1.68-3.75 3.75-3.75 1 0 1.94.39 2.65 1.1.29.29.29.77 0 1.06l-4.24 4.24c-.15.15-.34.22-.53.22M12 9.75c-1.24 0-2.25 1.01-2.25 2.25 0 .34.08.67.22.97l3-3c-.3-.14-.63-.22-.97-.22"/><path fill="#292D32" d="M2 22.75c-.19 0-.38-.07-.53-.22a.754.754 0 0 1 0-1.06l20-20c.29-.29.77-.29 1.06 0s.29.77 0 1.06l-20 20c-.15.15-.34.22-.53.22"/></svg>