<svg xmlns="http://www.w3.org/2000/svg" width="24" height="24" fill="none" viewBox="0 0 24 24"><path fill="#292D32" d="M15 22.75H9c-5.43 0-7.75-2.32-7.75-7.75V9c0-5.43 2.32-7.75 7.75-7.75h6c5.43 0 7.75 2.32 7.75 7.75v6c0 5.43-2.32 7.75-7.75 7.75m-6-20C4.39 2.75 2.75 4.39 2.75 9v6c0 4.61 1.64 6.25 6.25 6.25h6c4.61 0 6.25-1.64 6.25-6.25V9c0-4.61-1.64-6.25-6.25-6.25z"/><path fill="#292D32" d="M22 9.25H2.03c-.41 0-.75-.34-.75-.75s.34-.75.75-.75H22c.41 0 .75.34.75.75s-.34.75-.75.75m0 7H2.03c-.41 0-.75-.34-.75-.75s.34-.75.75-.75H22c.41 0 .75.34.75.75s-.34.75-.75.75"/><path fill="#292D32" d="M8.51 22.74c-.41 0-.75-.34-.75-.75V2.01c0-.41.34-.75.75-.75s.75.34.75.75v19.97c0 .42-.33.76-.75.76m7 0c-.41 0-.75-.34-.75-.75V2.01c0-.41.34-.75.75-.75s.75.34.75.75v19.97c0 .42-.33.76-.75.76"/></svg>