<svg xmlns="http://www.w3.org/2000/svg" width="24" height="24" fill="none"><path fill="#292D32" d="M15 22.75H9c-5.43 0-7.75-2.32-7.75-7.75V9c0-5.43 2.32-7.75 7.75-7.75h6c5.43 0 7.75 2.32 7.75 7.75v6c0 5.43-2.32 7.75-7.75 7.75m-6-20C4.39 2.75 2.75 4.39 2.75 9v6c0 4.61 1.64 6.25 6.25 6.25h6c4.61 0 6.25-1.64 6.25-6.25V9c0-4.61-1.64-6.25-6.25-6.25z"/><path fill="#292D32" d="M22 12.75H2c-.41 0-.75-.34-.75-.75s.34-.75.75-.75h20c.41 0 .75.34.75.75s-.34.75-.75.75"/><path fill="#292D32" d="M8.25 22.25c-.41 0-.75-.34-.75-.75V12c0-.41.34-.75.75-.75s.75.34.75.75v9.5c0 .41-.34.75-.75.75m7.5.5c-.41 0-.75-.34-.75-.75V12c0-.41.34-.75.75-.75s.75.34.75.75v10c0 .41-.34.75-.75.75"/><path fill="#292D32" d="M8.25 12.75c-.41 0-.75-.34-.75-.75V2c0-.41.34-.75.75-.75S9 1.59 9 2v10c0 .41-.34.75-.75.75m7.5 0c-.41 0-.75-.34-.75-.75V2.54c0-.41.34-.75.75-.75s.75.34.75.75V12c0 .41-.34.75-.75.75"/></svg>