<svg xmlns="http://www.w3.org/2000/svg" width="24" height="24" fill="none"><path fill="#292D32" d="M14 22.75H9c-5.43 0-7.75-2.32-7.75-7.75V9c0-5.43 2.32-7.75 7.75-7.75h6c5.43 0 7.75 2.32 7.75 7.75v4c0 .41-.34.75-.75.75s-.75-.34-.75-.75V9c0-4.61-1.64-6.25-6.25-6.25H9C4.39 2.75 2.75 4.39 2.75 9v6c0 4.61 1.64 6.25 6.25 6.25h5c.41 0 .75.34.75.75s-.34.75-.75.75"/><path fill="#292D32" d="M19 22.75a.753.753 0 0 1-.75-.75v-6c0-.41.34-.75.75-.75s.75.34.75.75v4.19l.72-.72c.29-.29.77-.29 1.06 0s.29.77 0 1.06l-2 2c-.14.14-.34.22-.53.22"/><path fill="#292D32" d="M19 22.75c-.19 0-.38-.07-.53-.22l-2-2a.754.754 0 0 1 0-1.06c.29-.29.77-.29 1.06 0l2 2c.29.29.29.77 0 1.06-.15.15-.34.22-.53.22M8.9 16.49h-.08a.75.75 0 0 1-.66-.83L9.2 6.18c.05-.41.41-.71.83-.66.41.05.71.42.66.83l-1.05 9.47c-.04.38-.37.67-.74.67m3.15 0h-.08a.75.75 0 0 1-.66-.83l1.05-9.47c.05-.41.42-.71.83-.66s.71.42.66.83l-1.05 9.47c-.04.37-.37.66-.75.66"/><path fill="#292D32" d="M16 10.17H6.53c-.41 0-.75-.34-.75-.75s.34-.75.75-.75H16c.41 0 .75.34.75.75s-.34.75-.75.75m-.53 3.16H6c-.41 0-.75-.34-.75-.75s.34-.75.75-.75h9.47a.749.749 0 1 1 0 1.5"/></svg>