<svg xmlns="http://www.w3.org/2000/svg" width="24" height="24" fill="none" viewBox="0 0 24 24"><path fill="#292D32" d="M8 21.75h-.08a.75.75 0 0 1-.66-.83l2-18c.05-.41.42-.7.83-.66.41.05.71.42.66.83l-2 18c-.05.38-.37.66-.75.66m6 0h-.08a.75.75 0 0 1-.66-.83l2-18c.05-.41.41-.7.83-.66.41.05.71.42.66.83l-2 18c-.05.38-.37.66-.75.66"/><path fill="#292D32" d="M21.5 9.75h-18c-.41 0-.75-.34-.75-.75s.34-.75.75-.75h18c.41 0 .75.34.75.75s-.34.75-.75.75m-1 6h-18c-.41 0-.75-.34-.75-.75s.34-.75.75-.75h18c.41 0 .75.34.75.75s-.34.75-.75.75"/></svg>