<svg xmlns="http://www.w3.org/2000/svg" fill="none" viewBox="0 0 24 24"><path fill="#292D32" d="M5 8.75C2.93 8.75 1.25 7.07 1.25 5S2.93 1.25 5 1.25 8.75 2.93 8.75 5 7.07 8.75 5 8.75m0-6C3.76 2.75 2.75 3.76 2.75 5S3.76 7.25 5 7.25 7.25 6.24 7.25 5 6.24 2.75 5 2.75m14 13c-2.07 0-3.75-1.68-3.75-3.75S16.93 8.25 19 8.25s3.75 1.68 3.75 3.75-1.68 3.75-3.75 3.75m0-6c-1.24 0-2.25 1.01-2.25 2.25s1.01 2.25 2.25 2.25 2.25-1.01 2.25-2.25S20.24 9.75 19 9.75m-14 13c-2.07 0-3.75-1.68-3.75-3.75S2.93 15.25 5 15.25 8.75 16.93 8.75 19 7.07 22.75 5 22.75m0-6c-1.24 0-2.25 1.01-2.25 2.25S3.76 21.25 5 21.25 7.25 20.24 7.25 19 6.24 16.75 5 16.75"/><path fill="#292D32" d="M5 16.75c-.41 0-.75-.34-.75-.75V8c0-.41.34-.75.75-.75s.75.34.75.75c0 2.19 1.06 3.25 3.25 3.25h7c.41 0 .75.34.75.75s-.34.75-.75.75H9c-1.36 0-2.45-.35-3.25-1.01V16c0 .41-.34.75-.75.75"/></svg>