<svg xmlns="http://www.w3.org/2000/svg" width="24" height="24" fill="none" viewBox="0 0 24 24"><path fill="#292D32" d="M16.99 9.71H7.01c-.41 0-.75-.34-.75-.75s.34-.75.75-.75h9.98c.41 0 .75.34.75.75s-.34.75-.75.75"/><path fill="#292D32" d="M12 9.71c-.41 0-.75-.34-.75-.75V7.28c0-.41.34-.75.75-.75s.75.34.75.75v1.68c0 .41-.34.75-.75.75m-5 7.76c-.41 0-.75-.34-.75-.75s.34-.75.75-.75c3.72 0 6.75-3.15 6.75-7.03 0-.41.34-.75.75-.75s.75.34.75.75c0 4.71-3.7 8.53-8.25 8.53"/><path fill="#292D32" d="M17.001 17.47c-1.97 0-3.8-.98-5.14-2.77a.75.75 0 0 1 1.2-.9c1.06 1.4 2.46 2.17 3.95 2.17.41 0 .75.34.75.75s-.35.75-.76.75"/><path fill="#292D32" d="M12 22.75C6.07 22.75 1.25 17.93 1.25 12S6.07 1.25 12 1.25 22.75 6.07 22.75 12 17.93 22.75 12 22.75m0-20C6.9 2.75 2.75 6.9 2.75 12S6.9 21.25 12 21.25s9.25-4.15 9.25-9.25S17.1 2.75 12 2.75"/></svg>