<svg xmlns="http://www.w3.org/2000/svg" width="24" height="24" fill="none" viewBox="0 0 24 24"><path fill="#292D32" d="M11.97 22.75C6.05 22.75 1.22 17.93 1.22 12S6.05 1.25 11.97 1.25 22.72 6.07 22.72 12 17.9 22.75 11.97 22.75m0-20c-5.1 0-9.25 4.15-9.25 9.25s4.15 9.25 9.25 9.25 9.25-4.15 9.25-9.25-4.15-9.25-9.25-9.25"/><path fill="#292D32" d="M12 17.25c-2.9 0-5.25-2.36-5.25-5.25S9.1 6.75 12 6.75s5.25 2.36 5.25 5.25-2.35 5.25-5.25 5.25m0-9c-2.07 0-3.75 1.68-3.75 3.75s1.68 3.75 3.75 3.75 3.75-1.68 3.75-3.75S14.07 8.25 12 8.25"/><path fill="#292D32" d="M8.44 9.21c-.19 0-.39-.07-.53-.21L4.37 5.46a.754.754 0 0 1 0-1.06c.29-.29.77-.29 1.06 0l3.54 3.54c.29.29.29.76 0 1.06-.15.14-.34.21-.53.21M4.9 19.82c-.19 0-.38-.07-.53-.22a.754.754 0 0 1 0-1.06L7.91 15c.29-.29.77-.29 1.06 0s.29.77 0 1.06L5.43 19.6c-.14.15-.34.22-.53.22m14.14 0c-.19 0-.38-.07-.53-.22l-3.54-3.54a.754.754 0 0 1 0-1.06c.29-.29.77-.29 1.06 0l3.54 3.54c.29.29.29.77 0 1.06a.7.7 0 0 1-.53.22M15.51 9.21c-.19 0-.38-.07-.53-.22a.754.754 0 0 1 0-1.06l3.54-3.54c.29-.29.77-.29 1.06 0s.29.77 0 1.06L16.04 9c-.15.14-.34.21-.53.21"/></svg>