<svg xmlns="http://www.w3.org/2000/svg" fill="none" viewBox="0 0 24 24"><path fill="#292D32" d="M21.7 6.39h-7.27c-.41 0-.75-.34-.75-.75s.34-.75.75-.75h7.27c.41 0 .75.34.75.75s-.34.75-.75.75m-12.12 0H2.3c-.41 0-.75-.34-.75-.75s.34-.75.75-.75h7.27c.41 0 .75.34.75.75s-.33.75-.74.75m12.12 9.69h-7.27c-.41 0-.75-.34-.75-.75s.34-.75.75-.75h7.27c.41 0 .75.34.75.75s-.34.75-.75.75m0 6.06h-7.27c-.41 0-.75-.34-.75-.75s.34-.75.75-.75h7.27c.41 0 .75.34.75.75s-.34.75-.75.75"/><path fill="#292D32" d="M18.09 10.02c-.41 0-.75-.34-.75-.75V2c0-.41.34-.75.75-.75s.75.34.75.75v7.27c0 .42-.33.75-.75.75M2.3 22.75c-.19 0-.38-.07-.53-.22a.754.754 0 0 1 0-1.06l7.27-7.27c.29-.29.77-.29 1.06 0s.29.77 0 1.06l-7.27 7.27a.7.7 0 0 1-.53.22"/><path fill="#292D32" d="M9.58 22.75c-.19 0-.38-.07-.53-.22l-7.27-7.27a.754.754 0 0 1 0-1.06c.29-.29.77-.29 1.06 0l7.27 7.27c.29.29.29.77 0 1.06-.15.15-.34.22-.53.22"/></svg>