<svg xmlns="http://www.w3.org/2000/svg" width="24" height="24" fill="none" viewBox="0 0 24 24"><path fill="#292D32" d="M21 9.75c-.41 0-.75-.34-.75-.75V3.75H15c-.41 0-.75-.34-.75-.75s.34-.75.75-.75h6c.41 0 .75.34.75.75v6c0 .41-.34.75-.75.75m-12 12H3c-.41 0-.75-.34-.75-.75v-6c0-.41.34-.75.75-.75s.75.34.75.75v5.25H9c.41 0 .75.34.75.75s-.34.75-.75.75"/><path fill="#292D32" d="M13.5 11.25c-.19 0-.38-.07-.53-.22a.754.754 0 0 1 0-1.06l7.5-7.5c.29-.29.77-.29 1.06 0s.29.77 0 1.06l-7.5 7.5c-.15.15-.34.22-.53.22M3 21.75c-.19 0-.38-.07-.53-.22a.754.754 0 0 1 0-1.06l7.5-7.5c.29-.29.77-.29 1.06 0s.29.77 0 1.06l-7.5 7.5c-.15.15-.34.22-.53.22"/></svg>