<svg xmlns="http://www.w3.org/2000/svg" fill="none" viewBox="0 0 24 24"><path fill="#292D32" d="M17.54 9.06c-1.77 0-3.21-1.44-3.21-3.21s1.44-3.21 3.21-3.21 3.21 1.44 3.21 3.21-1.44 3.21-3.21 3.21m0-4.93c-.94 0-1.71.77-1.71 1.71s.77 1.71 1.71 1.71 1.71-.77 1.71-1.71-.77-1.71-1.71-1.71M6.46 9.06c-1.77 0-3.21-1.44-3.21-3.21s1.44-3.21 3.21-3.21 3.21 1.44 3.21 3.21-1.44 3.21-3.21 3.21m0-4.93c-.94 0-1.71.77-1.71 1.71s.77 1.71 1.71 1.71 1.71-.77 1.71-1.71-.76-1.71-1.71-1.71m11.08 17.24c-1.77 0-3.21-1.44-3.21-3.21s1.44-3.21 3.21-3.21 3.21 1.44 3.21 3.21-1.44 3.21-3.21 3.21m0-4.93c-.94 0-1.71.77-1.71 1.71s.77 1.71 1.71 1.71 1.71-.77 1.71-1.71-.77-1.71-1.71-1.71M6.46 21.37c-1.77 0-3.21-1.44-3.21-3.21s1.44-3.21 3.21-3.21 3.21 1.44 3.21 3.21-1.44 3.21-3.21 3.21m0-4.93c-.94 0-1.71.77-1.71 1.71s.77 1.71 1.71 1.71 1.71-.77 1.71-1.71-.76-1.71-1.71-1.71"/></svg>