<svg xmlns="http://www.w3.org/2000/svg" width="24" height="24" fill="none"><path fill="#292D32" d="M10 17.7H6.21c-3.8 0-4.96-1.16-4.96-4.96v-6c0-3.8 1.16-4.96 4.96-4.96h10.53c3.8 0 4.96 1.16 4.96 4.96 0 .41-.34.75-.75.75s-.75-.34-.75-.75c0-2.94-.52-3.46-3.46-3.46H6.21c-2.94 0-3.46.52-3.46 3.46v6c0 2.94.52 3.46 3.46 3.46H10c.41 0 .75.34.75.75s-.34.75-.75.75"/><path fill="#292D32" d="M10 22.22c-.41 0-.75-.34-.75-.75v-4.53c0-.41.34-.75.75-.75s.75.34.75.75v4.53c0 .42-.34.75-.75.75m0-8.52H2c-.41 0-.75-.34-.75-.75s.34-.75.75-.75h8c.41 0 .75.34.75.75s-.34.75-.75.75"/><path fill="#292D32" d="M10 22.22H6.74c-.41 0-.75-.34-.75-.75s.34-.75.75-.75H10c.41 0 .75.34.75.75s-.34.75-.75.75m9.04 0h-3.55c-2.77 0-3.71-.94-3.71-3.71V12.8c0-2.77.94-3.71 3.71-3.71h3.55c2.77 0 3.71.94 3.71 3.71v5.71c0 2.78-.94 3.71-3.71 3.71m-3.55-11.63c-1.96 0-2.21.25-2.21 2.21v5.71c0 1.96.25 2.21 2.21 2.21h3.55c1.96 0 2.21-.25 2.21-2.21V12.8c0-1.96-.25-2.21-2.21-2.21z"/><path fill="#292D32" d="M17.3 18.97c-.26 0-.52-.1-.71-.29a1 1 0 0 1-.21-.32c-.05-.13-.08-.26-.08-.39 0-.26.11-.52.29-.7.23-.23.58-.34.91-.28l.18.06c.06.03.12.06.17.09a1.01 1.01 0 0 1 .45.83c0 .13-.03.26-.08.39-.05.12-.12.23-.21.32a.6.6 0 0 1-.16.12 1 1 0 0 1-.17.1c-.06.02-.12.04-.18.05-.07.02-.13.02-.2.02"/></svg>