<svg xmlns="http://www.w3.org/2000/svg" width="24" height="24" fill="none"><path fill="#292D32" d="M12 10.07a2.92 2.92 0 0 1-2.91-2.91c0-1.6 1.31-2.91 2.91-2.91s2.91 1.31 2.91 2.91-1.31 2.91-2.91 2.91m0-4.32c-.78 0-1.41.63-1.41 1.41s.63 1.41 1.41 1.41 1.41-.63 1.41-1.41-.63-1.41-1.41-1.41m-5.21 14a2.92 2.92 0 0 1-2.91-2.91c0-1.6 1.31-2.91 2.91-2.91s2.91 1.31 2.91 2.91-1.31 2.91-2.91 2.91m0-4.32c-.78 0-1.41.63-1.41 1.41s.63 1.41 1.41 1.41 1.41-.63 1.41-1.41-.64-1.41-1.41-1.41m10.42 4.32a2.92 2.92 0 0 1-2.91-2.91c0-1.6 1.31-2.91 2.91-2.91s2.91 1.31 2.91 2.91-1.3 2.91-2.91 2.91m0-4.32c-.78 0-1.41.63-1.41 1.41s.63 1.41 1.41 1.41 1.41-.63 1.41-1.41-.63-1.41-1.41-1.41"/></svg>