<svg xmlns="http://www.w3.org/2000/svg" fill="none" viewBox="0 0 24 24"><path fill="#292D32" d="M14.35 21.75h-5.7c-5.19 0-7.4-2.21-7.4-7.4v-5.7c0-5.19 2.21-7.4 7.4-7.4h5.7c5.19 0 7.4 2.21 7.4 7.4v5.7c0 .36-.01.7-.03 1.03-.02.3-.22.56-.51.66s-.6.01-.81-.21c-.6-.68-1.48-1.08-2.41-1.08-1.79 0-3.25 1.46-3.25 3.25 0 .59.16 1.17.47 1.67.16.28.37.53.61.74.23.2.32.52.22.8-.1.29-.36.49-.66.51-.32.02-.66.03-1.03.03m-5.7-19c-4.36 0-5.9 1.54-5.9 5.9v5.7c0 4.36 1.54 5.9 5.9 5.9h5.17a4.7 4.7 0 0 1-.57-2.25c0-2.62 2.13-4.75 4.75-4.75.8 0 1.57.2 2.25.56V8.65c0-4.36-1.54-5.9-5.9-5.9z"/><path fill="#292D32" d="M6.72 15.17c-1.21 0-2.2-.99-2.2-2.2s.99-2.2 2.2-2.2 2.2.99 2.2 2.2-.99 2.2-2.2 2.2m0-2.9c-.38 0-.7.31-.7.7 0 .38.31.7.7.7s.7-.31.7-.7-.31-.7-.7-.7"/><path fill="#292D32" d="M8.17 13.72c-.41 0-.75-.34-.75-.75V7.14c0-.91.57-1.65 1.44-1.89l2.9-.79c.9-.25 1.47-.01 1.78.23s.69.72.69 1.65V12c0 .41-.34.75-.75.75s-.75-.34-.75-.75V6.34c0-.32-.07-.44-.1-.46s-.18-.06-.48.02l-2.89.79c-.3.08-.34.29-.34.44v5.83c0 .42-.34.76-.75.76"/><path fill="#292D32" d="M12.03 14.2c-1.21 0-2.2-.99-2.2-2.2s.99-2.2 2.2-2.2 2.2.99 2.2 2.2a2.2 2.2 0 0 1-2.2 2.2m0-2.89c-.38 0-.7.31-.7.7 0 .38.31.7.7.7s.7-.31.7-.7-.32-.7-.7-.7M8.17 9.58a.747.747 0 0 1-.19-1.47l5.31-1.45c.4-.1.81.13.92.53s-.13.81-.53.92L8.37 9.56c-.07.01-.14.02-.2.02M18 22.75a4.7 4.7 0 0 1-3.17-1.23c-.35-.3-.66-.67-.9-1.08-.44-.72-.68-1.57-.68-2.44 0-2.62 2.13-4.75 4.75-4.75 1.36 0 2.65.58 3.53 1.58A4.74 4.74 0 0 1 22.75 18c0 .87-.24 1.72-.69 2.45-.84 1.42-2.4 2.3-4.06 2.3m0-8c-1.79 0-3.25 1.46-3.25 3.25 0 .59.16 1.17.47 1.67.16.28.37.53.61.74a3.222 3.222 0 0 0 4.95-.72c.31-.51.47-1.08.47-1.68 0-.8-.3-1.57-.84-2.17-.6-.7-1.48-1.09-2.41-1.09"/><path fill="#292D32" d="M19.07 19.79c-.19 0-.38-.07-.53-.22l-2.11-2.11a.754.754 0 0 1 0-1.06c.29-.29.77-.29 1.06 0l2.11 2.11c.29.29.29.77 0 1.06-.15.15-.34.22-.53.22"/><path fill="#292D32" d="M16.931 19.82c-.19 0-.38-.07-.53-.22a.754.754 0 0 1 0-1.06l2.11-2.11c.29-.29.77-.29 1.06 0s.29.77 0 1.06l-2.11 2.11c-.15.15-.34.22-.53.22"/></svg>