<svg xmlns="http://www.w3.org/2000/svg" width="24" height="24" fill="none"><path fill="#292D32" d="M14.35 21.75h-5.7c-5.19 0-7.4-2.21-7.4-7.4v-5.7c0-5.19 2.21-7.4 7.4-7.4h5.7c5.19 0 7.4 2.21 7.4 7.4v5.7c0 .36-.01.7-.03 1.03-.02.3-.22.56-.51.66s-.6.01-.81-.21c-.6-.68-1.48-1.08-2.41-1.08-1.79 0-3.25 1.46-3.25 3.25 0 .59.16 1.17.47 1.67.16.28.37.53.61.74.23.2.32.52.22.8-.1.29-.36.49-.66.51-.32.02-.66.03-1.03.03m-5.7-19c-4.36 0-5.9 1.54-5.9 5.9v5.7c0 4.36 1.54 5.9 5.9 5.9h5.17a4.7 4.7 0 0 1-.57-2.25c0-2.62 2.13-4.75 4.75-4.75.8 0 1.57.2 2.25.56V8.65c0-4.36-1.54-5.9-5.9-5.9z"/><path fill="#292D32" d="M6.72 15.17c-1.21 0-2.2-.99-2.2-2.2s.99-2.2 2.2-2.2 2.2.99 2.2 2.2-.99 2.2-2.2 2.2m0-2.9c-.38 0-.7.31-.7.7 0 .38.31.7.7.7s.7-.31.7-.7-.31-.7-.7-.7"/><path fill="#292D32" d="M8.17 13.72c-.41 0-.75-.34-.75-.75V7.14c0-.91.57-1.65 1.44-1.89l2.9-.79c.9-.25 1.47-.01 1.78.23s.69.72.69 1.65V12c0 .41-.34.75-.75.75s-.75-.34-.75-.75V6.34c0-.32-.07-.44-.1-.46s-.17-.06-.48.02l-2.89.79c-.3.08-.34.29-.34.44v5.83c0 .42-.34.76-.75.76"/><path fill="#292D32" d="M12.03 14.2c-1.21 0-2.2-.99-2.2-2.2s.99-2.2 2.2-2.2 2.2.99 2.2 2.2a2.2 2.2 0 0 1-2.2 2.2m0-2.89c-.38 0-.7.31-.7.7 0 .38.31.7.7.7s.7-.31.7-.7-.32-.7-.7-.7M8.17 9.58a.747.747 0 0 1-.19-1.47l5.31-1.45c.4-.1.81.13.92.53s-.13.81-.53.92L8.37 9.56c-.07.01-.14.02-.2.02M18 22.75c-1.66 0-3.22-.88-4.06-2.31-.45-.72-.69-1.57-.69-2.44 0-2.62 2.13-4.75 4.75-4.75s4.75 2.13 4.75 4.75c0 .87-.24 1.72-.69 2.45-.84 1.42-2.4 2.3-4.06 2.3m0-8c-1.79 0-3.25 1.46-3.25 3.25 0 .59.16 1.17.47 1.67.59 1 1.63 1.58 2.78 1.58s2.19-.59 2.78-1.57c.31-.51.47-1.08.47-1.68 0-1.79-1.46-3.25-3.25-3.25"/><path fill="#292D32" d="M19.49 18.73H16.5c-.41 0-.75-.34-.75-.75s.34-.75.75-.75h2.99a.749.749 0 1 1 0 1.5"/><path fill="#292D32" d="M18 20.26c-.41 0-.75-.34-.75-.75v-2.99c0-.41.34-.75.75-.75s.75.34.75.75v2.99c0 .42-.34.75-.75.75"/></svg>