<svg xmlns="http://www.w3.org/2000/svg" width="24" height="24" fill="none" viewBox="0 0 24 24"><path fill="#292D32" d="M15 22.75H9c-5.43 0-7.75-2.32-7.75-7.75V9c0-5.43 2.32-7.75 7.75-7.75h6c5.43 0 7.75 2.32 7.75 7.75v6c0 5.43-2.32 7.75-7.75 7.75m-6-20C4.39 2.75 2.75 4.39 2.75 9v6c0 4.61 1.64 6.25 6.25 6.25h6c4.61 0 6.25-1.64 6.25-6.25V9c0-4.61-1.64-6.25-6.25-6.25z"/><path fill="#292D32" d="M8.57 16.02c-.19 0-.38-.07-.53-.22a.754.754 0 0 1 0-1.06l6.55-6.55c.29-.29.77-.29 1.06 0s.29.77 0 1.06L9.1 15.8c-.15.15-.34.22-.53.22m.41-4.91C7.89 11.11 7 10.22 7 9.13s.89-1.98 1.98-1.98 1.98.89 1.98 1.98-.89 1.98-1.98 1.98m0-2.45a.48.48 0 0 0-.48.48c0 .27.21.48.48.48s.48-.21.48-.48a.48.48 0 0 0-.48-.48m6.539 8.18c-1.09 0-1.98-.89-1.98-1.98s.89-1.98 1.98-1.98 1.98.89 1.98 1.98-.89 1.98-1.98 1.98m0-2.45a.48.48 0 0 0-.48.48c0 .27.21.48.48.48s.48-.21.48-.48-.21-.48-.48-.48"/></svg>