<svg xmlns="http://www.w3.org/2000/svg" width="24" height="24" fill="none" viewBox="0 0 24 24"><path fill="#292D32" d="M8.57 16.02c-.19 0-.38-.07-.53-.22a.754.754 0 0 1 0-1.06l6.55-6.55c.29-.29.77-.29 1.06 0s.29.77 0 1.06L9.1 15.8c-.15.15-.34.22-.53.22m.41-4.91C7.89 11.11 7 10.22 7 9.13s.89-1.98 1.98-1.98 1.98.89 1.98 1.98-.89 1.98-1.98 1.98m0-2.45a.48.48 0 0 0-.48.48c0 .27.21.48.48.48s.48-.21.48-.48a.48.48 0 0 0-.48-.48m6.539 8.18c-1.09 0-1.98-.89-1.98-1.98s.89-1.98 1.98-1.98 1.98.89 1.98 1.98-.89 1.98-1.98 1.98m0-2.45a.48.48 0 0 0-.48.48c0 .27.21.48.48.48s.48-.21.48-.48-.21-.48-.48-.48"/><path fill="#292D32" d="M12 22.75C6.07 22.75 1.25 17.93 1.25 12S6.07 1.25 12 1.25 22.75 6.07 22.75 12 17.93 22.75 12 22.75m0-20C6.9 2.75 2.75 6.9 2.75 12S6.9 21.25 12 21.25s9.25-4.15 9.25-9.25S17.1 2.75 12 2.75"/></svg>