<svg xmlns="http://www.w3.org/2000/svg" width="24" height="24" fill="none" viewBox="0 0 24 24"><path fill="#292D32" d="M21 22.75H3c-.41 0-.75-.34-.75-.75s.34-.75.75-.75h18c.41 0 .75.34.75.75s-.34.75-.75.75m0-20H3c-.41 0-.75-.34-.75-.75s.34-.75.75-.75h18c.41 0 .75.34.75.75s-.34.75-.75.75m-9 16c-.41 0-.75-.34-.75-.75V6c0-.41.34-.75.75-.75s.75.34.75.75v12c0 .41-.34.75-.75.75"/><path fill="#292D32" d="M14.83 8.47c-.19 0-.38-.07-.53-.22L12 5.95l-2.3 2.3c-.29.29-.77.29-1.06 0a.754.754 0 0 1 0-1.06l2.83-2.83c.28-.28.78-.28 1.06 0l2.83 2.83c.29.29.29.77 0 1.06-.15.15-.34.22-.53.22m-2.83 11a.75.75 0 0 1-.53-.22l-2.83-2.83a.754.754 0 0 1 0-1.06c.29-.29.77-.29 1.06 0l2.3 2.3 2.3-2.3c.29-.29.77-.29 1.06 0s.29.77 0 1.06l-2.83 2.83a.75.75 0 0 1-.53.22"/></svg>