<svg xmlns="http://www.w3.org/2000/svg" width="24" height="24" fill="none" viewBox="0 0 24 24"><path fill="#292D32" d="M17 22.75H7c-3.44 0-5.75-2.31-5.75-5.75v-7c0-3.44 2.31-5.75 5.75-5.75h10c3.44 0 5.75 2.31 5.75 5.75v7c0 3.44-2.31 5.75-5.75 5.75m-10-17c-2.58 0-4.25 1.67-4.25 4.25v7c0 2.58 1.67 4.25 4.25 4.25h10c2.58 0 4.25-1.67 4.25-4.25v-7c0-2.58-1.67-4.25-4.25-4.25z"/><path fill="#292D32" d="M7 5.75c-.41 0-.75-.34-.75-.75V2c0-.41.34-.75.75-.75s.75.34.75.75v3c0 .41-.34.75-.75.75m1.5 11c-1.79 0-3.25-1.46-3.25-3.25s1.46-3.25 3.25-3.25 3.25 1.46 3.25 3.25-1.46 3.25-3.25 3.25m0-5c-.96 0-1.75.79-1.75 1.75s.79 1.75 1.75 1.75 1.75-.79 1.75-1.75-.79-1.75-1.75-1.75m10 0h-4c-.41 0-.75-.34-.75-.75s.34-.75.75-.75h4c.41 0 .75.34.75.75s-.34.75-.75.75m-3.5 4h-.5c-.41 0-.75-.34-.75-.75s.34-.75.75-.75h.5c.41 0 .75.34.75.75s-.34.75-.75.75m3.5 0H18c-.41 0-.75-.34-.75-.75s.34-.75.75-.75h.5c.41 0 .75.34.75.75s-.34.75-.75.75"/></svg>