<svg xmlns="http://www.w3.org/2000/svg" width="24" height="24" fill="none"><path fill="#292D32" d="M11.42 19.25H8.69C6 19.25 4.75 18 4.75 15.31v-2.73C4.75 9.9 6 8.65 8.69 8.65h2.73c2.68 0 3.94 1.25 3.94 3.94v2.73c-.01 2.68-1.26 3.93-3.94 3.93m-2.73-9.1c-1.87 0-2.44.57-2.44 2.44v2.73c0 1.87.57 2.44 2.44 2.44h2.73c1.87 0 2.44-.57 2.44-2.44v-2.73c0-1.87-.57-2.44-2.44-2.44z"/><path fill="#292D32" d="M15.31 15.35h-.71c-.41 0-.75-.34-.75-.75v-2.02c0-1.87-.57-2.44-2.44-2.44H9.4c-.41 0-.75-.34-.75-.75v-.7c0-2.68 1.25-3.94 3.94-3.94h2.73c2.68 0 3.94 1.25 3.94 3.94v2.73c-.01 2.68-1.26 3.93-3.95 3.93m-5.16-6.7h1.27c2.68 0 3.94 1.25 3.94 3.94v1.27c1.84-.01 2.4-.58 2.4-2.44V8.69c0-1.87-.57-2.44-2.44-2.44h-2.73c-1.86 0-2.43.56-2.44 2.4M15 22.75a.752.752 0 0 1-.64-1.14l1.05-1.75c.21-.36.67-.47 1.03-.26s.47.67.26 1.03l-.27.45c2.76-.65 4.83-3.13 4.83-6.09 0-.41.34-.75.75-.75s.75.34.75.75c-.01 4.28-3.49 7.76-7.76 7.76m-13-13c-.41 0-.75-.34-.75-.75 0-4.27 3.48-7.75 7.75-7.75a.752.752 0 0 1 .64 1.14L8.59 4.14c-.21.35-.67.47-1.03.25a.746.746 0 0 1-.25-1.03l.27-.45A6.26 6.26 0 0 0 2.75 9c0 .41-.34.75-.75.75"/></svg>