<svg xmlns="http://www.w3.org/2000/svg" fill="none" viewBox="0 0 24 24"><path fill="#292D32" d="M2 9.75c-.41 0-.75-.34-.75-.75V6.5c0-2.9 2.36-5.25 5.25-5.25H9c.41 0 .75.34.75.75s-.34.75-.75.75H6.5c-2.07 0-3.75 1.68-3.75 3.75V9c0 .41-.34.75-.75.75m20 0c-.41 0-.75-.34-.75-.75V6.5c0-2.07-1.68-3.75-3.75-3.75H15c-.41 0-.75-.34-.75-.75s.34-.75.75-.75h2.5c2.89 0 5.25 2.35 5.25 5.25V9c0 .41-.34.75-.75.75m-4.5 13H16c-.41 0-.75-.34-.75-.75s.34-.75.75-.75h1.5c2.07 0 3.75-1.68 3.75-3.75V16c0-.41.34-.75.75-.75s.75.34.75.75v1.5c0 2.9-2.36 5.25-5.25 5.25m-8.5 0H6.5c-2.89 0-5.25-2.35-5.25-5.25V15c0-.41.34-.75.75-.75s.75.34.75.75v2.5c0 2.07 1.68 3.75 3.75 3.75H9c.41 0 .75.34.75.75s-.34.75-.75.75"/><path fill="#292D32" d="M8.5 11.75c-1.79 0-3.25-1.46-3.25-3.25S6.71 5.25 8.5 5.25s3.25 1.46 3.25 3.25-1.46 3.25-3.25 3.25m0-5c-.96 0-1.75.79-1.75 1.75s.79 1.75 1.75 1.75 1.75-.79 1.75-1.75-.79-1.75-1.75-1.75m-1 12c-1.24 0-2.25-1.01-2.25-2.25s1.01-2.25 2.25-2.25 2.25 1.01 2.25 2.25-1.01 2.25-2.25 2.25m0-3c-.41 0-.75.34-.75.75s.34.75.75.75.75-.34.75-.75-.34-.75-.75-.75m9-6c-1.24 0-2.25-1.01-2.25-2.25s1.01-2.25 2.25-2.25 2.25 1.01 2.25 2.25-1.01 2.25-2.25 2.25m0-3c-.41 0-.75.34-.75.75s.34.75.75.75.75-.34.75-.75-.34-.75-.75-.75m-1 12c-1.79 0-3.25-1.46-3.25-3.25s1.46-3.25 3.25-3.25 3.25 1.46 3.25 3.25-1.46 3.25-3.25 3.25m0-5c-.96 0-1.75.79-1.75 1.75s.79 1.75 1.75 1.75 1.75-.79 1.75-1.75-.79-1.75-1.75-1.75"/></svg>