<svg xmlns="http://www.w3.org/2000/svg" width="24" height="24" fill="none" viewBox="0 0 24 24"><path fill="#292D32" d="M15 22.75H9c-5.43 0-7.75-2.32-7.75-7.75V9c0-5.43 2.32-7.75 7.75-7.75h6c5.43 0 7.75 2.32 7.75 7.75v6c0 5.43-2.32 7.75-7.75 7.75m-6-20C4.39 2.75 2.75 4.39 2.75 9v6c0 4.61 1.64 6.25 6.25 6.25h6c4.61 0 6.25-1.64 6.25-6.25V9c0-4.61-1.64-6.25-6.25-6.25z"/><path fill="#292D32" d="M8.42 11.65c-1.47 0-2.67-1.2-2.67-2.67S6.95 6.3 8.42 6.3s2.67 1.2 2.67 2.68-1.19 2.67-2.67 2.67m0-3.85c-.65 0-1.17.53-1.17 1.18s.53 1.17 1.17 1.17 1.17-.53 1.17-1.17S9.07 7.8 8.42 7.8m0 9.9c-1.47 0-2.67-1.2-2.67-2.68a2.67 2.67 0 1 1 5.34 0c0 1.47-1.19 2.68-2.67 2.68m0-3.85c-.65 0-1.17.53-1.17 1.17s.53 1.18 1.17 1.18 1.17-.53 1.17-1.18-.52-1.17-1.17-1.17"/><path fill="#292D32" d="M10.16 14.94a.75.75 0 0 1-.45-1.35l7.34-5.49a.75.75 0 0 1 .9 1.2l-7.34 5.49a.76.76 0 0 1-.45.15"/><path fill="#292D32" d="M17.5 16.03a.76.76 0 0 1-.45-.15l-7.34-5.49a.75.75 0 0 1 .9-1.2l7.34 5.49a.75.75 0 0 1-.45 1.35"/></svg>