<svg xmlns="http://www.w3.org/2000/svg" width="24" height="24" fill="none"><path fill="#292D32" d="M19 22.75c-.41 0-.75-.34-.75-.75V11c0-.41.34-.75.75-.75s.75.34.75.75v11c0 .41-.34.75-.75.75m0-15c-.41 0-.75-.34-.75-.75V2c0-.41.34-.75.75-.75s.75.34.75.75v5c0 .41-.34.75-.75.75m-7 15c-.41 0-.75-.34-.75-.75v-5c0-.41.34-.75.75-.75s.75.34.75.75v5c0 .41-.34.75-.75.75m0-9c-.41 0-.75-.34-.75-.75V2c0-.41.34-.75.75-.75s.75.34.75.75v11c0 .41-.34.75-.75.75m-7 9c-.41 0-.75-.34-.75-.75V11c0-.41.34-.75.75-.75s.75.34.75.75v11c0 .41-.34.75-.75.75m0-15c-.41 0-.75-.34-.75-.75V2c0-.41.34-.75.75-.75s.75.34.75.75v5c0 .41-.34.75-.75.75"/><path fill="#292D32" d="M7 11.75H3c-.41 0-.75-.34-.75-.75s.34-.75.75-.75h4c.41 0 .75.34.75.75s-.34.75-.75.75m14 0h-4c-.41 0-.75-.34-.75-.75s.34-.75.75-.75h4c.41 0 .75.34.75.75s-.34.75-.75.75m-7 2h-4c-.41 0-.75-.34-.75-.75s.34-.75.75-.75h4c.41 0 .75.34.75.75s-.34.75-.75.75"/></svg>