<svg xmlns="http://www.w3.org/2000/svg" width="24" height="24" fill="none"><path fill="#292D32" d="M15 22.75H9c-5.43 0-7.75-2.32-7.75-7.75V9c0-5.43 2.32-7.75 7.75-7.75h6c5.43 0 7.75 2.32 7.75 7.75v6c0 5.43-2.32 7.75-7.75 7.75m-6-20C4.39 2.75 2.75 4.39 2.75 9v6c0 4.61 1.64 6.25 6.25 6.25h6c4.61 0 6.25-1.64 6.25-6.25V9c0-4.61-1.64-6.25-6.25-6.25z"/><path fill="#292D32" d="M17.5 17.83h-1.85c-.41 0-.75-.34-.75-.75s.34-.75.75-.75h1.85c.41 0 .75.34.75.75s-.34.75-.75.75m-4.53 0H6.5c-.41 0-.75-.34-.75-.75s.34-.75.75-.75h6.47a.749.749 0 1 1 0 1.5m4.53-3.76h-5.53c-.41 0-.75-.34-.75-.75s.34-.75.75-.75h5.53c.41 0 .75.34.75.75s-.34.75-.75.75m-8.23 0H6.5c-.41 0-.75-.34-.75-.75s.34-.75.75-.75h2.77c.41 0 .75.34.75.75s-.34.75-.75.75"/></svg>