<svg xmlns="http://www.w3.org/2000/svg" width="24" height="24" fill="none"><path fill="#292D32" d="M15 22.75H9c-5.43 0-7.75-2.32-7.75-7.75V9c0-5.43 2.32-7.75 7.75-7.75h6c5.43 0 7.75 2.32 7.75 7.75v6c0 5.43-2.32 7.75-7.75 7.75m-6-20C4.39 2.75 2.75 4.39 2.75 9v6c0 4.61 1.64 6.25 6.25 6.25h6c4.61 0 6.25-1.64 6.25-6.25V9c0-4.61-1.64-6.25-6.25-6.25z"/><path fill="#292D32" d="M21.48 17.86H2.52c-.41 0-.75-.34-.75-.75s.34-.75.75-.75h18.96a.749.749 0 1 1 0 1.5m0-10H2.52a.749.749 0 1 1 0-1.5h18.96a.749.749 0 1 1 0 1.5"/><path fill="#292D32" d="M6.97 22.21c-.41 0-.75-.34-.75-.75v-4.35c0-.41.34-.75.75-.75s.75.34.75.75v4.35c0 .42-.34.75-.75.75m5.03.51c-.41 0-.75-.34-.75-.75v-4.86c0-.41.34-.75.75-.75s.75.34.75.75v4.86c0 .41-.34.75-.75.75m4.97-.45c-.41 0-.75-.34-.75-.75v-4.41c0-.41.34-.75.75-.75s.75.34.75.75v4.41c0 .42-.34.75-.75.75m-10-15.06c-.41 0-.75-.34-.75-.75V2.11c0-.41.34-.75.75-.75s.75.34.75.75v4.35c0 .42-.34.75-.75.75m5.03.51c-.41 0-.75-.34-.75-.75V2.11c0-.41.34-.75.75-.75s.75.34.75.75v4.86c0 .41-.34.75-.75.75"/><path fill="#292D32" d="M12 18.78c-.41 0-.75-.34-.75-.75v-11c0-.41.34-.75.75-.75s.75.34.75.75v11c0 .41-.34.75-.75.75m4.97-11.51c-.41 0-.75-.34-.75-.75V2.11c0-.41.34-.75.75-.75s.75.34.75.75v4.41c0 .42-.34.75-.75.75"/></svg>