<svg xmlns="http://www.w3.org/2000/svg" width="24" height="24" fill="none"><path fill="#292D32" d="M15 22.75H9c-5.43 0-7.75-2.32-7.75-7.75V9c0-5.43 2.32-7.75 7.75-7.75h6c5.43 0 7.75 2.32 7.75 7.75v6c0 5.43-2.32 7.75-7.75 7.75m-6-20C4.39 2.75 2.75 4.39 2.75 9v6c0 4.61 1.64 6.25 6.25 6.25h6c4.61 0 6.25-1.64 6.25-6.25V9c0-4.61-1.64-6.25-6.25-6.25z"/><path fill="#292D32" d="M6.89 22.23c-.41 0-.75-.34-.75-.75V2.52a.749.749 0 1 1 1.5 0v18.96c0 .42-.34.75-.75.75m10 0c-.41 0-.75-.34-.75-.75V2.52c0-.41.34-.75.75-.75s.75.34.75.75v18.96c0 .42-.34.75-.75.75"/><path fill="#292D32" d="M6.89 7.72H2.54c-.41 0-.75-.34-.75-.75s.34-.75.75-.75h4.35c.41 0 .75.34.75.75s-.34.75-.75.75m0 5.03H2.03c-.41 0-.75-.34-.75-.75s.34-.75.75-.75h4.86c.41 0 .75.34.75.75s-.34.75-.75.75m0 4.97H2.48c-.41 0-.75-.34-.75-.75s.34-.75.75-.75h4.41c.41 0 .75.34.75.75s-.34.75-.75.75m15-10h-4.35c-.41 0-.75-.34-.75-.75s.34-.75.75-.75h4.35c.41 0 .75.34.75.75s-.34.75-.75.75m0 5.03h-4.86c-.41 0-.75-.34-.75-.75s.34-.75.75-.75h4.86c.41 0 .75.34.75.75s-.34.75-.75.75"/><path fill="#292D32" d="M16.97 12.75h-11c-.41 0-.75-.34-.75-.75s.34-.75.75-.75h11a.749.749 0 1 1 0 1.5m4.92 4.97h-4.41c-.41 0-.75-.34-.75-.75s.34-.75.75-.75h4.41c.41 0 .75.34.75.75s-.34.75-.75.75"/></svg>