<svg xmlns="http://www.w3.org/2000/svg" width="24" height="24" fill="none" viewBox="0 0 24 24"><path fill="#292D32" d="M15 22.75H9c-5.43 0-7.75-2.32-7.75-7.75V9c0-5.43 2.32-7.75 7.75-7.75h6c5.43 0 7.75 2.32 7.75 7.75v6c0 5.43-2.32 7.75-7.75 7.75m-6-20C4.39 2.75 2.75 4.39 2.75 9v6c0 4.61 1.64 6.25 6.25 6.25h6c4.61 0 6.25-1.64 6.25-6.25V9c0-4.61-1.64-6.25-6.25-6.25z"/><path fill="#292D32" d="M21.48 7.86H2.52a.749.749 0 1 1 0-1.5h18.96a.749.749 0 1 1 0 1.5"/><path fill="#292D32" d="M8.52 7.72c-.41 0-.75-.34-.75-.75V2.11c0-.41.34-.75.75-.75s.75.34.75.75v4.86c0 .41-.34.75-.75.75m6.96-.45c-.41 0-.75-.34-.75-.75V2.11c0-.41.34-.75.75-.75s.75.34.75.75v4.41c0 .42-.33.75-.75.75m-4.39 10.85c-.36 0-.7-.09-1.01-.26-.68-.4-1.08-1.2-1.08-2.21v-2.4c0-1.01.4-1.82 1.09-2.22s1.59-.34 2.46.17l2.08 1.2c.87.5 1.38 1.25 1.38 2.05S15.5 16 14.62 16.5l-2.08 1.2c-.48.28-.98.42-1.45.42m.01-5.85c-.1 0-.19.02-.26.06-.21.12-.34.46-.34.92v2.4c0 .45.13.79.34.92.21.12.57.06.96-.17l2.08-1.2c.39-.23.63-.51.63-.75s-.23-.52-.63-.75l-2.08-1.2c-.26-.15-.51-.23-.7-.23"/></svg>