<svg xmlns="http://www.w3.org/2000/svg" width="24" height="24" fill="none"><path fill="#292D32" d="M15.5 19.75h-7c-2.74 0-4.25-1.51-4.25-4.25v-7c0-2.74 1.51-4.25 4.25-4.25h7c2.74 0 4.25 1.51 4.25 4.25v7c0 2.74-1.51 4.25-4.25 4.25m-7-14c-1.93 0-2.75.82-2.75 2.75v7c0 1.93.82 2.75 2.75 2.75h7c1.93 0 2.75-.82 2.75-2.75v-7c0-1.93-.82-2.75-2.75-2.75zm7.5-3H8c-.41 0-.75-.34-.75-.75s.34-.75.75-.75h8c.41 0 .75.34.75.75s-.34.75-.75.75m0 20H8c-.41 0-.75-.34-.75-.75s.34-.75.75-.75h8c.41 0 .75.34.75.75s-.34.75-.75.75"/><path fill="#292D32" d="M12 14.75c-.41 0-.75-.34-.75-.75v-4c0-.41.34-.75.75-.75s.75.34.75.75v4c0 .42-.34.75-.75.75m3 0c-.41 0-.75-.34-.75-.75v-2c0-.41.34-.75.75-.75s.75.34.75.75v2c0 .42-.33.75-.75.75m-6 0c-.41 0-.75-.34-.75-.75v-1c0-.41.34-.75.75-.75s.75.34.75.75v1c0 .42-.34.75-.75.75"/></svg>