<svg xmlns="http://www.w3.org/2000/svg" width="24" height="24" fill="none" viewBox="0 0 24 24"><path fill="#292D32" d="M12 16.75c-4.27 0-7.75-3.48-7.75-7.75S7.73 1.25 12 1.25 19.75 4.73 19.75 9s-3.48 7.75-7.75 7.75m0-14c-3.45 0-6.25 2.8-6.25 6.25s2.8 6.25 6.25 6.25 6.25-2.8 6.25-6.25-2.8-6.25-6.25-6.25"/><path fill="#292D32" d="M12 22.75c-.41 0-.75-.34-.75-.75v-6c0-.41.34-.75.75-.75s.75.34.75.75v6c0 .41-.34.75-.75.75"/><path fill="#292D32" d="M15 19.75H9c-.41 0-.75-.34-.75-.75s.34-.75.75-.75h6c.41 0 .75.34.75.75s-.34.75-.75.75"/></svg>