<svg xmlns="http://www.w3.org/2000/svg" fill="none" viewBox="0 0 24 24"><path fill="#292D32" d="m19.5 7.5-1.49 1.49-3-3L16.5 4.5c.42-.42.96-.62 1.5-.62s1.08.2 1.5.62c.83.83.83 2.17 0 3"/><path fill="#292D32" d="M18.01 8.99 6.5 20.5c-.83.83-2.17.83-3 0s-.83-2.17 0-3L15.01 5.99z" opacity=".4"/><path fill="#292D32" d="m9.95 3.5.41-1.39c.04-.13 0-.27-.09-.37a.38.38 0 0 0-.38-.1l-1.39.41-1.39-.41c-.13-.04-.27 0-.37.09-.1.1-.13.24-.09.37l.4 1.4-.41 1.39c-.04.13 0 .27.09.37.1.1.24.13.37.09l1.4-.4 1.39.41c.04.01.07.02.11.02.1 0 .19-.04.27-.11.1-.1.13-.24.09-.37zm-4 6 .41-1.39c.04-.13 0-.27-.09-.37-.1-.1-.24-.13-.37-.09l-1.4.4-1.39-.41c-.13-.04-.27 0-.37.09-.1.1-.13.24-.09.37l.4 1.4-.41 1.39c-.04.13 0 .27.09.37.1.1.24.13.37.09l1.39-.41 1.39.41c.03.01.07.01.11.01.1 0 .19-.04.27-.11.1-.1.13-.24.09-.37zm15 5 .41-1.39c.04-.13 0-.27-.09-.37-.1-.1-.24-.13-.37-.09l-1.39.41-1.39-.41c-.13-.04-.27 0-.37.09-.1.1-.13.24-.09.37l.41 1.39-.41 1.39c-.04.13 0 .27.09.37.1.1.24.13.37.09l1.39-.41 1.39.41c.03.01.07.01.11.01.1 0 .19-.04.27-.11.1-.1.13-.24.09-.37z"/></svg>