<svg xmlns="http://www.w3.org/2000/svg" fill="none" viewBox="0 0 24 24"><path fill="#000" d="M16 16.75c-.29 0-.56-.17-.69-.45L12 8.85l-3.31 7.46a.75.75 0 0 1-.99.38.747.747 0 0 1-.38-.99l4-9c.24-.54 1.13-.54 1.37 0l4 9c.17.38 0 .82-.38.99-.1.04-.21.06-.31.06"/><path fill="#000" d="M12 12.75H8c-.41 0-.75-.34-.75-.75s.34-.75.75-.75h4c.41 0 .75.34.75.75s-.34.75-.75.75"/><path fill="#000" d="M12 22.75C6.07 22.75 1.25 17.93 1.25 12S6.07 1.25 12 1.25 22.75 6.07 22.75 12 17.93 22.75 12 22.75m0-20C6.9 2.75 2.75 6.9 2.75 12S6.9 21.25 12 21.25s9.25-4.15 9.25-9.25S17.1 2.75 12 2.75"/></svg>