<svg xmlns="http://www.w3.org/2000/svg" fill="none" viewBox="0 0 24 24"><path fill="#000" d="M20.89 10.53c-.41 0-.75-.34-.75-.75V6.91L12 2.84 3.86 6.91v2.87c0 .41-.34.75-.75.75s-.75-.34-.75-.75V6.45c0-.28.16-.54.42-.67l8.89-4.44c.21-.11.46-.11.67 0l8.89 4.44c.25.13.42.39.42.67v3.33a.77.77 0 0 1-.76.75M12 22.75a.7.7 0 0 1-.33-.08l-8.89-4.44a.77.77 0 0 1-.42-.67v-3.33c0-.41.34-.75.75-.75s.75.34.75.75v2.87L12 21.17l8.14-4.07v-2.87c0-.41.34-.75.75-.75s.75.34.75.75v3.33c0 .28-.16.54-.42.67l-8.89 4.44a.7.7 0 0 1-.33.08"/><path fill="#000" d="M12 22.75c-.41 0-.75-.34-.75-.75v-5.56c0-.41.34-.75.75-.75s.75.34.75.75V22c0 .41-.34.75-.75.75"/><path fill="#000" d="M12 17.19c-2.86 0-5.19-2.33-5.19-5.19S9.14 6.81 12 6.81s5.19 2.33 5.19 5.19-2.33 5.19-5.19 5.19m0-8.88c-2.04 0-3.69 1.66-3.69 3.69A3.7 3.7 0 0 0 12 15.69 3.7 3.7 0 0 0 15.69 12c0-2.03-1.65-3.69-3.69-3.69"/></svg>