<svg xmlns="http://www.w3.org/2000/svg" fill="none" viewBox="0 0 24 24"><path fill="#000" d="M12 22.75C6.07 22.75 1.25 17.93 1.25 12S6.07 1.25 12 1.25 22.75 6.07 22.75 12 17.93 22.75 12 22.75m0-20C6.9 2.75 2.75 6.9 2.75 12S6.9 21.25 12 21.25s9.25-4.15 9.25-9.25S17.1 2.75 12 2.75"/><path fill="#000" d="M14.57 10.89H9.43a.752.752 0 0 1-.64-1.14l2.57-4.29c.27-.45 1.02-.45 1.29 0l2.57 4.29c.14.23.14.52.01.76a.76.76 0 0 1-.66.38m-3.82-1.5h2.49l-1.25-2.08zm.39 7.5H6a.745.745 0 0 1-.64-1.13l2.57-4.29c.27-.45 1.02-.45 1.29 0l2.57 4.29a.745.745 0 0 1-.65 1.13m-3.82-1.5h2.49l-1.25-2.08zM18 16.89h-5.14a.745.745 0 0 1-.64-1.13l2.57-4.29c.27-.45 1.02-.45 1.29 0l2.57 4.29a.745.745 0 0 1-.65 1.13m-3.82-1.5h2.49l-1.25-2.08z"/></svg>