<svg xmlns="http://www.w3.org/2000/svg" fill="none" viewBox="0 0 24 24"><path fill="#000" d="M16 10.75c-.19 0-.38-.07-.53-.22L12 7.06l-3.47 3.47c-.29.29-.77.29-1.06 0l-2-2a.754.754 0 0 1 0-1.06l6-6c.29-.29.77-.29 1.06 0l6 6c.29.29.29.77 0 1.06l-2 2c-.15.15-.34.22-.53.22m-4-5.5c.19 0 .38.07.53.22L16 8.94l.94-.94L12 3.06 7.06 8l.94.94 3.47-3.47c.15-.15.34-.22.53-.22m0 17.5c-.19 0-.38-.07-.53-.22l-6-6a.754.754 0 0 1 0-1.06l2-2c.29-.29.77-.29 1.06 0L12 16.94l3.47-3.47c.29-.29.77-.29 1.06 0l2 2c.29.29.29.77 0 1.06l-6 6c-.15.15-.34.22-.53.22M7.06 16 12 20.94 16.94 16l-.94-.94-3.47 3.47c-.29.29-.77.29-1.06 0L8 15.06zm12.69-1c-.19 0-.38-.07-.53-.22l-2.25-2.25a.754.754 0 0 1 0-1.06l2.25-2.25c.29-.29.77-.29 1.06 0l2.25 2.25c.29.29.29.77 0 1.06l-2.25 2.25c-.15.15-.34.22-.53.22m-1.19-3 1.19 1.19L20.94 12l-1.19-1.19zM4.25 15c-.19 0-.38-.07-.53-.22l-2.25-2.25a.754.754 0 0 1 0-1.06l2.25-2.25c.29-.29.77-.29 1.06 0l2.25 2.25c.29.29.29.77 0 1.06l-2.25 2.25c-.15.15-.34.22-.53.22m-1.19-3 1.19 1.19L5.44 12l-1.19-1.19z"/><path fill="#000" d="M12 15.23c-.19 0-.38-.07-.53-.22l-2.48-2.48a.754.754 0 0 1 0-1.06l2.48-2.48c.29-.29.77-.29 1.06 0l2.48 2.48c.29.29.29.77 0 1.06l-2.48 2.48c-.15.14-.34.22-.53.22M10.58 12 12 13.42 13.42 12 12 10.58z"/></svg>