<svg xmlns="http://www.w3.org/2000/svg" fill="none" viewBox="0 0 24 24"><path fill="#000" d="M8.34 10.83c-.32 0-.64-.12-.88-.37L5.73 8.73a1.25 1.25 0 0 1 0-1.77l5.15-5.15a1.25 1.25 0 0 1 1.77 0l1.73 1.73c.49.49.49 1.28 0 1.77l-5.15 5.15c-.25.25-.57.37-.89.37M6.96 7.85l1.38 1.38 4.79-4.79-1.38-1.38zm1.38 10.79c-.32 0-.64-.12-.88-.37l-1.73-1.73a1.25 1.25 0 0 1 0-1.77l9.05-9.05a1.25 1.25 0 0 1 1.77 0l1.73 1.73c.49.49.49 1.28 0 1.77l-9.05 9.05c-.25.25-.57.37-.89.37m-1.38-2.98 1.38 1.38 8.7-8.7-1.38-1.38zm5.28 6.88c-.32 0-.64-.12-.88-.37l-1.73-1.73a1.25 1.25 0 0 1 0-1.77l9.05-9.05a1.25 1.25 0 0 1 1.77 0l1.73 1.73c.49.49.49 1.28 0 1.77l-9.05 9.05c-.25.25-.57.37-.89.37m-1.37-2.98 1.38 1.38 8.7-8.7-1.38-1.38zm-6.43-4.82c-.32 0-.64-.12-.88-.36l-1.73-1.73a1.25 1.25 0 0 1 0-1.77l1.73-1.73a1.25 1.25 0 0 1 1.77 0l1.73 1.73c.49.49.49 1.28 0 1.77l-1.73 1.73c-.25.24-.57.36-.89.36m-1.38-2.98 1.38 1.38 1.38-1.38-1.38-1.38z"/></svg>