<svg xmlns="http://www.w3.org/2000/svg" fill="none" viewBox="0 0 24 24"><path fill="#000" d="M13.75 10.5c-.83 0-1.5-.67-1.5-1.5s.67-1.5 1.5-1.5 1.5.67 1.5 1.5-.67 1.5-1.5 1.5m0-2c-.28 0-.5.22-.5.5s.22.5.5.5.5-.22.5-.5-.22-.5-.5-.5m-3.5 2c-.83 0-1.5-.67-1.5-1.5s.67-1.5 1.5-1.5 1.5.67 1.5 1.5-.67 1.5-1.5 1.5m0-2c-.28 0-.5.22-.5.5s.22.5.5.5.5-.22.5-.5-.22-.5-.5-.5m5.25 5c-.83 0-1.5-.67-1.5-1.5s.67-1.5 1.5-1.5 1.5.67 1.5 1.5-.67 1.5-1.5 1.5m0-2c-.28 0-.5.22-.5.5s.22.5.5.5.5-.22.5-.5-.22-.5-.5-.5m1.65-1.25a1.25 1.25 0 1 1 .001-2.5 1.25 1.25 0 0 1 0 2.5m0-1.5c-.14 0-.25.11-.25.25 0 .28.5.28.5 0 0-.14-.11-.25-.25-.25m-.001 7.5a1.25 1.25 0 1 1 .001-2.5 1.25 1.25 0 0 1 0 2.5m0-1.5c-.14 0-.25.11-.25.25 0 .28.5.28.5 0 0-.14-.11-.25-.25-.25m2.599-1.5a1.25 1.25 0 1 1 0-2.5 1.25 1.25 0 0 1 0 2.5m0-1.5c-.14 0-.25.11-.25.25 0 .28.5.28.5 0 0-.14-.11-.25-.25-.25M6.8 10.25a1.25 1.25 0 1 1 0-2.5 1.25 1.25 0 0 1 0 2.5m0-1.5c-.14 0-.25.11-.25.25 0 .28.5.28.5 0 0-.14-.11-.25-.25-.25m0 7.5a1.25 1.25 0 1 1 0-2.5 1.25 1.25 0 0 1 0 2.5m0-1.5c-.14 0-.25.11-.25.25 0 .28.5.28.5 0 0-.14-.11-.25-.25-.25m-2.6-1.5a1.25 1.25 0 1 1 .001-2.5 1.25 1.25 0 0 1 0 2.5m0-1.5c-.14 0-.25.11-.25.25 0 .28.5.28.5 0 0-.14-.11-.25-.25-.25M15.9 6.45a1.25 1.25 0 1 1 .001-2.5 1.25 1.25 0 0 1 0 2.5m0-1.5c-.14 0-.25.11-.25.25 0 .28.5.28.5 0 0-.14-.11-.25-.25-.25M8.1 6.45a1.25 1.25 0 1 1 0-2.5 1.25 1.25 0 0 1 0 2.5m0-1.5c-.14 0-.25.11-.25.25 0 .28.5.28.5 0 0-.14-.11-.25-.25-.25m3.95 2.3a1.25 1.25 0 1 1 0-2.5 1.25 1.25 0 0 1 0 2.5m0-1.5c-.14 0-.25.11-.25.25 0 .28.5.28.5 0 0-.14-.11-.25-.25-.25m3.85 14.5a1.25 1.25 0 1 1 .001-2.5 1.25 1.25 0 0 1 0 2.5m0-1.5c-.14 0-.25.11-.25.25 0 .28.5.28.5 0 0-.14-.11-.25-.25-.25M8.1 20.25a1.25 1.25 0 1 1 0-2.5 1.25 1.25 0 0 1 0 2.5m0-1.5c-.14 0-.25.11-.25.25 0 .28.5.28.5 0 0-.14-.11-.25-.25-.25m3.95.7a1.25 1.25 0 1 1 0-2.5 1.25 1.25 0 0 1 0 2.5m0-1.5c-.14 0-.25.11-.25.25 0 .28.5.28.5 0 0-.14-.11-.25-.25-.25M8.5 13.5c-.83 0-1.5-.67-1.5-1.5s.67-1.5 1.5-1.5 1.5.67 1.5 1.5-.67 1.5-1.5 1.5m0-2c-.28 0-.5.22-.5.5s.22.5.5.5.5-.22.5-.5-.22-.5-.5-.5m1.75 5c-.83 0-1.5-.67-1.5-1.5s.67-1.5 1.5-1.5 1.5.67 1.5 1.5-.67 1.5-1.5 1.5m0-2c-.28 0-.5.22-.5.5s.22.5.5.5.5-.22.5-.5-.22-.5-.5-.5m3.5 2c-.83 0-1.5-.67-1.5-1.5s.67-1.5 1.5-1.5 1.5.67 1.5 1.5-.67 1.5-1.5 1.5m0-2c-.28 0-.5.22-.5.5s.22.5.5.5.5-.22.5-.5-.22-.5-.5-.5M12 3.45c-.56 0-1.01-.45-1.01-1s.45-1 1-1 1 .45 1 1-.43 1-.99 1m5.25.15c-.42 0-.76-.34-.76-.75s.34-.75.75-.75.76.34.76.75-.33.75-.75.75m-10.5 0a.749.749 0 1 1 0-1.5h.01c.41 0 .75.34.75.75s-.34.75-.76.75M12 22.5c-.56 0-1.01-.45-1.01-1s.45-1 1-1 1 .45 1 1-.43 1-.99 1m5.25-.65c-.42 0-.76-.34-.76-.75s.34-.75.75-.75.76.34.76.75-.33.75-.75.75m-10.5 0a.749.749 0 1 1 0-1.5h.01c.41 0 .75.34.75.75s-.34.75-.76.75M1.55 13c-.55 0-1-.44-1-1 0-.55.45-1 1-1s1 .45 1 1-.45 1-1 1m2.2 4.75c-.41 0-.75-.33-.75-.75v-.01c0-.41.34-.75.75-.75s.75.34.75.75-.34.76-.75.76m0-9.99c-.41 0-.75-.34-.75-.75s.34-.75.75-.75.75.33.75.74v.01c0 .41-.34.75-.75.75M22.5 13c-.55 0-1-.44-1-1 0-.55.45-1 1-1s1 .45 1 1-.45 1-1 1m-2.2 4.75c-.41 0-.75-.33-.75-.75v-.01c0-.41.34-.75.75-.75s.75.34.75.75-.34.76-.75.76m0-9.99c-.41 0-.75-.34-.75-.75s.34-.75.75-.75.75.33.75.75v.01c0 .4-.34.74-.75.74"/></svg>