<svg xmlns="http://www.w3.org/2000/svg" fill="none" viewBox="0 0 24 24"><path fill="#000" d="M12 18.19c-3.41 0-6.19-2.78-6.19-6.19S8.59 5.81 12 5.81c1.35 0 2.64.43 3.72 1.24a.75.75 0 0 1-.9 1.2c-.82-.62-1.79-.94-2.82-.94-2.58 0-4.69 2.1-4.69 4.69a4.69 4.69 0 0 0 8.43 2.83.749.749 0 1 1 1.19.91A6.16 6.16 0 0 1 12 18.19"/><path fill="#000" d="M17.42 12.09a1.92 1.92 0 1 1 .001-3.841 1.92 1.92 0 0 1-.001 3.841m0-2.34c-.23 0-.42.19-.42.42s.19.42.42.42.42-.19.42-.42-.19-.42-.42-.42"/><path fill="#000" d="M12 22.75C6.07 22.75 1.25 17.93 1.25 12S6.07 1.25 12 1.25 22.75 6.07 22.75 12 17.93 22.75 12 22.75m0-20C6.9 2.75 2.75 6.9 2.75 12S6.9 21.25 12 21.25s9.25-4.15 9.25-9.25S17.1 2.75 12 2.75"/></svg>