<svg xmlns="http://www.w3.org/2000/svg" fill="none" viewBox="0 0 24 24"><path fill="#000" d="M13.5 21.25H3.94a.754.754 0 0 1-.73-.93l1.06-4.25A.75.75 0 0 1 5 15.5h7.44c2.9 0 4.56-1.66 4.56-4.56v-.19c0-1.6-.65-2.25-2.25-2.25H6.06a.754.754 0 0 1-.73-.93l1.06-4.25a.75.75 0 0 1 .73-.57H16c4.16 0 6.75 2.59 6.75 6.75V12c0 5.71-3.54 9.25-9.25 9.25m-8.6-1.5h8.6c4.85 0 7.75-2.9 7.75-7.75V9.5c0-3.34-1.91-5.25-5.25-5.25H7.71L7.02 7h7.73c2.42 0 3.75 1.33 3.75 3.75v.19c0 3.74-2.32 6.06-6.06 6.06H5.59z"/><path fill="#000" d="M9.19 14.25H2a.754.754 0 0 1-.73-.93l.37-1.48a2.74 2.74 0 0 1 2.67-2.08h7.19a.754.754 0 0 1 .73.93l-.37 1.48a2.76 2.76 0 0 1-2.67 2.08m-6.23-1.5h6.23c.57 0 1.07-.39 1.21-.95l.14-.55H4.31c-.57 0-1.07.39-1.21.95z"/></svg>