<svg xmlns="http://www.w3.org/2000/svg" fill="none" viewBox="0 0 24 24"><path fill="#000" d="M6.87 12.28c-.42 0-.85-.02-1.27-.06l-3.17-.29a.753.753 0 0 1-.68-.82c.04-.41.39-.72.82-.68l3.17.29c4.9.45 9.66-2.03 12.11-6.31.21-.36.66-.48 1.02-.28.36.21.48.66.28 1.02-2.52 4.43-7.25 7.13-12.28 7.13M5.5 20.12A.752.752 0 0 1 4.85 19c2.74-4.79 8.06-7.57 13.55-7.06l3.17.29a.753.753 0 1 1-.14 1.5l-3.17-.29c-4.9-.45-9.66 2.03-12.11 6.31-.14.24-.39.37-.65.37"/><path fill="#000" d="M12 22.75C6.07 22.75 1.25 17.93 1.25 12S6.07 1.25 12 1.25 22.75 6.07 22.75 12 17.93 22.75 12 22.75m0-20C6.9 2.75 2.75 6.9 2.75 12S6.9 21.25 12 21.25s9.25-4.15 9.25-9.25S17.1 2.75 12 2.75"/><path fill="#000" d="M16.47 21.7c-.34 0-.64-.23-.73-.57l-1.21-4.99c-.77-3.16-2.25-6.17-4.3-8.71L7.05 3.48a.747.747 0 1 1 1.16-.94l3.18 3.95a24 24 0 0 1 4.59 9.29l1.21 4.99c.1.4-.15.81-.55.91a1 1 0 0 1-.17.02"/></svg>