<svg xmlns="http://www.w3.org/2000/svg" fill="none" viewBox="0 0 24 24"><path fill="#000" d="M6.44 9.75c-.15 0-.29-.04-.42-.13l-4.44-3a.76.76 0 0 1-.33-.61c0-.25.11-.48.31-.62l5.56-4c.26-.18.6-.19.86-.01l4.44 3c.2.14.33.37.33.61 0 .25-.11.48-.31.62l-5.56 4c-.13.09-.28.14-.44.14M3.31 5.98l3.12 2.11 4.26-3.07-3.12-2.11z"/><path fill="#000" d="M17.56 9.75c-.15 0-.31-.05-.44-.14l-5.56-4a.73.73 0 0 1-.31-.62c0-.25.13-.47.33-.61l4.44-3c.26-.17.6-.17.86.01l5.56 4c.2.14.32.38.31.62 0 .25-.13.47-.33.61l-4.44 3a.74.74 0 0 1-.42.13m-4.25-4.73 4.26 3.07 3.12-2.11-4.26-3.07zM7.56 17.75c-.15 0-.31-.05-.44-.14l-5.56-4a.73.73 0 0 1-.31-.62c0-.25.13-.47.33-.61l4.44-3c.26-.17.6-.17.86.01l5.56 4c.2.14.32.38.31.62 0 .25-.13.47-.33.61l-4.44 3a.74.74 0 0 1-.42.13m-4.25-4.73 4.26 3.07 3.12-2.11-4.26-3.07z"/><path fill="#000" d="M16.44 17.75c-.15 0-.29-.04-.42-.13l-4.44-3a.76.76 0 0 1-.33-.61c0-.25.11-.48.31-.62l5.56-4c.25-.18.6-.19.86-.01l4.44 3c.2.14.33.37.33.61 0 .25-.11.48-.31.62l-5.56 4c-.13.09-.28.14-.44.14m-3.13-3.77 3.12 2.11 4.26-3.07-3.12-2.11z"/><path fill="#000" d="M12 22.65c-.25 0-.5-.05-.73-.16l-6.58-3.04a.75.75 0 0 1-.44-.68V15.5c0-.41.34-.75.75-.75s.75.34.75.75v2.79l6.15 2.84q.105.045.21 0l6.15-2.84V15.5c0-.41.34-.75.75-.75s.75.34.75.75v3.27c0 .29-.17.56-.44.68l-6.58 3.04c-.24.11-.49.16-.74.16"/></svg>