<svg xmlns="http://www.w3.org/2000/svg" fill="none" viewBox="0 0 24 24"><path fill="#000" d="M17.28 9.89c-.16 0-.33-.03-.49-.1l-4.77-2.12L7.2 9.79c-.5.22-1.09.08-1.43-.36a1.16 1.16 0 0 1 .03-1.47l5-6.11c.61-.75 1.79-.75 2.41 0l5 6.11c.35.43.36 1.03.03 1.47-.25.29-.6.46-.96.46M12 6.16c.21 0 .43.04.63.13l3.58 1.59-4.17-5.09-4.23 5.08 3.56-1.58c.2-.09.41-.13.63-.13m0 16.59c-.46 0-.9-.21-1.2-.59l-5-6.11a1.187 1.187 0 0 1 1.4-1.84l4.78 2.12 4.82-2.12a1.187 1.187 0 0 1 1.4 1.84l-5 6.11c-.3.38-.74.59-1.2.59m-4.21-6.63 4.16 5.09 4.23-5.08-3.55 1.58c-.4.18-.86.18-1.26 0z"/><path fill="#000" d="M12 15.37a.7.7 0 0 1-.33-.08l-5.25-2.62A.77.77 0 0 1 6 12c0-.28.16-.54.42-.67l5.25-2.62c.21-.11.46-.11.67 0l5.25 2.62c.25.13.42.39.42.67s-.16.54-.42.67l-5.25 2.62c-.11.06-.22.08-.34.08M8.43 12 12 13.78 15.57 12 12 10.22z"/></svg>