<svg xmlns="http://www.w3.org/2000/svg" fill="none" viewBox="0 0 24 24"><path fill="#000" d="M8.25 17.25c-.41 0-.75-.34-.75-.75v-9c0-.41.34-.75.75-.75s.75.34.75.75v9c0 .41-.34.75-.75.75m7.5 0c-.41 0-.75-.34-.75-.75v-9c0-.41.34-.75.75-.75s.75.34.75.75v9c0 .41-.34.75-.75.75"/><path fill="#000" d="M15.75 10.88h-7.5c-.41 0-.75-.34-.75-.75s.34-.75.75-.75h7.5c.41 0 .75.34.75.75s-.34.75-.75.75m0 3.74h-7.5c-.41 0-.75-.34-.75-.75s.34-.75.75-.75h7.5c.41 0 .75.34.75.75s-.34.75-.75.75"/><path fill="#000" d="M12 22.75C6.07 22.75 1.25 17.93 1.25 12S6.07 1.25 12 1.25 22.75 6.07 22.75 12 17.93 22.75 12 22.75m0-20C6.9 2.75 2.75 6.9 2.75 12S6.9 21.25 12 21.25s9.25-4.15 9.25-9.25S17.1 2.75 12 2.75"/></svg>