<svg xmlns="http://www.w3.org/2000/svg" fill="none" viewBox="0 0 24 24"><path fill="#000" d="M11.7 22.75h-.29c-5.48-.15-9.93-4.87-9.93-10.51V5.21c0-.51.3-.96.77-1.15s1-.09 1.36.27l14.83 14.83a.754.754 0 0 1-.04 1.1 10.2 10.2 0 0 1-6.7 2.49M2.98 5.81v6.43c0 4.84 3.8 8.88 8.47 9.01 1.93.04 3.8-.52 5.33-1.63zM21.27 19.9c-.32 0-.64-.13-.88-.37L5.69 4.83a.754.754 0 0 1 .04-1.1c1.91-1.67 4.38-2.56 6.94-2.48 5.43.15 9.85 4.83 9.85 10.43v6.96c0 .51-.3.96-.77 1.15-.15.07-.31.11-.48.11M7.35 4.37l13.68 13.68v-6.36c0-4.79-3.77-8.8-8.4-8.93-1.91-.04-3.76.51-5.28 1.61"/></svg>