<svg xmlns="http://www.w3.org/2000/svg" fill="none" viewBox="0 0 24 24"><path fill="#000" d="M18.5 8.25H4c-.67 0-1.27-.37-1.56-.97-.3-.6-.24-1.3.16-1.83l1.5-2c.33-.44.85-.7 1.4-.7H20c.67 0 1.27.37 1.56.97.3.6.24 1.3-.16 1.83l-1.5 2c-.33.44-.85.7-1.4.7m-13-4c-.08 0-.15.04-.2.1l-1.5 2c-.08.11-.05.21-.02.26s.09.14.22.14h14.5c.08 0 .15-.04.2-.1l1.5-2c.08-.11.05-.21.02-.26s-.09-.14-.22-.14zM20 14.75H5.5c-.55 0-1.07-.26-1.4-.7l-1.5-2c-.4-.53-.46-1.24-.17-1.83.3-.6.9-.97 1.56-.97h14.5c.55 0 1.07.26 1.4.7l1.5 2c.4.53.46 1.24.17 1.83-.29.6-.89.97-1.56.97m-16-4c-.13 0-.2.09-.22.14-.03.05-.06.15.02.26l1.5 2c.05.06.12.1.2.1H20c.13 0 .2-.09.22-.14.03-.05.06-.15-.02-.26l-1.5-2a.26.26 0 0 0-.2-.1zm14.5 10.5H4c-.67 0-1.27-.37-1.56-.97-.3-.6-.24-1.3.16-1.83l1.5-2c.33-.44.85-.7 1.4-.7H20c.67 0 1.27.37 1.56.97.3.6.24 1.3-.16 1.83l-1.5 2c-.33.44-.85.7-1.4.7m-13-4c-.08 0-.15.04-.2.1l-1.5 2c-.08.11-.05.21-.02.26s.09.14.22.14h14.5c.08 0 .15-.04.2-.1l1.5-2c.08-.11.05-.21.02-.26s-.09-.14-.22-.14z"/></svg>