<svg xmlns="http://www.w3.org/2000/svg" fill="none" viewBox="0 0 24 24"><path fill="#000" d="M16.5 11.25h-9c-.41 0-.75-.34-.75-.75s.34-.75.75-.75h9c.41 0 .75.34.75.75s-.34.75-.75.75"/><path fill="#000" d="M11.82 11.25c-.24 0-.47-.11-.61-.32l-2.82-4a.74.74 0 0 1 .18-1.04.74.74 0 0 1 1.04.18l2.82 4c.24.34.16.81-.18 1.04-.13.1-.28.14-.43.14"/><path fill="#000" d="M12 11.25c-.15 0-.3-.04-.43-.14a.743.743 0 0 1-.18-1.04l2.82-4c.24-.34.71-.42 1.04-.18.34.24.42.71.18 1.04l-2.82 4c-.14.21-.38.32-.61.32m4.5 3h-9c-.41 0-.75-.34-.75-.75s.34-.75.75-.75h9c.41 0 .75.34.75.75s-.34.75-.75.75"/><path fill="#000" d="M9 18.25c-.15 0-.3-.04-.43-.14a.743.743 0 0 1-.18-1.04l2.82-4c.24-.34.71-.42 1.04-.18.34.24.42.71.18 1.04l-2.82 4c-.14.21-.38.32-.61.32"/><path fill="#000" d="M14.82 18.25c-.24 0-.47-.11-.61-.32l-2.82-4a.74.74 0 0 1 .18-1.04.74.74 0 0 1 1.04.18l2.82 4c.24.34.16.81-.18 1.04-.13.1-.28.14-.43.14"/><path fill="#000" d="M12 22.75C6.07 22.75 1.25 17.93 1.25 12S6.07 1.25 12 1.25 22.75 6.07 22.75 12 17.93 22.75 12 22.75m0-20C6.9 2.75 2.75 6.9 2.75 12S6.9 21.25 12 21.25s9.25-4.15 9.25-9.25S17.1 2.75 12 2.75"/></svg>