<svg xmlns="http://www.w3.org/2000/svg" fill="none" viewBox="0 0 24 24"><path fill="#000" d="M11.31 14.69c-2.27 0-4.12-1.85-4.12-4.12s1.85-4.12 4.12-4.12 4.12 1.85 4.12 4.12a4.12 4.12 0 0 1-4.12 4.12m0-6.75c-1.45 0-2.62 1.18-2.62 2.62s1.18 2.62 2.62 2.62 2.62-1.18 2.62-2.62-1.17-2.62-2.62-2.62m5.2.37c-.55 0-1-.45-1-1s.44-1 1-1h.01c.55 0 1 .45 1 1s-.46 1-1.01 1m-4.45 10.25c-.19 0-.38-.07-.53-.22a.754.754 0 0 1 0-1.06l3-3c.29-.29.77-.29 1.06 0s.29.77 0 1.06l-3 3c-.14.15-.34.22-.53.22"/><path fill="#000" d="M12 22.75C6.07 22.75 1.25 17.93 1.25 12S6.07 1.25 12 1.25 22.75 6.07 22.75 12 17.93 22.75 12 22.75m0-20C6.9 2.75 2.75 6.9 2.75 12S6.9 21.25 12 21.25s9.25-4.15 9.25-9.25S17.1 2.75 12 2.75"/></svg>