<svg xmlns="http://www.w3.org/2000/svg" fill="none" viewBox="0 0 24 24"><path fill="#000" d="M10.9 22.75a.75.75 0 0 1-.53-.22l-10-10a.754.754 0 0 1 0-1.06l10-10a.751.751 0 0 1 1.28.53v4c0 .2-.08.39-.22.53L5.96 12l5.47 5.47c.14.14.22.33.22.53v4c0 .3-.18.58-.46.69-.1.04-.19.06-.29.06M1.96 12l8.19 8.19v-1.88l-5.78-5.78a.754.754 0 0 1 0-1.06l5.78-5.78V3.81zM12.9 22.75a.753.753 0 0 1-.75-.75v-4c0-.2.08-.39.22-.53L17.84 12l-5.47-5.47a.75.75 0 0 1-.22-.53V2c0-.3.18-.58.46-.69.28-.12.6-.05.82.16l10 10c.29.29.29.77 0 1.06l-10 10a.75.75 0 0 1-.53.22m.75-4.44v1.88L21.84 12l-8.19-8.19v1.88l5.78 5.78c.29.29.29.77 0 1.06z"/><path fill="#000" d="M10.9 15.75a.75.75 0 0 1-.53-.22l-3-3a.754.754 0 0 1 0-1.06l3-3a.751.751 0 0 1 1.28.53v6c0 .3-.18.58-.46.69-.1.04-.19.06-.29.06M8.96 12l1.19 1.19v-2.38z"/></svg>