<svg xmlns="http://www.w3.org/2000/svg" fill="none" viewBox="0 0 24 24"><path fill="#000" d="M15 22.75H9c-5.43 0-7.75-2.32-7.75-7.75V9c0-5.43 2.32-7.75 7.75-7.75h6c5.43 0 7.75 2.32 7.75 7.75v6c0 5.43-2.32 7.75-7.75 7.75m-6-20C4.39 2.75 2.75 4.39 2.75 9v6c0 4.61 1.64 6.25 6.25 6.25h6c4.61 0 6.25-1.64 6.25-6.25V9c0-4.61-1.64-6.25-6.25-6.25z"/><path fill="#000" d="M17.96 16.28h-1.77c-1.39 0-2.52-1.13-2.52-2.52s1.13-2.52 2.52-2.52h1.02V8.46c0-.41.34-.75.75-.75s.75.34.75.75v7.06c0 .43-.34.76-.75.76m-1.77-3.53c-.56 0-1.02.46-1.02 1.02s.46 1.02 1.02 1.02h1.02v-2.03h-1.02zm-4.5 3.53c-.22 0-.44-.1-.59-.28L5.45 8.94c-.26-.32-.21-.8.12-1.05.32-.26.8-.21 1.05.12l5.65 7.06c.26.32.21.8-.12 1.05-.13.11-.29.16-.46.16"/><path fill="#000" d="M6.04 16.28c-.16 0-.33-.05-.47-.16a.75.75 0 0 1-.12-1.05l5.65-7.06a.748.748 0 0 1 1.17.93L6.62 16a.74.74 0 0 1-.58.28"/></svg>