<svg xmlns="http://www.w3.org/2000/svg" fill="none" viewBox="0 0 24 24"><path fill="#000" d="M13.5 15.75c-.41 0-.75-.34-.75-.75v-4c0-.69-.56-1.25-1.25-1.25H8.25V15c0 .41-.34.75-.75.75s-.75-.34-.75-.75V9c0-.41.34-.75.75-.75h4c1.52 0 2.75 1.23 2.75 2.75v4c0 .41-.34.75-.75.75"/><path fill="#000" d="M10.5 15.75c-.41 0-.75-.34-.75-.75v-3c0-.41.34-.75.75-.75s.75.34.75.75v3c0 .41-.34.75-.75.75m6 0c-.41 0-.75-.34-.75-.75V9c0-.41.34-.75.75-.75s.75.34.75.75v6c0 .41-.34.75-.75.75"/><path fill="#000" d="M12 22.75C6.07 22.75 1.25 17.93 1.25 12S6.07 1.25 12 1.25 22.75 6.07 22.75 12 17.93 22.75 12 22.75m0-20C6.9 2.75 2.75 6.9 2.75 12S6.9 21.25 12 21.25s9.25-4.15 9.25-9.25S17.1 2.75 12 2.75"/></svg>