<svg xmlns="http://www.w3.org/2000/svg" fill="none" viewBox="0 0 24 24"><path stroke="#000" stroke-linecap="round" stroke-linejoin="round" stroke-miterlimit="10" stroke-width="1.5" d="m6.9 9.1 4.77-2.12c.21-.09.45-.09.65 0l4.77 2.12c.42.19.81-.32.52-.68l-5-6.11c-.34-.42-.9-.42-1.24 0l-5 6.11c-.28.36.11.87.53.68m0 5.8 4.78 2.12c.21.09.45.09.65 0l4.78-2.12c.42-.19.81.32.52.68l-5 6.11c-.34.42-.9.42-1.24 0l-5-6.11c-.3-.36.08-.87.51-.68"/><path stroke="#000" stroke-linecap="round" stroke-linejoin="round" stroke-miterlimit="10" stroke-width="1.5" d="M12 9.38 6.76 12 12 14.62 17.24 12z" opacity=".4"/></svg>