<svg xmlns="http://www.w3.org/2000/svg" fill="none" viewBox="0 0 24 24"><path stroke="#000" stroke-miterlimit="10" stroke-width="1.5" d="M12 2H8.67C6.83 2 5.34 3.49 5.34 5.33s1.49 3.33 3.33 3.33H12zm0 6.67H8.67c-1.84 0-3.33 1.49-3.33 3.33s1.49 3.33 3.33 3.33H12zm0 6.66H8.67c-1.84 0-3.33 1.49-3.33 3.33s1.49 3.33 3.33 3.33S12 20.5 12 18.66z"/><g stroke="#000" stroke-miterlimit="10" stroke-width="1.5" opacity=".4"><path stroke-linecap="round" stroke-linejoin="round" d="M12 2h3.33c1.84 0 3.33 1.49 3.33 3.33s-1.49 3.33-3.33 3.33H12z"/><path d="M15.33 8.67c1.84 0 3.33 1.49 3.33 3.33s-1.49 3.33-3.33 3.33S12 13.84 12 12s1.49-3.33 3.33-3.33Z"/></g></svg>