<svg xmlns="http://www.w3.org/2000/svg" fill="none" viewBox="0 0 24 24"><path stroke="#000" stroke-linecap="round" stroke-linejoin="round" stroke-miterlimit="10" stroke-width="1.5" d="m11.01 2.57-5 2.86C5.39 5.79 5 6.45 5 7.17v8.81c0 .65.31 1.25.84 1.63l5 3.57c.7.5 1.63.5 2.32 0l5-3.57c.53-.38.84-.98.84-1.63V7.17c0-.72-.38-1.38-1.01-1.74l-5-2.86c-.61-.35-1.37-.35-1.98 0"/><g stroke="#000" stroke-linecap="round" stroke-linejoin="round" stroke-miterlimit="10" stroke-width="1.5" opacity=".4"><path d="m12 3-2 9 1.85 9.23"/><path d="M18.16 16.91 10 12l8.54-4.74"/></g></svg>