<svg xmlns="http://www.w3.org/2000/svg" fill="none" viewBox="0 0 24 24"><path stroke="#000" stroke-linecap="round" stroke-linejoin="round" stroke-miterlimit="10" stroke-width="1.5" d="M17 17a5 5 0 1 0 0-10 5 5 0 0 0 0 10"/><path stroke="#000" stroke-linecap="round" stroke-linejoin="round" stroke-miterlimit="10" stroke-width="1.5" d="M12 22a5 5 0 1 0 0-10 5 5 0 0 0 0 10m0-10a5 5 0 1 0 0-10 5 5 0 0 0 0 10" opacity=".4"/><path stroke="#000" stroke-linecap="round" stroke-linejoin="round" stroke-miterlimit="10" stroke-width="1.5" d="M7 17A5 5 0 1 0 7 7a5 5 0 0 0 0 10"/></svg>