<svg xmlns="http://www.w3.org/2000/svg" fill="none" viewBox="0 0 24 24"><path stroke="#000" stroke-linecap="round" stroke-linejoin="round" stroke-width="1.5" d="M7.56 7.56V3.89c0-.83.61-1.52 1.42-1.65 2-.31 4.04-.31 6.04 0 .82.13 1.42.83 1.42 1.65v5.89c0 1.23-.99 2.22-2.22 2.22H9.78c-1.23 0-2.22.99-2.22 2.22v5.89c0 .83.61 1.52 1.42 1.65 2 .31 4.04.31 6.04 0 .82-.13 1.42-.83 1.42-1.65v-3.67" opacity=".4"/><path stroke="#000" stroke-linecap="round" stroke-linejoin="round" stroke-width="1.5" d="M16.44 7.56h3.67c.83 0 1.52.61 1.65 1.42.31 2 .31 4.04 0 6.04-.13.82-.83 1.42-1.65 1.42H12m0-8.88H3.88c-.83 0-1.52.61-1.65 1.42-.31 2-.31 4.04 0 6.04.13.82.83 1.42 1.65 1.42h3.67"/></svg>