<svg xmlns="http://www.w3.org/2000/svg" fill="none" viewBox="0 0 24 24"><path stroke="#000" stroke-linecap="round" stroke-linejoin="round" stroke-miterlimit="10" stroke-width="1.5" d="M7.97 2.84C9.2 2.3 10.56 2 12 2c5.52 0 10 4.48 10 10s-4.48 10-10 10S2 17.52 2 12c0-1.41.29-2.76.82-3.98"/><path stroke="#000" stroke-linecap="round" stroke-linejoin="round" stroke-miterlimit="10" stroke-width="1.5" d="M16 16.25V12c0-2.35-1.9-4.25-4.25-4.25S7.5 9.65 7.5 12s1.9 4.25 4.25 4.25zM5 6.5a1.5 1.5 0 1 0 0-3 1.5 1.5 0 0 0 0 3" opacity=".4"/></svg>