<svg xmlns="http://www.w3.org/2000/svg" fill="none" viewBox="0 0 24 24"><path stroke="#000" stroke-linecap="round" stroke-linejoin="round" stroke-miterlimit="10" stroke-width="1.5" d="M14.54 2.26c-1.03 0-1.86.83-1.86 1.86v4.64c0 1.03.83 1.86 1.86 1.86s1.86-.83 1.86-1.86V4.12c0-1.03-.83-1.86-1.86-1.86"/><path stroke="#000" stroke-linecap="round" stroke-linejoin="round" stroke-miterlimit="10" stroke-width="1.5" d="M18.62 10.62h1.57c.87 0 1.57-.7 1.57-1.57s-.7-1.57-1.57-1.57-1.57.7-1.57 1.57z" opacity=".4"/><path stroke="#000" stroke-linecap="round" stroke-linejoin="round" stroke-miterlimit="10" stroke-width="1.5" d="M2 9.23c0 1.03.83 1.86 1.86 1.86H8.5c1.03 0 1.86-.83 1.86-1.86S9.53 7.37 8.5 7.37H3.86C2.83 7.37 2 8.2 2 9.23"/><path stroke="#000" stroke-linecap="round" stroke-linejoin="round" stroke-miterlimit="10" stroke-width="1.5" d="M10.36 5.13V3.56c0-.87-.7-1.57-1.57-1.57s-1.57.7-1.57 1.57.7 1.57 1.57 1.57z" opacity=".4"/><path stroke="#000" stroke-linecap="round" stroke-linejoin="round" stroke-miterlimit="10" stroke-width="1.5" d="M9.43 21.77c1.03 0 1.86-.83 1.86-1.86v-4.64c0-1.03-.83-1.86-1.86-1.86s-1.86.83-1.86 1.86v4.64c0 1.02.83 1.86 1.86 1.86"/><path stroke="#000" stroke-linecap="round" stroke-linejoin="round" stroke-miterlimit="10" stroke-width="1.5" d="M5.36 13.41H3.79c-.87 0-1.57.7-1.57 1.57s.7 1.57 1.57 1.57 1.57-.7 1.57-1.57z" opacity=".4"/><path stroke="#000" stroke-linecap="round" stroke-linejoin="round" stroke-miterlimit="10" stroke-width="1.5" d="M21.97 14.8c0-1.03-.83-1.86-1.86-1.86h-4.64c-1.03 0-1.86.83-1.86 1.86s.83 1.86 1.86 1.86h4.64c1.03 0 1.86-.83 1.86-1.86"/><path stroke="#000" stroke-linecap="round" stroke-linejoin="round" stroke-miterlimit="10" stroke-width="1.5" d="M13.61 18.84v1.57c0 .87.7 1.57 1.57 1.57s1.57-.7 1.57-1.57-.7-1.57-1.57-1.57z" opacity=".4"/></svg>