<svg xmlns="http://www.w3.org/2000/svg" width="24" height="24" fill="none"><path stroke="#292D32" stroke-linecap="round" stroke-linejoin="round" stroke-width="1.5" d="M9 22h6c5 0 7-2 7-7V9c0-5-2-7-7-7H9C4 2 2 4 2 9v6c0 5 2 7 7 7"/><path stroke="#292D32" stroke-linecap="round" stroke-linejoin="round" stroke-width="1.5" d="M17 2.44v9.98c0 1.97-1.41 2.74-3.14 1.7l-1.32-.79c-.3-.18-.78-.18-1.08 0l-1.32.79C8.41 15.15 7 14.39 7 12.42V2.44"/><path stroke="#292D32" stroke-linecap="round" stroke-linejoin="round" stroke-width="1.5" d="M9 22h6c5 0 7-2 7-7V9c0-5-2-7-7-7H9C4 2 2 4 2 9v6c0 5 2 7 7 7"/><path stroke="#292D32" stroke-linecap="round" stroke-linejoin="round" stroke-width="1.5" d="M17 2.44v9.98c0 1.97-1.41 2.74-3.14 1.7l-1.32-.79c-.3-.18-.78-.18-1.08 0l-1.32.79C8.41 15.15 7 14.39 7 12.42V2.44"/></svg>