<svg xmlns="http://www.w3.org/2000/svg" width="24" height="24" fill="none" viewBox="0 0 24 24"><path stroke="#292D32" stroke-linecap="round" stroke-linejoin="round" stroke-miterlimit="10" stroke-width="1.5" d="M10.32 18.97c.14.11.28.21.43.32 1.14.83 2.29 1.49 3.44 1.98s2.24.73 3.26.73c.7 0 1.35-.13 1.95-.38.61-.25 1.15-.64 1.64-1.18.29-.32.51-.66.68-1.02s.25-.73.25-1.09c0-.28-.06-.53-.16-.78-.11-.25-.29-.46-.55-.64l-3.31-2.35c-.25-.17-.48-.3-.7-.39s-.42-.13-.61-.13c-.25 0-.48.07-.71.21-.23.12-.47.31-.72.56l-.76.75a.55.55 0 0 1-.41.17.7.7 0 0 1-.25-.04c-.07-.03-.13-.06-.18-.08-.19-.1-.41-.24-.65-.42m-2.23-1.97c-.52-.53-1-1.06-1.45-1.58-.44-.52-.75-.95-.93-1.28-.02-.06-.05-.12-.08-.2a1 1 0 0 1-.03-.23c0-.16.05-.29.16-.4l.76-.79c.24-.24.43-.48.56-.71.14-.23.21-.47.21-.71 0-.19-.05-.4-.14-.61-.09-.22-.22-.45-.4-.7L7.07 2.74a1.63 1.63 0 0 0-.67-.56A1.9 1.9 0 0 0 5.59 2c-.74 0-1.44.31-2.08.94-.53.5-.91 1.06-1.15 1.67-.24.6-.36 1.25-.36 1.93q0 1.56.72 3.27c.48 1.13 1.14 2.27 1.96 3.41q1.245 1.71 2.79 3.27"/><path stroke="#292D32" stroke-linecap="round" stroke-linejoin="round" stroke-width="1.5" d="M22 2 2 22"/></svg>