<svg xmlns="http://www.w3.org/2000/svg" width="24" height="24" fill="none" viewBox="0 0 24 24"><path stroke="#292D32" stroke-linecap="round" stroke-linejoin="round" stroke-width="1.5" d="M22 13V9c0-5-2-7-7-7H9C4 2 2 4 2 9v6c0 5 2 7 7 7h4"/><path stroke="#292D32" stroke-linecap="round" stroke-linejoin="round" stroke-width="1.5" d="M22 13V9c0-5-2-7-7-7H9C4 2 2 4 2 9v6c0 5 2 7 7 7h4"/><path stroke="#292D32" stroke-linecap="round" stroke-linejoin="round" stroke-width="1.5" d="M22 13V9c0-5-2-7-7-7H9C4 2 2 4 2 9v6c0 5 2 7 7 7h4m3-2.57L17.58 21 21 17M7 10.5v3m5-3v3m5-3v3"/></svg>