<svg xmlns="http://www.w3.org/2000/svg" width="24" height="24" fill="none" viewBox="0 0 24 24"><path stroke="#292D32" stroke-linecap="round" stroke-linejoin="round" stroke-width="1.5" d="M7 8H4c-1.1 0-2-.9-2-2V4c0-1.1.9-2 2-2h3c1.1 0 2 .9 2 2v2c0 1.1-.9 2-2 2m13.8-1h-3.6c-.66 0-1.2-.54-1.2-1.2V4.2c0-.66.54-1.2 1.2-1.2h3.6c.66 0 1.2.54 1.2 1.2v1.6c0 .66-.54 1.2-1.2 1.2m0 7.5h-3.6c-.66 0-1.2-.54-1.2-1.2v-1.6c0-.66.54-1.2 1.2-1.2h3.6c.66 0 1.2.54 1.2 1.2v1.6c0 .66-.54 1.2-1.2 1.2"/><path stroke="#292D32" stroke-linecap="round" stroke-linejoin="round" stroke-miterlimit="10" stroke-width="1.5" d="M9 5h7"/><path fill="#fff" d="M12.5 5v13c0 1.1.9 2 2 2H16"/><path stroke="#292D32" stroke-linecap="round" stroke-linejoin="round" stroke-miterlimit="10" stroke-width="1.5" d="M12.5 5v13c0 1.1.9 2 2 2H16m-3.5-7.5H16"/><path stroke="#292D32" stroke-linecap="round" stroke-linejoin="round" stroke-width="1.5" d="M20.8 22h-3.6c-.66 0-1.2-.54-1.2-1.2v-1.6c0-.66.54-1.2 1.2-1.2h3.6c.66 0 1.2.54 1.2 1.2v1.6c0 .66-.54 1.2-1.2 1.2"/></svg>