<svg xmlns="http://www.w3.org/2000/svg" width="24" height="24" fill="none" viewBox="0 0 24 24"><path stroke="#292D32" stroke-linecap="round" stroke-linejoin="round" stroke-width="1.5" d="M12 14h1c1.1 0 2-.9 2-2V2H6c-1.5 0-2.81.83-3.49 2.05"/><path stroke="#292D32" stroke-linecap="round" stroke-linejoin="round" stroke-width="1.5" d="M2 17c0 1.66 1.34 3 3 3h1c0-1.1.9-2 2-2s2 .9 2 2h4c0-1.1.9-2 2-2s2 .9 2 2h1c1.66 0 3-1.34 3-3v-3h-3c-.55 0-1-.45-1-1v-3c0-.55.45-1 1-1h1.29l-1.71-2.99A2.02 2.02 0 0 0 16.84 5H15v7c0 1.1-.9 2-2 2h-1"/><path stroke="#292D32" stroke-linecap="round" stroke-linejoin="round" stroke-width="1.5" d="M8 22a2 2 0 1 0 0-4 2 2 0 0 0 0 4m8 0a2 2 0 1 0 0-4 2 2 0 0 0 0 4m6-10v2h-3c-.55 0-1-.45-1-1v-3c0-.55.45-1 1-1h1.29zM2 8h6m-6 3h4m-4 3h2"/></svg>