<svg xmlns="http://www.w3.org/2000/svg" width="24" height="24" fill="none"><path stroke="#292D32" stroke-linecap="round" stroke-linejoin="round" stroke-miterlimit="10" stroke-width="1.5" d="M2 22h20"/><path stroke="#292D32" stroke-linejoin="round" stroke-miterlimit="10" stroke-width="1.5" d="M2.95 22 3 9.97c0-.61.29-1.19.77-1.57l7-5.45a2.01 2.01 0 0 1 2.46 0l7 5.44c.49.38.77.96.77 1.58V22"/><path stroke="#292D32" stroke-linejoin="round" stroke-miterlimit="10" stroke-width="1.5" d="M13 17h-2c-.83 0-1.5.67-1.5 1.5V22h5v-3.5c0-.83-.67-1.5-1.5-1.5Zm-3.5-3.25h-2c-.55 0-1-.45-1-1v-1.5c0-.55.45-1 1-1h2c.55 0 1 .45 1 1v1.5c0 .55-.45 1-1 1Zm7 0h-2c-.55 0-1-.45-1-1v-1.5c0-.55.45-1 1-1h2c.55 0 1 .45 1 1v1.5c0 .55-.45 1-1 1Z"/><path stroke="#292D32" stroke-linecap="round" stroke-linejoin="round" stroke-miterlimit="10" stroke-width="1.5" d="m19 7-.03-3h-4.4"/></svg>