<svg xmlns="http://www.w3.org/2000/svg" width="24" height="24" fill="none"><path stroke="#292D32" stroke-linecap="round" stroke-linejoin="round" stroke-width="1.5" d="M3.5 20.5c.83.83 2.17.83 3 0l13-13c.83-.83.83-2.17 0-3s-2.17-.83-3 0l-13 13c-.83.83-.83 2.17 0 3M18.01 8.99l-3-3"/><path stroke="#292D32" stroke-linecap="round" stroke-linejoin="round" d="M8.5 2.44 10 2l-.44 1.5L10 5l-1.5-.44L7 5l.44-1.5L7 2zm-4 6L6 8l-.44 1.5L6 11l-1.5-.44L3 11l.44-1.5L3 8zm15 5L21 13l-.44 1.5L21 16l-1.5-.44L18 16l.44-1.5L18 13z"/></svg>