<svg xmlns="http://www.w3.org/2000/svg" width="24" height="24" fill="none"><path stroke="#292D32" stroke-linecap="round" stroke-linejoin="round" stroke-width="1.5" d="M21 8.65v5.7c0 .34-.01.67-.03.98A3.94 3.94 0 0 0 18 14c-2.21 0-4 1.79-4 4 0 .75.21 1.46.58 2.06.2.34.46.65.76.91q-.465.03-.99.03h-5.7C3.9 21 2 19.1 2 14.35v-5.7C2 3.9 3.9 2 8.65 2h5.7C19.1 2 21 3.9 21 8.65"/><path stroke="#292D32" stroke-linecap="round" stroke-linejoin="round" stroke-width="1.5" d="M6.72 14.42a1.45 1.45 0 1 0 0-2.9 1.45 1.45 0 0 0 0 2.9"/><path stroke="#292D32" stroke-linecap="round" stroke-linejoin="round" stroke-width="1.5" d="M13.48 12V6.34c0-1.21-.76-1.37-1.52-1.16l-2.89.79c-.52.14-.89.56-.89 1.16v5.84"/><path stroke="#292D32" stroke-linecap="round" stroke-linejoin="round" stroke-width="1.5" d="M12.03 13.45a1.45 1.45 0 1 0 0-2.9 1.45 1.45 0 0 0 0 2.9M8.17 8.83l5.31-1.45"/><path stroke="#292D32" stroke-linecap="round" stroke-linejoin="round" stroke-miterlimit="10" stroke-width="1.5" d="M22 18c0 .75-.21 1.46-.58 2.06A3.97 3.97 0 0 1 18 22a3.97 3.97 0 0 1-3.42-1.94A3.9 3.9 0 0 1 14 18c0-2.21 1.79-4 4-4s4 1.79 4 4m-2.51-.02h-2.98M18 16.52v2.99"/></svg>