<svg xmlns="http://www.w3.org/2000/svg" width="24" height="24" fill="none"><path stroke="#292D32" stroke-linecap="round" stroke-linejoin="round" stroke-width="1.5" d="M19 8a3 3 0 1 0 0-6 3 3 0 0 0 0 6"/><path stroke="#292D32" stroke-linecap="round" stroke-linejoin="round" stroke-width="1.5" d="M14 2H9C4 2 2 4 2 9v6c0 5 2 7 7 7h6c5 0 7-2 7-7v-5"/><path stroke="#292D32" stroke-linecap="round" stroke-linejoin="round" stroke-width="1.5" d="M6.81 14.93c-.35-1.1.06-2.47 1.22-2.84.61-.2 1.36-.03 1.79.56.4-.61 1.18-.75 1.78-.56 1.16.37 1.57 1.74 1.22 2.84-.55 1.75-2.47 2.66-3 2.66-.54-.01-2.44-.9-3.01-2.66"/></svg>