<svg xmlns="http://www.w3.org/2000/svg" width="24" height="24" fill="none" viewBox="0 0 24 24"><path stroke="#292D32" stroke-linecap="round" stroke-linejoin="round" stroke-width="1.5" d="M11.02 19.5H7.5c-.62 0-1.17-.02-1.66-.09-2.63-.29-3.34-1.53-3.34-4.91v-5c0-3.38.71-4.62 3.34-4.91.49-.07 1.04-.09 1.66-.09h3.46m4.06 0h1.48c.62 0 1.17.02 1.66.09 2.63.29 3.34 1.53 3.34 4.91v5c0 3.38-.71 4.62-3.34 4.91-.49.07-1.04.09-1.66.09h-1.48M15 2v20"/><path stroke="#292D32" stroke-linecap="round" stroke-linejoin="round" stroke-width="2" d="M11.095 12h.008m-4.009 0h.01"/></svg>