<svg xmlns="http://www.w3.org/2000/svg" fill="none" viewBox="0 0 24 24"><path stroke="#292D32" stroke-linecap="round" stroke-linejoin="round" stroke-width="1.5" d="M12 22c5.523 0 10-4.477 10-10S17.523 2 12 2 2 6.477 2 12s4.477 10 10 10"/><path stroke="#292D32" stroke-linecap="round" stroke-linejoin="round" stroke-width="1.5" d="M8.01 14.51c.18.3.4.58.65.83a4.73 4.73 0 0 0 6.68 0 4.7 4.7 0 0 0 1.32-2.67m-9.32-1.34c.14-.98.57-1.92 1.32-2.67a4.73 4.73 0 0 1 6.68 0c.26.26.47.54.65.83"/><path stroke="#292D32" stroke-linecap="round" stroke-linejoin="round" stroke-width="1.5" d="M7.82 17.18v-2.67h2.67m5.69-7.69v2.67h-2.67"/></svg>