<svg xmlns="http://www.w3.org/2000/svg" width="24" height="24" fill="none" viewBox="0 0 24 24"><path stroke="#292D32" stroke-linecap="round" stroke-linejoin="round" stroke-width="1.5" d="M16 12.69v5.39c0 2.34-1.56 3.89-3.89 3.89H5.89C3.56 21.97 2 20.42 2 18.08v-7.77c0-2.34 1.56-3.89 3.89-3.89h3.83c1.03 0 2.02.41 2.75 1.14l2.39 2.38A3.9 3.9 0 0 1 16 12.69"/><path stroke="#292D32" stroke-linecap="round" stroke-linejoin="round" stroke-width="1.5" d="M22 8.25v5.39c0 2.33-1.56 3.89-3.89 3.89H16v-4.84c0-1.03-.41-2.02-1.14-2.75l-2.39-2.38a3.9 3.9 0 0 0-2.75-1.14H8v-.56c0-2.33 1.56-3.89 3.89-3.89h3.83c1.03 0 2.02.41 2.75 1.14l2.39 2.39A3.9 3.9 0 0 1 22 8.25"/></svg>