<svg xmlns="http://www.w3.org/2000/svg" width="24" height="24" fill="none"><path stroke="#292D32" stroke-linecap="round" stroke-linejoin="round" stroke-width="1.5" d="M12 12a5 5 0 1 0 0-10 5 5 0 0 0 0 10M3.41 22c0-3.87 3.85-7 8.59-7 .96 0 1.89.13 2.76.37"/><path stroke="#292D32" stroke-linecap="round" stroke-linejoin="round" stroke-miterlimit="10" stroke-width="1.5" d="M22 18q0 .48-.12.93c-.09.4-.25.79-.46 1.13A3.97 3.97 0 0 1 18 22a3.92 3.92 0 0 1-2.66-1.03c-.3-.26-.56-.57-.76-.91A3.9 3.9 0 0 1 14 18a3.995 3.995 0 0 1 4-4c1.18 0 2.25.51 2.97 1.33.64.71 1.03 1.65 1.03 2.67m-2.97-1.06-2.11 2.11m.02-2.09 2.12 2.11"/></svg>