<svg xmlns="http://www.w3.org/2000/svg" width="24" height="24" fill="none" viewBox="0 0 24 24"><path stroke="#292D32" stroke-linecap="round" stroke-linejoin="round" stroke-width="1.5" d="M22 9v6c0 .22 0 .44-.02.65A4.46 4.46 0 0 0 18.5 14c-1.06 0-2.04.37-2.81.99A4.45 4.45 0 0 0 14 18.5a4.5 4.5 0 0 0 1.66 3.48c-.21.02-.43.02-.66.02H9c-5 0-7-2-7-7V9c0-5 2-7 7-7h6c5 0 7 2 7 7M2.52 7.11h18.96m-12.96-5v4.86m6.96-4.86v4.41"/><path stroke="#292D32" stroke-linecap="round" stroke-linejoin="round" stroke-miterlimit="10" stroke-width="1.5" d="M23 18.5a4.5 4.5 0 0 1-1.54 3.38c-.79.7-1.82 1.12-2.96 1.12-1.07 0-2.06-.38-2.83-1.02h-.01A4.5 4.5 0 0 1 14 18.5c0-1.42.65-2.69 1.69-3.51A4.47 4.47 0 0 1 18.5 14c1.41 0 2.66.64 3.48 1.65.64.77 1.02 1.77 1.02 2.85"/><path stroke="#292D32" stroke-linecap="round" stroke-linejoin="round" stroke-width="1.5" d="m16.75 18.5 1.11 1.11 2.4-2.22"/></svg>