<svg xmlns="http://www.w3.org/2000/svg" width="24" height="24" fill="none"><path stroke="#292D32" stroke-linecap="round" stroke-linejoin="round" stroke-width="1.5" d="M17.4 19.25H6.6c-1.5 0-2.1-.64-2.1-2.23v-1.04c0-1.59.6-2.23 2.1-2.23h10.8c1.5 0 2.1.64 2.1 2.23v1.04c0 1.59-.6 2.23-2.1 2.23m-2-8.5H8.6c-1.5 0-2.1-.64-2.1-2.23V7.48c0-1.59.6-2.23 2.1-2.23h6.8c1.5 0 2.1.64 2.1 2.23v1.04c0 1.59-.6 2.23-2.1 2.23"/><path stroke="#292D32" stroke-linecap="round" stroke-linejoin="round" stroke-width="1.5" d="M12 22v-2.4m0-6.6v-2m0-9v2.69" opacity=".4"/></svg>