<svg xmlns="http://www.w3.org/2000/svg" width="24" height="24" fill="none"><path stroke="#292D32" stroke-linecap="round" stroke-linejoin="round" stroke-width="1.5" d="M4.26 11.02v4.97c0 1.82 0 1.82 1.72 2.98l4.73 2.73c.71.41 1.87.41 2.58 0l4.73-2.73c1.72-1.16 1.72-1.16 1.72-2.98v-4.97c0-1.82 0-1.82-1.72-2.98l-4.73-2.73c-.71-.41-1.87-.41-2.58 0L5.98 8.04C4.26 9.2 4.26 9.2 4.26 11.02"/><path stroke="#292D32" stroke-linecap="round" stroke-linejoin="round" stroke-width="1.5" d="M17.5 7.63V5q0-3-3-3h-5q-3 0-3 3v2.56m6.13 3.43.57.89c.09.14.29.28.44.32l1.02.26c.63.16.8.7.39 1.2l-.67.81c-.1.13-.18.36-.17.52l.06 1.05c.04.65-.42.98-1.02.74l-.98-.39a.86.86 0 0 0-.55 0l-.98.39c-.6.24-1.06-.1-1.02-.74l.06-1.05c.01-.16-.07-.4-.17-.52l-.67-.81c-.41-.5-.24-1.04.39-1.2l1.02-.26c.16-.04.36-.19.44-.32l.57-.89c.36-.54.92-.54 1.27 0" opacity=".4"/></svg>