<svg xmlns="http://www.w3.org/2000/svg" width="24" height="24" fill="none" viewBox="0 0 24 24"><path stroke="#292D32" stroke-linecap="round" stroke-linejoin="round" stroke-miterlimit="10" stroke-width="1.5" d="M17 10h2q3 0 3-3V5q0-3-3-3h-2q-3 0-3 3v2q0 3 3 3M5 22h2q3 0 3-3v-2q0-3-3-3H5q-3 0-3 3v2q0 3 3 3"/><path stroke="#292D32" stroke-linecap="round" stroke-linejoin="round" stroke-miterlimit="10" stroke-width="1.5" d="M6 10a4 4 0 1 0 0-8 4 4 0 0 0 0 8m12 12a4 4 0 1 0 0-8 4 4 0 0 0 0 8" opacity=".34"/></svg>