<svg xmlns="http://www.w3.org/2000/svg" width="24" height="24" fill="none" viewBox="0 0 24 24"><path stroke="#292D32" stroke-linecap="round" stroke-linejoin="round" stroke-width="1.5" d="M9 22h6c5 0 7-2 7-7V9c0-5-2-7-7-7H9C4 2 2 4 2 9v6c0 5 2 7 7 7"/><path stroke="#292D32" stroke-linecap="round" stroke-linejoin="round" stroke-width="1.5" d="M15.5 18.5c1.1 0 2-.9 2-2v-9c0-1.1-.9-2-2-2s-2 .9-2 2v9a2 2 0 0 0 2 2m-7 0c1.1 0 2-.9 2-2V13c0-1.1-.9-2-2-2s-2 .9-2 2v3.5a2 2 0 0 0 2 2" opacity=".4"/></svg>