<svg xmlns="http://www.w3.org/2000/svg" width="24" height="24" fill="none"><path stroke="#292D32" stroke-linecap="round" stroke-linejoin="round" stroke-width="1.5" d="M17.01 12.73a1.07 1.07 0 1 0 0-2.14 1.07 1.07 0 0 0 0 2.14"/><path stroke="#292D32" stroke-linecap="round" stroke-linejoin="round" stroke-width="1.5" d="M20 6v1.79c-.25-.03-.54-.05-.85-.05h-4.28c-2.14 0-2.85.71-2.85 2.85v5.11H6c-3.2 0-4-.8-4-4V6c0-3.2.8-4 4-4h10c3.2 0 4 .8 4 4"/><path stroke="#292D32" stroke-linecap="round" stroke-linejoin="round" stroke-width="1.5" d="M2 11.9h10m-3 3.8V20m-3.05 0H12" opacity=".4"/><path stroke="#292D32" stroke-linecap="round" stroke-linejoin="round" stroke-miterlimit="10" stroke-width="1.5" d="M17.01 12.73a1.07 1.07 0 1 0 0-2.14 1.07 1.07 0 0 0 0 2.14"/><path stroke="#292D32" stroke-linecap="round" stroke-linejoin="round" stroke-miterlimit="10" stroke-width="1.5" d="M22 10.59v8.56c0 2.14-.71 2.85-2.85 2.85h-4.28c-2.14 0-2.85-.71-2.85-2.85v-8.56c0-2.14.71-2.85 2.85-2.85h4.28c.31 0 .6.02.85.05 1.48.19 2 .97 2 2.8"/><path stroke="#292D32" stroke-linecap="round" stroke-linejoin="round" stroke-miterlimit="10" stroke-width="1.5" d="M19.15 17.01c0 1.18-.96 2.14-2.14 2.14s-2.14-.96-2.14-2.14a2.142 2.142 0 0 1 3.54-1.62c.45.4.74.98.74 1.62m-2.14-4.28a1.07 1.07 0 1 0 0-2.14 1.07 1.07 0 0 0 0 2.14"/></svg>