<svg xmlns="http://www.w3.org/2000/svg" width="24" height="24" fill="none" viewBox="0 0 24 24"><path stroke="#292D32" stroke-linecap="round" stroke-linejoin="round" stroke-width="1.5" d="M15.96 10.83H12.9l-.76 2.29h2.29a1.53 1.53 0 1 1 0 3.06h-2.29m-2.6-.01v-5.34l-1.5 1.67" opacity=".4"/><path stroke="#292D32" stroke-linecap="round" stroke-linejoin="round" stroke-width="1.5" d="M13.98 4.47 12 2m7.09 5.8c1.11 1.48 1.8 3.31 1.8 5.31A8.89 8.89 0 0 1 12 22a8.89 8.89 0 0 1-8.89-8.89A8.89 8.89 0 0 1 12 4.22c.68 0 1.34.09 1.98.24"/></svg>