<svg xmlns="http://www.w3.org/2000/svg" width="24" height="24" fill="none"><path stroke="#292D32" stroke-linecap="round" stroke-linejoin="round" stroke-width="1.5" d="M4.93 19.07A9.97 9.97 0 0 1 2 12C2 6.48 6.48 2 12 2c2.76 0 5.26 1.12 7.07 2.93"/><path stroke="#292D32" stroke-linecap="round" stroke-linejoin="round" stroke-width="1.5" d="M19.07 4.93A9.97 9.97 0 0 1 22 12c0 5.52-4.48 10-10 10-2.76 0-5.26-1.12-7.07-2.93"/><path stroke="#292D32" stroke-linecap="round" stroke-linejoin="round" stroke-width="1.5" d="M19.07 4.93 4.93 19.07m2.83-2.83 5.65 5.66m-2.12-9.19 6.58 6.57M14.83 9.17l6.29 6.3" opacity=".4"/></svg>