<svg xmlns="http://www.w3.org/2000/svg" width="24" height="24" fill="none"><path stroke="#292D32" stroke-linecap="round" stroke-linejoin="round" stroke-miterlimit="10" stroke-width="1.5" d="M17.54 8.31a2.46 2.46 0 1 0 0-4.92 2.46 2.46 0 0 0 0 4.92"/><path stroke="#292D32" stroke-linecap="round" stroke-linejoin="round" stroke-miterlimit="10" stroke-width="1.5" d="M6.46 8.31a2.46 2.46 0 1 0 0-4.92 2.46 2.46 0 0 0 0 4.92m11.08 12.3a2.46 2.46 0 1 0 0-4.92 2.46 2.46 0 0 0 0 4.92" opacity=".4"/><path stroke="#292D32" stroke-linecap="round" stroke-linejoin="round" stroke-miterlimit="10" stroke-width="1.5" d="M6.46 20.61a2.46 2.46 0 1 0 0-4.92 2.46 2.46 0 0 0 0 4.92"/></svg>