<svg xmlns="http://www.w3.org/2000/svg" width="24" height="24" fill="none"><path stroke="#292D32" stroke-linecap="round" stroke-linejoin="round" stroke-width="1.5" d="M22 10V9c0-5-2-7-7-7H9C4 2 2 4 2 9v6c0 5 2 7 7 7h2"/><g stroke="#292D32" stroke-linecap="round" stroke-linejoin="round" stroke-width="1.5" opacity=".4"><path d="M15.27 22a1.44 1.44 0 1 0 0-2.88 1.44 1.44 0 0 0 0 2.88"/><path d="M22 19.6v-5.64c0-1.2-.75-1.37-1.52-1.16l-2.89.79c-.52.14-.89.56-.89 1.16v5.82"/><path d="M20.561 21.04a1.44 1.44 0 1 0 0-2.88 1.44 1.44 0 0 0 0 2.88m-3.851-4.61L22 14.99"/></g></svg>