<svg xmlns="http://www.w3.org/2000/svg" width="24" height="24" fill="none"><path stroke="#292D32" stroke-linecap="round" stroke-linejoin="round" stroke-miterlimit="10" stroke-width="1.5" d="M12 14.5a2.5 2.5 0 1 0 0-5 2.5 2.5 0 0 0 0 5m6.5-5v5" opacity=".4"/><path stroke="#292D32" stroke-linecap="round" stroke-linejoin="round" stroke-miterlimit="10" stroke-width="1.5" d="M5 22a4 4 0 1 0 0-8 4 4 0 0 0 0 8"/><path stroke="#292D32" stroke-linecap="round" stroke-linejoin="round" stroke-miterlimit="10" stroke-width="1.5" d="M5.25 16.75v.93c0 .35-.18.68-.49.86L4 19"/><path stroke="#292D32" stroke-linecap="round" stroke-linejoin="round" stroke-miterlimit="10" stroke-width="1.5" d="M2 15.2V9c0-3.5 2-5 5-5h10c3 0 5 1.5 5 5v6c0 3.5-2 5-5 5H8.5"/></svg>