<svg xmlns="http://www.w3.org/2000/svg" fill="none" viewBox="0 0 24 24"><path stroke="#292D32" stroke-linecap="round" stroke-linejoin="round" stroke-width="1.5" d="M12 9.32c1.19 0 2.16-.97 2.16-2.16S13.19 5 12 5s-2.16.97-2.16 2.16.97 2.16 2.16 2.16"/><path stroke="#292D32" stroke-linecap="round" stroke-linejoin="round" stroke-width="1.5" d="M6.79 19c1.19 0 2.16-.97 2.16-2.16s-.97-2.16-2.16-2.16-2.16.97-2.16 2.16S5.59 19 6.79 19" opacity=".4"/><path stroke="#292D32" stroke-linecap="round" stroke-linejoin="round" stroke-width="1.5" d="M17.21 19c1.19 0 2.16-.97 2.16-2.16s-.97-2.16-2.16-2.16-2.16.97-2.16 2.16.97 2.16 2.16 2.16"/></svg>