<svg xmlns="http://www.w3.org/2000/svg" width="24" height="24" fill="none"><path stroke="#292D32" stroke-linecap="round" stroke-linejoin="round" stroke-width="1.5" d="M11.97 22c5.524 0 10-4.477 10-10s-4.476-10-10-10c-5.522 0-10 4.477-10 10s4.478 10 10 10"/><path stroke="#292D32" stroke-linecap="round" stroke-linejoin="round" stroke-width="1.5" d="M10.72 14.53V9.47c0-.48-.2-.67-.71-.67h-1.3c-.51 0-.71.19-.71.67v5.06c0 .48.2.67.71.67H10c.52 0 .72-.19.72-.67m5.28 0V9.47c0-.48-.2-.67-.71-.67H14c-.51 0-.71.19-.71.67v5.06c0 .48.2.67.71.67h1.29c.51 0 .71-.19.71-.67" opacity=".4"/></svg>