<svg xmlns="http://www.w3.org/2000/svg" fill="none" viewBox="0 0 24 24"><path stroke="#292D32" stroke-linecap="round" stroke-linejoin="round" stroke-miterlimit="10" stroke-width="1.5" d="M7.25 7h9.5V5c0-2-.75-3-3-3h-3.5c-2.25 0-3 1-3 3z" opacity=".4"/><path stroke="#292D32" stroke-linecap="round" stroke-linejoin="round" stroke-miterlimit="10" stroke-width="1.5" d="M12.97 15H16v4q0 3-3 3h-2c-1.69 0-2.67-.71-2.93-2.14M6 18q-3 0-3-3v-5q0-3 3-3h10.59"/><path stroke="#292D32" stroke-linecap="round" stroke-linejoin="round" stroke-miterlimit="10" stroke-width="1.5" d="M19.97 7.52C20.66 8 21 8.83 21 10v5q0 3-3 3h-2v-3h-3m4 0h-1.21"/><path stroke="#292D32" stroke-linecap="round" stroke-linejoin="round" stroke-miterlimit="10" stroke-width="1.5" d="M7 11h2" opacity=".4"/><path stroke="#292D32" stroke-linecap="round" stroke-linejoin="round" stroke-width="1.5" d="M22 2 2 22"/></svg>