<svg xmlns="http://www.w3.org/2000/svg" fill="none" viewBox="0 0 24 24"><path stroke="#292D32" stroke-linecap="round" stroke-linejoin="round" stroke-miterlimit="10" stroke-width="1.5" d="M7.25 7h9.5V5c0-2-.75-3-3-3h-3.5c-2.25 0-3 1-3 3z" opacity=".4"/><path stroke="#292D32" stroke-linecap="round" stroke-linejoin="round" stroke-miterlimit="10" stroke-width="1.5" d="M16 15v4q0 3-3 3h-2q-3 0-3-3v-4z"/><path stroke="#292D32" stroke-linecap="round" stroke-linejoin="round" stroke-miterlimit="10" stroke-width="1.5" d="M21 10v5q0 3-3 3h-2v-3H8v3H6q-3 0-3-3v-5q0-3 3-3h12q3 0 3 3m-4 5H7"/><path stroke="#292D32" stroke-linecap="round" stroke-linejoin="round" stroke-miterlimit="10" stroke-width="1.5" d="M7 11h3" opacity=".4"/></svg>