<svg xmlns="http://www.w3.org/2000/svg" width="24" height="24" fill="none"><g stroke="#292D32" stroke-linecap="round" stroke-linejoin="round" stroke-width="1.5" opacity=".4"><path d="M19 16V6.5c0-1.1-.9-2-2-2h-4.5"/><path d="m15 2-3 2.5L15 7"/></g><path stroke="#292D32" stroke-linecap="round" stroke-linejoin="round" stroke-width="1.5" d="M5 9v7" opacity=".4"/><path stroke="#292D32" stroke-linecap="round" stroke-linejoin="round" stroke-width="1.5" d="M5.25 8.5a3.25 3.25 0 1 0 0-6.5 3.25 3.25 0 0 0 0 6.5M5 22a3 3 0 1 0 0-6 3 3 0 0 0 0 6m14 0a3 3 0 1 0 0-6 3 3 0 0 0 0 6"/></svg>