<svg xmlns="http://www.w3.org/2000/svg" width="24" height="24" fill="none" viewBox="0 0 24 24"><path stroke="#292D32" stroke-linecap="round" stroke-linejoin="round" stroke-width="1.5" d="M3 9.11v5.77C3 17 3 17 5 18.35l5.5 3.18c.83.48 2.18.48 3 0l5.5-3.18c2-1.35 2-1.35 2-3.46V9.11C21 7 21 7 19 5.65l-5.5-3.18c-.82-.48-2.17-.48-3 0L5 5.65C3 7 3 7 3 9.11"/><path stroke="#292D32" stroke-linecap="round" stroke-linejoin="round" stroke-width="1.5" d="M12 15a3 3 0 1 0 0-6 3 3 0 0 0 0 6" opacity=".34"/></svg>