<svg xmlns="http://www.w3.org/2000/svg" width="24" height="24" fill="none"><path stroke="#292D32" stroke-linecap="round" stroke-linejoin="round" stroke-miterlimit="10" stroke-width="1.5" d="M19.14 19.5a9.96 9.96 0 0 0 2.86-7c0-5.52-4.48-10-10-10S2 6.98 2 12.5c0 2.72 1.08 5.18 2.84 6.99" opacity=".4"/><path stroke="#292D32" stroke-linecap="round" stroke-linejoin="round" stroke-miterlimit="10" stroke-width="1.5" d="M12 21.5a3.38 3.38 0 1 0 0-6.76 3.38 3.38 0 0 0 0 6.76m3.25-9.5H16c.82 0 1.5-.67 1.5-1.5 0-.82-.68-1.5-1.5-1.5s-1.5.67-1.5 1.5v.75c0 .41.34.75.75.75"/></svg>