<svg xmlns="http://www.w3.org/2000/svg" fill="none" viewBox="0 0 24 24"><path stroke="#000" stroke-linecap="round" stroke-linejoin="round" stroke-miterlimit="10" stroke-width="1.5" d="M11 18v3c0 .55-.45 1-1 1s-1-.45-1-1v-3zm4 0v3c0 .55-.45 1-1 1s-1-.45-1-1v-3zm-8-7c0-1.1.9-2 2-2h6c1.1 0 2 .9 2 2v5c0 1.1-.9 2-2 2H9c-1.1 0-2-.9-2-2v-.71M5 11v4c0 .55-.45 1-1 1s-1-.45-1-1v-4c0-.55.45-1 1-1s1 .45 1 1m16 0v4c0 .55-.45 1-1 1s-1-.45-1-1v-4c0-.55.45-1 1-1s1 .45 1 1m-8 7h-2M9.6 7h4.8c.88 0 1.6-.72 1.6-1.6 0-2.21-1.79-4-4-4s-4 1.79-4 4C8 6.28 8.72 7 9.6 7"/></svg>