<svg xmlns="http://www.w3.org/2000/svg" fill="none" viewBox="0 0 24 24"><path stroke="#000" stroke-linecap="round" stroke-linejoin="round" stroke-miterlimit="10" stroke-width="1.5" d="M11.4 2.35 6.25 7.5c-.2.2-.2.51 0 .71l1.73 1.73c.2.2.51.2.71 0l5.15-5.15c.2-.2.2-.51 0-.71l-1.73-1.73a.513.513 0 0 0-.71 0m1.55 6.26-6.7 6.7c-.2.2-.2.51 0 .71l1.73 1.73c.2.2.51.2.71 0l9.05-9.05c.2-.2.2-.51 0-.71l-1.73-1.73c-.2-.2-.51-.2-.71 0m3.91 3.9-9.05 9.05c-.2.2-.2.51 0 .71l1.73 1.73c.2.2.51.2.71 0l9.05-9.05c.2-.2.2-.51 0-.71l-1.73-1.73c-.2-.2-.52-.2-.71 0M4.091 13.84l-1.73-1.73c-.2-.2-.2-.51 0-.71l1.73-1.73c.2-.2.51-.2.71 0l1.73 1.73c.2.2.2.51 0 .71l-1.73 1.73c-.2.2-.52.2-.71 0"/></svg>