<svg xmlns="http://www.w3.org/2000/svg" fill="none" viewBox="0 0 24 24"><path stroke="#000" stroke-linecap="round" stroke-linejoin="round" stroke-miterlimit="10" stroke-width="1.5" d="M12.64 8.47c.8.21 1.45.86 1.65 1.66.28 1.1-.21 2.12-1.05 2.64v1.98a1.25 1.25 0 0 1-2.5 0v-1.98a2.37 2.37 0 0 1-1.13-2.02"/><path stroke="#000" stroke-linecap="round" stroke-linejoin="round" stroke-miterlimit="10" stroke-width="1.5" d="M21.55 9.03C20.28 4.96 16.49 2 12 2 7.89 2 4.36 4.48 2.82 8.02A9.9 9.9 0 0 0 2 12c0 5.52 4.48 10 10 10 4.47 0 8.26-2.94 9.54-6.99"/></svg>