<svg xmlns="http://www.w3.org/2000/svg" fill="none" viewBox="0 0 24 24"><path stroke="#000" stroke-linecap="round" stroke-linejoin="round" stroke-miterlimit="10" stroke-width="1.5" d="M18.5 4.79c-2.6 4.55-7.61 7.16-12.83 6.69l-3.17-.29m3 8.18c2.6-4.55 7.61-7.16 12.83-6.69l3.17.29"/><path stroke="#000" stroke-linecap="round" stroke-linejoin="round" stroke-miterlimit="10" stroke-width="1.5" d="m7.63 3 3.18 3.95c2.13 2.64 3.64 5.71 4.44 9l1.21 4.99"/><path stroke="#17191C" stroke-linecap="round" stroke-linejoin="round" stroke-width="1.5" d="M4 6c-1.25 1.67-2 3.75-2 6 0 5.52 4.48 10 10 10s10-4.48 10-10S17.52 2 12 2c-1.43 0-2.8.3-4.03.85"/></svg>