<svg xmlns="http://www.w3.org/2000/svg" fill="none" viewBox="0 0 24 24"><path stroke="#000" stroke-linecap="round" stroke-linejoin="round" stroke-miterlimit="10" stroke-width="1.5" d="m5.48 15.62-.26 1.32c-.12.58.21 1.3.73 1.6l5.32 3.04c.41.23 1.08.23 1.49 0l5.32-3.04c.52-.3.84-1.01.73-1.6L17.1 8.37c-.04-.21-.18-.51-.32-.67l-3.6-4.32c-.63-.76-1.67-.76-2.3 0L7.28 7.7c-.13.16-.28.46-.32.67l-.52 2.61"/><path stroke="#000" stroke-linecap="round" stroke-linejoin="round" stroke-miterlimit="10" stroke-width="1.5" d="m16.81 8.52-4.34 12.16a.5.5 0 0 1-.94 0L7.18 8.5"/></svg>