<svg xmlns="http://www.w3.org/2000/svg" fill="none" viewBox="0 0 24 24"><path stroke="#000" stroke-miterlimit="10" stroke-width="1.5" d="M12 6h-2c-1.1 0-2 .9-2 2s.9 2 2 2h2zm0 4h-2c-1.1 0-2 .9-2 2s.9 2 2 2h2zm0 4h-2c-1.1 0-2 .9-2 2s.9 2 2 2 2-.9 2-2zm0-8h2c1.1 0 2 .9 2 2s-.9 2-2 2h-2zm2 4c1.1 0 2 .9 2 2s-.9 2-2 2-2-.9-2-2 .9-2 2-2Z"/><path stroke="#17191C" stroke-linecap="round" stroke-linejoin="round" stroke-width="1.5" d="M4 6c-1.25 1.67-2 3.75-2 6 0 5.52 4.48 10 10 10s10-4.48 10-10S17.52 2 12 2c-1.43 0-2.8.3-4.03.85"/></svg>