<svg xmlns="http://www.w3.org/2000/svg" fill="none" viewBox="0 0 24 24"><path stroke="#000" stroke-miterlimit="10" stroke-width="1.5" d="M12 2H8.67C6.83 2 5.34 3.49 5.34 5.33s1.49 3.33 3.33 3.33H12z"/><path stroke="#000" stroke-linecap="round" stroke-linejoin="round" stroke-miterlimit="10" stroke-width="1.5" d="M8.67 15.33H12V8.66H8.67c-1.84 0-3.33 1.49-3.33 3.33"/><path stroke="#000" stroke-miterlimit="10" stroke-width="1.5" d="M12 15.33H8.67c-1.84 0-3.33 1.49-3.33 3.33s1.49 3.33 3.33 3.33S12 20.5 12 18.66zM12 2h3.33c1.84 0 3.33 1.49 3.33 3.33s-1.49 3.33-3.33 3.33H12zm3.33 6.67c1.84 0 3.33 1.49 3.33 3.33s-1.49 3.33-3.33 3.33S12 13.84 12 12s1.49-3.33 3.33-3.33Z"/></svg>