<svg xmlns="http://www.w3.org/2000/svg" fill="none" viewBox="0 0 24 24"><path stroke="#000" stroke-linecap="round" stroke-linejoin="round" stroke-miterlimit="10" stroke-width="1.5" d="M21.54 15c-1.28 4.06-5.07 7-9.54 7-4.46 0-8.24-2.92-9.53-6.96L7 15V9l5 6 5-6v6z"/><path stroke="#000" stroke-linecap="round" stroke-linejoin="round" stroke-miterlimit="10" stroke-width="1.5" d="M21.54 15H17V9l-5 6-5-6v6l-4.53.04"/><path stroke="#17191C" stroke-linecap="round" stroke-linejoin="round" stroke-width="1.5" d="M4 6c-1.25 1.67-2 3.75-2 6 0 5.52 4.48 10 10 10s10-4.48 10-10S17.52 2 12 2c-1.43 0-2.8.3-4.03.85"/></svg>