<svg xmlns="http://www.w3.org/2000/svg" fill="none" viewBox="0 0 24 24"><path stroke="#000" stroke-linejoin="round" stroke-miterlimit="10" stroke-width="1.5" d="M10.5 11.46v2.85L8 15.75l-2.5-1.44v-2.85L8 10.02l1.25.72zm8 0v2.85L16 15.75l-2.5-1.44v-2.85l1.25-.72 1.25-.72z"/><path stroke="#000" stroke-linejoin="round" stroke-miterlimit="10" stroke-width="1.5" d="M14.75 9.33v1.41l-1.25.72v1.73l-1.5.86-1.5-.86v-1.73l-1.25-.72V9.33L12 7.75z"/><path stroke="#17191C" stroke-linecap="round" stroke-linejoin="round" stroke-width="1.5" d="M4 6c-1.25 1.67-2 3.75-2 6 0 5.52 4.48 10 10 10s10-4.48 10-10S17.52 2 12 2c-1.43 0-2.8.3-4.03.85"/></svg>