<svg xmlns="http://www.w3.org/2000/svg" fill="none" viewBox="0 0 24 24"><path stroke="#000" stroke-miterlimit="10" stroke-width="1.5" d="M6 9.68v2.8c0 1.54 1.25 2.78 2.79 2.77l3.68-.03c.51 0 .92-.42.92-.92v-2.77a2.77 2.77 0 0 0-2.77-2.77H6.93a.92.92 0 0 0-.93.92Z" clip-rule="evenodd"/><path stroke="#000" stroke-linecap="round" stroke-linejoin="round" stroke-miterlimit="10" stroke-width="1.5" d="M18 9.24v5.54l-2.77-1.85v-1.84z" clip-rule="evenodd"/><path stroke="#17191C" stroke-linecap="round" stroke-linejoin="round" stroke-width="1.5" d="M4 6c-1.25 1.67-2 3.75-2 6 0 5.52 4.48 10 10 10s10-4.48 10-10S17.52 2 12 2c-1.43 0-2.8.3-4.03.85"/></svg>