<svg xmlns="http://www.w3.org/2000/svg" fill="none" viewBox="0 0 24 24"><path fill="#000" d="M11.65 2.35 6.36 7.64c-.2.2-.2.51 0 .71l1.29 1.29c.2.2.51.2.71 0l3.29-3.29c.2-.2.51-.2.71 0l3.29 3.29c.2.2.51.2.71 0l1.29-1.29c.2-.2.2-.51 0-.71l-5.29-5.29a.513.513 0 0 0-.71 0m0 19.3-5.29-5.29c-.2-.2-.2-.51 0-.71l1.29-1.29c.2-.2.51-.2.71 0l3.29 3.29c.2.2.51.2.71 0l3.29-3.29c.2-.2.51-.2.71 0l1.29 1.29c.2.2.2.51 0 .71l-5.29 5.29c-.2.19-.52.19-.71 0M20.1 10.1l1.54 1.54c.2.2.2.51 0 .71l-1.54 1.54c-.2.2-.51.2-.71 0l-1.54-1.54c-.2-.2-.2-.51 0-.71l1.54-1.54c.2-.19.52-.19.71 0m-15.5 0 1.54 1.54c.2.2.2.51 0 .71L4.6 13.89c-.2.2-.51.2-.71 0l-1.54-1.54c-.2-.2-.2-.51 0-.71l1.54-1.54c.2-.19.52-.19.71 0"/><path fill="#000" d="m12.35 9.88 1.77 1.77c.2.2.2.51 0 .71l-1.77 1.77c-.2.2-.51.2-.71 0l-1.77-1.77c-.2-.2-.2-.51 0-.71l1.77-1.77c.2-.2.52-.2.71 0"/></svg>