<svg xmlns="http://www.w3.org/2000/svg" fill="none" viewBox="0 0 24 24"><path fill="#000" d="M14 13.25h-4c-.41 0-.75.34-.75.75s.34.75.75.75h4c.41 0 .75-.34.75-.75s-.34-.75-.75-.75m-4-2.5h2c.41 0 .75-.34.75-.75s-.34-.75-.75-.75h-2c-.41 0-.75.34-.75.75s.34.75.75.75"/><path fill="#000" d="M16.19 2H7.82C4.18 2 2.01 4.17 2.01 7.81v8.37c0 3.64 2.17 5.81 5.81 5.81h8.37c3.64 0 5.81-2.17 5.81-5.81V7.81C22 4.17 19.83 2 16.19 2M18 15q0 3-3 3H9q-3 0-3-3V9q0-3 3-3h4q3 0 3 3v1c0 .55.45 1 1 1s1 .45 1 1z"/></svg>