<svg xmlns="http://www.w3.org/2000/svg" fill="none" viewBox="0 0 24 24"><path fill="#000" d="M12 4.75c-.1 0-.2-.01-.29-.03-.1-.02-.19-.05-.28-.08-.09-.04-.18-.09-.26-.14a1.498 1.498 0 0 1 0-2.5c.08-.05.17-.1.26-.13.09-.04.18-.07.28-.09A1.499 1.499 0 1 1 12 4.75m0 4.5c-.1 0-.2-.01-.29-.03-.1-.02-.19-.05-.28-.08-.09-.04-.18-.09-.26-.14-.08-.06-.16-.12-.23-.19a1.5 1.5 0 0 1 .23-2.31c.08-.05.17-.1.26-.13a1.42 1.42 0 0 1 1.14 0c.09.03.18.08.26.13a1.5 1.5 0 0 1 .23 2.31c-.07.07-.15.13-.23.19-.08.05-.17.1-.26.14-.09.03-.18.06-.28.08-.09.02-.19.03-.29.03m0 4c-.1 0-.2-.01-.29-.03-.1-.02-.19-.05-.28-.08-.09-.04-.18-.09-.26-.14-.08-.06-.16-.12-.23-.19a1.45 1.45 0 0 1-.41-.77 1.5 1.5 0 0 1 .41-1.35c.07-.07.15-.13.23-.19.08-.05.17-.1.26-.14.09-.03.18-.06.28-.08a1.5 1.5 0 0 1 1.76 1.76c-.02.1-.05.19-.09.28a1.3 1.3 0 0 1-.32.49c-.07.07-.15.13-.23.19-.08.05-.17.1-.26.14-.09.03-.18.06-.28.08-.09.02-.19.03-.29.03m0 3.501c-.26 0-.52-.11-.71-.29-.18-.19-.29-.45-.29-.71s.11-.52.29-.71c.23-.23.58-.33.9-.27.07.01.13.03.19.06.06.02.12.05.17.09.06.04.11.08.16.12.18.19.29.45.29.71s-.11.52-.29.71c-.05.04-.1.08-.16.12-.05.04-.11.07-.17.09-.06.03-.12.05-.19.06-.06.01-.13.02-.19.02M12 20a.78.78 0 0 1-.53-.22.6.6 0 0 1-.16-.24.75.75 0 1 1 .69.46m0 2.07a.47.47 0 0 1-.35-.15.47.47 0 0 1-.15-.35.501.501 0 0 1 1 0c0 .13-.05.26-.15.35a.47.47 0 0 1-.35.15M3.5 9.25a1.499 1.499 0 0 1-1.06-2.56c.55-.56 1.56-.56 2.12 0A1.5 1.5 0 0 1 4.33 9c-.08.05-.17.1-.26.13a1.4 1.4 0 0 1-.57.12m17 0c-.39 0-.78-.16-1.06-.44S19 8.14 19 7.75c0-.1.01-.2.03-.29.02-.1.05-.19.08-.28.04-.09.09-.18.14-.26.06-.08.12-.16.19-.23s.15-.13.23-.19c.08-.05.17-.1.26-.13a1.42 1.42 0 0 1 1.14 0c.09.03.18.08.26.13.08.06.16.12.23.19s.13.15.19.23c.05.08.1.17.13.26a1.4 1.4 0 0 1 .12.57A1.5 1.5 0 0 1 21.33 9c-.08.05-.17.1-.26.14-.09.03-.18.06-.28.08s-.19.03-.29.03m0 3.499c-.06 0-.13-.01-.19-.02a.6.6 0 0 1-.19-.06.8.8 0 0 1-.18-.09c-.05-.03-.1-.08-.15-.12-.04-.05-.09-.1-.12-.15a.8.8 0 0 1-.09-.18.6.6 0 0 1-.06-.18c-.01-.07-.02-.13-.02-.2 0-.26.11-.52.29-.71l.15-.12q.09-.06.18-.09c.06-.03.12-.05.19-.06.12-.03.25-.03.38 0 .07.01.13.03.19.06.06.02.12.05.17.09.06.04.11.08.16.12.18.19.29.45.29.71 0 .07-.01.13-.02.2q-.015.09-.06.18-.03.09-.09.18l-.12.15c-.05.04-.1.09-.16.12-.05.04-.11.07-.17.09-.06.03-.12.05-.19.06-.06.01-.13.02-.19.02m-17 0c-.26 0-.52-.11-.71-.29-.18-.19-.29-.45-.29-.71s.11-.52.29-.71c.28-.28.72-.37 1.09-.21.13.05.23.12.33.21.18.19.29.45.29.71s-.11.52-.29.71c-.19.18-.45.29-.71.29m17 2.75a.75.75 0 1 1 0-1.499.75.75 0 0 1 0 1.499m-17 .003a.75.75 0 0 1-.69-1.04c.03-.09.09-.17.16-.24.27-.28.78-.28 1.06 0a.78.78 0 0 1 .22.53.78.78 0 0 1-.22.53.75.75 0 0 1-.53.22M20.5 18c-.07 0-.13-.01-.19-.04a.36.36 0 0 1-.16-.11.47.47 0 0 1-.15-.35.501.501 0 0 1 1 0c0 .13-.05.26-.15.35a.47.47 0 0 1-.35.15m-17 0a.47.47 0 0 1-.35-.15.47.47 0 0 1-.15-.35.501.501 0 0 1 1 0c0 .13-.05.26-.15.35a.47.47 0 0 1-.35.15M7.75 7a1.4 1.4 0 0 1-.57-.12c-.1-.03-.18-.08-.26-.13a1.52 1.52 0 0 1-.67-1.25c0-.39.16-.78.44-1.06.56-.56 1.56-.56 2.12 0a1.5 1.5 0 0 1-.23 2.31c-.08.05-.17.1-.26.13a1.4 1.4 0 0 1-.57.12m8.5 0a1.4 1.4 0 0 1-.57-.12c-.09-.03-.18-.08-.26-.13a2 2 0 0 1-.23-.19 2 2 0 0 1-.19-.23c-.05-.08-.1-.17-.14-.26-.03-.09-.06-.18-.08-.28-.02-.09-.03-.19-.03-.29a1.52 1.52 0 0 1 .67-1.25c.08-.05.17-.1.26-.13a1.42 1.42 0 0 1 1.14 0c.09.03.18.08.26.13a1.52 1.52 0 0 1 .67 1.25c0 .1-.01.2-.03.29-.02.1-.05.19-.08.28-.04.09-.09.18-.14.26-.06.08-.12.16-.19.23s-.15.13-.23.19c-.08.05-.17.1-.26.13a1.4 1.4 0 0 1-.57.12m-8.5 4.25c-.1 0-.2-.01-.29-.03-.1-.02-.19-.05-.28-.08a1.5 1.5 0 0 1-.49-.33 1.5 1.5 0 0 1 0-2.12c.56-.56 1.56-.56 2.12 0a1.499 1.499 0 0 1-1.06 2.56m8.5 0a1.4 1.4 0 0 1-.57-.12c-.09-.03-.18-.08-.26-.13-.08-.06-.16-.12-.23-.19s-.13-.15-.19-.23c-.05-.08-.1-.17-.14-.26-.03-.09-.06-.18-.08-.28-.02-.09-.03-.19-.03-.29a1.52 1.52 0 0 1 .67-1.25c.08-.05.17-.1.26-.13a1.42 1.42 0 0 1 1.14 0c.09.03.18.08.26.13a1.52 1.52 0 0 1 .67 1.25c0 .1-.01.2-.03.29-.02.1-.05.19-.08.28-.04.09-.09.18-.14.26-.06.08-.12.16-.19.23s-.15.13-.23.19c-.08.05-.17.1-.26.13a1.4 1.4 0 0 1-.57.12m-8.5 3.5c-.13 0-.26-.03-.38-.08a.9.9 0 0 1-.33-.21q-.135-.15-.21-.33a1 1 0 0 1-.08-.38c0-.26.11-.52.29-.71.37-.37 1.05-.37 1.42 0 .18.19.29.45.29.71 0 .13-.03.26-.08.38q-.075.18-.21.33c-.19.18-.45.29-.71.29m8.5 0c-.26 0-.52-.11-.71-.29-.18-.19-.29-.45-.29-.71s.11-.52.29-.71c.37-.37 1.04-.37 1.42 0 .18.19.29.45.29.71 0 .07-.01.13-.02.2q-.015.09-.06.18c-.02.06-.05.12-.09.17-.04.06-.08.11-.12.16-.19.18-.45.29-.71.29m-8.5 3a.75.75 0 1 1 0-1.499.75.75 0 0 1 0 1.499m8.5 0a.78.78 0 0 1-.53-.22.6.6 0 0 1-.16-.24.72.72 0 0 1 0-.58c.04-.09.09-.17.16-.24s.15-.12.24-.16a.73.73 0 0 1 .58 0c.09.04.17.09.24.16A.78.78 0 0 1 17 17a.78.78 0 0 1-.22.53.75.75 0 0 1-.53.22M7.75 20a.47.47 0 0 1-.35-.15.47.47 0 0 1-.15-.35.501.501 0 0 1 1 0c0 .13-.05.26-.15.35a.47.47 0 0 1-.35.15m8.5 0c-.07 0-.13-.01-.19-.04a.36.36 0 0 1-.16-.11.36.36 0 0 1-.11-.16.4.4 0 0 1-.04-.19.501.501 0 0 1 1 0c0 .07-.01.13-.04.19-.02.06-.06.12-.11.16a.47.47 0 0 1-.35.15"/></svg>