<svg xmlns="http://www.w3.org/2000/svg" fill="none" viewBox="0 0 24 24"><path fill="#000" d="M14.54 1.879c-1.23 0-2.23 1-2.23 2.23v4.64c0 1.23 1 2.23 2.23 2.23s2.23-1 2.23-2.23v-4.64c0-1.22-1-2.23-2.23-2.23m5.64 5.231c-1.07 0-1.94.87-1.94 1.94v1.57c0 .21.17.38.38.38h1.57c1.07 0 1.94-.87 1.94-1.94s-.88-1.95-1.95-1.95M8.5 6.988H3.86c-1.23 0-2.23 1-2.23 2.23s1 2.23 2.23 2.23H8.5c1.23 0 2.23-1 2.23-2.23s-1-2.23-2.23-2.23m.29-5.367c-1.07 0-1.94.87-1.94 1.94s.87 1.94 1.94 1.94h1.57c.21 0 .38-.17.38-.38v-1.57a1.96 1.96 0 0 0-1.95-1.93m.64 11.41c-1.23 0-2.23 1-2.23 2.23v4.64c0 1.23 1 2.23 2.23 2.23s2.23-1 2.23-2.23v-4.64c0-1.23-1-2.23-2.23-2.23m-4.07 0H3.79c-1.07 0-1.94.87-1.94 1.94s.87 1.94 1.94 1.94 1.94-.87 1.94-1.94v-1.57c0-.2-.17-.37-.37-.37m14.75-.461h-4.64c-1.23 0-2.23 1-2.23 2.23s1 2.23 2.23 2.23h4.64c1.23 0 2.23-1 2.23-2.23s-1-2.23-2.23-2.23m-4.93 5.899h-1.57a.38.38 0 0 0-.38.38v1.57c0 1.07.87 1.94 1.94 1.94s1.94-.87 1.94-1.94a1.93 1.93 0 0 0-1.93-1.95"/></svg>