<svg xmlns="http://www.w3.org/2000/svg" fill="none" viewBox="0 0 24 24"><path fill="#000" d="M12 2C6.48 2 2 6.48 2 12s4.48 10 10 10 10-4.48 10-10S17.52 2 12 2m3.42 14.58a.74.74 0 0 1-.61.31c-.15 0-.3-.05-.44-.14a5.55 5.55 0 0 0-5.27-.65.753.753 0 0 1-.97-.42.75.75 0 0 1 .42-.97c2.24-.89 4.74-.58 6.69.82.35.25.42.72.18 1.05m1.1-2.79a.74.74 0 0 1-.61.31c-.15 0-.3-.05-.44-.14a7.6 7.6 0 0 0-7.26-.89.753.753 0 0 1-.97-.42.75.75 0 0 1 .42-.97 9.08 9.08 0 0 1 8.68 1.07c.34.24.42.71.18 1.04m1.57-2.68a.74.74 0 0 1-.61.31c-.15 0-.3-.05-.44-.14-2.98-2.14-6.8-2.61-10.2-1.25a.75.75 0 0 1-.97-.42c-.15-.38.04-.82.42-.97 3.88-1.54 8.23-1.01 11.63 1.43.34.23.42.7.17 1.04"/></svg>