<svg xmlns="http://www.w3.org/2000/svg" fill="none" viewBox="0 0 24 24"><path stroke="#17191C" stroke-linecap="round" stroke-linejoin="round" stroke-miterlimit="10" stroke-width="1.5" d="M11.4 2.4 6.3 7.5c-.2.2-.2.5 0 .7L8 9.9c.2.2.5.2.7 0l5.1-5.1c.2-.2.2-.5 0-.7l-1.7-1.7c-.2-.2-.5-.2-.7 0m3.9 3.9-9 9c-.2.2-.2.5 0 .7L8 17.7c.2.2.5.2.7 0l9-9c.2-.2.2-.5 0-.7L16 6.3c-.2-.2-.5-.2-.7 0m3.9 3.9-9 9c-.2.2-.2.5 0 .7l1.7 1.7c.2.2.5.2.7 0l9-9c.2-.2.2-.5 0-.7l-1.7-1.7c-.2-.2-.5-.2-.7 0M4.1 13.8l-1.7-1.7c-.2-.2-.2-.5 0-.7l1.7-1.7c.2-.2.5-.2.7 0l1.7 1.7c.2.2.2.5 0 .7l-1.7 1.7c-.2.2-.5.2-.7 0"/></svg>