<svg xmlns="http://www.w3.org/2000/svg" fill="none" viewBox="0 0 24 24"><path stroke="#17191C" stroke-miterlimit="10" stroke-width="1.5" d="M6 9v6q0 3 3 3h6q3 0 3-3v-3c0-.6-.4-1-1-1s-1-.4-1-1V9q0-3-3-3H9Q6 6 6 9Z"/><path stroke="#17191C" stroke-linecap="round" stroke-linejoin="round" stroke-miterlimit="10" stroke-width="1.5" d="M10 10h2m-2 4h4"/><path stroke="#17191C" stroke-linecap="round" stroke-linejoin="round" stroke-width="1.5" d="M15 22H9c-5 0-7-2-7-7V9c0-5 2-7 7-7h6c5 0 7 2 7 7v6c0 5-2 7-7 7"/></svg>