<svg xmlns="http://www.w3.org/2000/svg" fill="none" viewBox="0 0 24 24"><path stroke="#17191C" stroke-linecap="round" stroke-linejoin="round" stroke-miterlimit="10" stroke-width="1.5" d="M8 2.8c1.2-.5 2.6-.8 4-.8 5.5 0 10 4.5 10 10s-4.5 10-10 10S2 17.5 2 12c0-1.4.3-2.8.8-4"/><path stroke="#17191C" stroke-linecap="round" stroke-linejoin="round" stroke-miterlimit="10" stroke-width="1.5" d="M16 16.2V12c0-2.3-1.9-4.2-4.2-4.2S7.6 9.7 7.6 12s1.9 4.2 4.2 4.2zM5 6.5a1.5 1.5 0 1 0 0-3 1.5 1.5 0 0 0 0 3"/></svg>