<svg xmlns="http://www.w3.org/2000/svg" fill="none" viewBox="0 0 24 24"><path stroke="#292D32" stroke-linecap="round" stroke-linejoin="round" stroke-miterlimit="10" stroke-width="1.5" d="m14 16.16-3.96-3.96m3.92.04L10 16.2" opacity=".4"/><path stroke="#292D32" stroke-linecap="round" stroke-linejoin="round" stroke-miterlimit="10" stroke-width="1.5" d="M10 6h4c2 0 2-1 2-2 0-2-1-2-2-2h-4C9 2 8 2 8 4s1 2 2 2"/><path stroke="#292D32" stroke-linecap="round" stroke-linejoin="round" stroke-miterlimit="10" stroke-width="1.5" d="M16 4.02c3.33.18 5 1.41 5 5.98v6c0 4-1 6-6 6H9c-5 0-6-2-6-6v-6c0-4.56 1.67-5.8 5-5.98"/></svg>