<svg xmlns="http://www.w3.org/2000/svg" fill="none" viewBox="0 0 24 24"><path stroke="#292D32" stroke-linecap="round" stroke-linejoin="round" stroke-width="1.5" d="M17.998 7.16a.6.6 0 0 0-.19 0 2.573 2.573 0 0 1-2.48-2.58c0-1.43 1.15-2.58 2.58-2.58a2.58 2.58 0 0 1 2.58 2.58 2.59 2.59 0 0 1-2.49 2.58m-1.03 7.28c1.37.23 2.88-.01 3.94-.72 1.41-.94 1.41-2.48 0-3.42-1.07-.71-2.6-.95-3.97-.71M5.967 7.16c.06-.01.13-.01.19 0a2.573 2.573 0 0 0 2.48-2.58c0-1.43-1.15-2.58-2.58-2.58a2.58 2.58 0 0 0-2.58 2.58c.01 1.4 1.11 2.53 2.49 2.58m1.031 7.28c-1.37.23-2.88-.01-3.94-.72-1.41-.94-1.41-2.48 0-3.42 1.07-.71 2.6-.95 3.97-.71" opacity=".4"/><path stroke="#292D32" stroke-linecap="round" stroke-linejoin="round" stroke-width="1.5" d="M12 14.63a.6.6 0 0 0-.19 0 2.573 2.573 0 0 1-2.48-2.58c0-1.43 1.15-2.58 2.58-2.58a2.58 2.58 0 0 1 2.58 2.58c-.01 1.4-1.11 2.54-2.49 2.58m-2.91 3.15c-1.41.94-1.41 2.48 0 3.42 1.6 1.07 4.22 1.07 5.82 0 1.41-.94 1.41-2.48 0-3.42-1.59-1.06-4.22-1.06-5.82 0"/></svg>