<svg xmlns="http://www.w3.org/2000/svg" fill="none" viewBox="0 0 24 24"><path stroke="#292D32" stroke-linecap="round" stroke-linejoin="round" stroke-width="1.5" d="M16.999 11.84h-2.68c-.71 0-1.19-.54-1.19-1.19V9.16c0-.65.48-1.19 1.19-1.19h1.49c.65 0 1.19.54 1.19 1.19zm.001 0c0 2.79-.52 3.26-2.09 4.19m-4.05-4.19H8.18c-.71 0-1.19-.54-1.19-1.19V9.16c0-.65.48-1.19 1.19-1.19h1.49c.65 0 1.19.54 1.19 1.19zm0 0c0 2.79-.52 3.26-2.09 4.19" opacity=".4"/><path stroke="#292D32" stroke-linecap="round" stroke-linejoin="round" stroke-width="1.5" d="M12 22c5.523 0 10-4.477 10-10S17.523 2 12 2 2 6.477 2 12s4.477 10 10 10"/></svg>