<svg xmlns="http://www.w3.org/2000/svg" fill="none" viewBox="0 0 24 24"><path stroke="#292D32" stroke-linecap="round" stroke-linejoin="round" stroke-width="1.5" d="M15.5 12a3.5 3.5 0 0 1-3.5 3.5 3.5 3.5 0 0 1 0-7 3.5 3.5 0 0 1 3.5 3.5"/><path stroke="#292D32" stroke-linecap="round" stroke-linejoin="round" stroke-width="1.5" d="M12 8.5V3m0 18v-5.5M10 3h4m-4 18h4M8.97 10.25 4.21 7.5m15.581 9-4.76-2.75M3.21 9.23l2-3.46m13.581 12.46 2-3.46m-1-7.27-4.76 2.75m-6.061 3.5L4.21 16.5m16.581-7.27-2-3.46M5.21 18.23l-2-3.46" opacity=".4"/></svg>