<svg xmlns="http://www.w3.org/2000/svg" fill="none" viewBox="0 0 24 24"><path stroke="#292D32" stroke-linecap="round" stroke-linejoin="round" stroke-width="1.5" d="M19.5 12.5A2.5 2.5 0 0 1 22 10V9c0-4-1-5-5-5H7C3 4 2 5 2 9v.5a2.5 2.5 0 0 1 0 5v.5c0 4 1 5 5 5h10c4 0 5-1 5-5a2.5 2.5 0 0 1-2.5-2.5"/><path stroke="#292D32" stroke-linecap="round" stroke-linejoin="round" stroke-width="1.5" d="m9 14.75 6-6" opacity=".4"/><path stroke="#292D32" stroke-linecap="round" stroke-linejoin="round" stroke-width="2" d="M14.995 14.75h.009m-6.009-5.5h.008" opacity=".4"/></svg>