<svg xmlns="http://www.w3.org/2000/svg" fill="none" viewBox="0 0 24 24"><path fill="#292D32" d="M20.89 10.53c-.41 0-.75-.34-.75-.75V6.91L12 2.84 3.86 6.91v2.87c0 .41-.34.75-.75.75s-.75-.34-.75-.75V6.44c0-.28.16-.54.42-.67l8.89-4.44c.21-.11.46-.11.67 0l8.89 4.44c.25.13.42.39.42.67v3.33c-.01.42-.35.76-.76.76M12 22.75a.7.7 0 0 1-.33-.08l-8.89-4.44a.77.77 0 0 1-.42-.67v-3.33c0-.41.34-.75.75-.75s.75.34.75.75v2.87L12 21.17l8.14-4.07v-2.87c0-.41.34-.75.75-.75s.75.34.75.75v3.33c0 .28-.16.54-.42.67l-8.89 4.44a.7.7 0 0 1-.33.08"/><path fill="#292D32" d="M16.44 12c0-2.45-1.99-4.44-4.44-4.44S7.56 9.55 7.56 12c0 2.2 1.61 4.02 3.71 4.37 0 .03-.01.05-.01.07V22c0 .41.34.75.75.75s.75-.34.75-.75v-5.56c0-.03-.01-.05-.01-.07A4.43 4.43 0 0 0 16.44 12" opacity=".4"/></svg>