<svg xmlns="http://www.w3.org/2000/svg" fill="none" viewBox="0 0 24 24"><path fill="#fff" d="M24 0H0v24h24z" opacity=".58"/><path fill="#292D32" d="M12 22c5.523 0 10-4.477 10-10S17.523 2 12 2 2 6.477 2 12s4.477 10 10 10" opacity=".4"/><path fill="#292D32" d="M11.79 6.21 9.66 9.76c-.1.17.02.38.21.38h4.26c.19 0 .31-.21.21-.38l-2.13-3.55a.244.244 0 0 0-.42 0m-3.43 6-2.13 3.55c-.1.17.02.38.21.38h4.26c.19 0 .31-.21.21-.38l-2.13-3.55a.244.244 0 0 0-.42 0m6.85 0-2.13 3.55c-.1.17.02.38.21.38h4.26c.19 0 .31-.21.21-.38l-2.13-3.55c-.08-.16-.32-.16-.42 0"/></svg>