<svg xmlns="http://www.w3.org/2000/svg" fill="none" viewBox="0 0 24 24"><path fill="#fff" d="M24 0H0v24h24z"/><path fill="#292D32" d="m11.65 2.35-5.3 5.3c-.2.2-.2.51 0 .71l1.29 1.29c.2.2.51.2.71 0l3.29-3.29c.2-.2.51-.2.71 0l3.29 3.29c.2.2.51.2.71 0l1.29-1.29c.2-.2.2-.51 0-.71l-5.29-5.29c-.19-.2-.51-.2-.7-.01m0 19.3-5.29-5.29c-.2-.2-.2-.51 0-.71l1.29-1.29c.2-.2.51-.2.71 0l3.29 3.29c.2.2.51.2.71 0l3.29-3.29c.2-.2.51-.2.71 0l1.29 1.29c.2.2.2.51 0 .71l-5.29 5.29c-.2.19-.52.19-.71 0"/><path fill="#292D32" d="m20.1 10.1 1.54 1.54c.2.2.2.51 0 .71L20.1 13.9c-.2.2-.51.2-.71 0l-1.54-1.54c-.2-.2-.2-.51 0-.71l1.54-1.54c.2-.2.52-.2.71-.01m-15.5 0 1.54 1.54c.2.2.2.51 0 .71L4.6 13.9c-.2.2-.51.2-.71 0l-1.54-1.54c-.2-.2-.2-.51 0-.71L3.9 10.1c.19-.19.51-.19.7 0m7.75-.22 1.77 1.77c.2.2.2.51 0 .71l-1.77 1.77c-.2.2-.51.2-.71 0l-1.77-1.77c-.2-.2-.2-.51 0-.71l1.77-1.77c.2-.2.52-.2.71 0" opacity=".4"/></svg>