<svg xmlns="http://www.w3.org/2000/svg" fill="none" viewBox="0 0 24 24"><path fill="#292D32" d="m6.9 9.1 4.77-2.12c.21-.09.45-.09.65 0L17.1 9.1c.42.19.81-.32.52-.68l-5-6.11c-.34-.42-.9-.42-1.24 0l-5 6.11c-.29.36.1.87.52.68m0 5.8 4.78 2.12c.21.09.45.09.65 0l4.78-2.12c.42-.19.81.32.52.68l-5 6.11c-.34.42-.9.42-1.24 0l-5-6.11c-.3-.36.08-.87.51-.68" opacity=".4"/><path fill="#292D32" d="m11.78 9.49-4.13 2.06c-.37.18-.37.71 0 .89l4.13 2.06c.14.07.31.07.45 0l4.13-2.06c.37-.18.37-.71 0-.89l-4.13-2.06a.5.5 0 0 0-.45 0"/></svg>