<svg xmlns="http://www.w3.org/2000/svg" fill="none" viewBox="0 0 24 24"><path fill="#fff" d="M24 0H0v24h24z"/><path fill="#292D32" d="M22 12c0 2.76-2.24 5-5 5 0-2.76-2.24-5-5-5 2.76 0 5-2.24 5-5 2.76 0 5 2.24 5 5" opacity=".4"/><path fill="#292D32" d="M17 17c-2.76 0-5-2.24-5-5 2.76 0 5 2.24 5 5"/><path fill="#292D32" d="M17 17c0 2.76-2.24 5-5 5s-5-2.24-5-5c2.76 0 5-2.24 5-5 0 2.76 2.24 5 5 5" opacity=".4"/><path fill="#292D32" d="M17 7c0 2.76-2.24 5-5 5 0-2.76 2.24-5 5-5"/><path fill="#292D32" d="M17 7c-2.76 0-5 2.24-5 5 0-2.76-2.24-5-5-5 0-2.76 2.24-5 5-5s5 2.24 5 5" opacity=".4"/><path fill="#292D32" d="M12 12c0 2.76-2.24 5-5 5 0-2.76 2.24-5 5-5m0 0c-2.76 0-5-2.24-5-5 2.76 0 5 2.24 5 5"/><path fill="#292D32" d="M12 12c-2.76 0-5 2.24-5 5-2.76 0-5-2.24-5-5s2.24-5 5-5c0 2.76 2.24 5 5 5" opacity=".4"/></svg>