<svg xmlns="http://www.w3.org/2000/svg" fill="none" viewBox="0 0 24 24"><path fill="#fff" d="M24 0H0v24h24z"/><path fill="#292D32" d="M20 3.5H5.5c-.31 0-.61.15-.8.4l-1.5 2c-.49.66-.02 1.6.8 1.6h14.5c.31 0 .61-.15.8-.4l1.5-2c.49-.66.02-1.6-.8-1.6"/><path fill="#292D32" d="M4 10h14.5c.31 0 .61.15.8.4l1.5 2c.49.66.02 1.6-.8 1.6H5.5c-.31 0-.61-.15-.8-.4l-1.5-2c-.49-.66-.02-1.6.8-1.6" opacity=".4"/><path fill="#292D32" d="M20 16.5H5.5c-.31 0-.61.15-.8.4l-1.5 2c-.49.66-.02 1.6.8 1.6h14.5c.31 0 .61-.15.8-.4l1.5-2c.49-.66.02-1.6-.8-1.6"/></svg>