<svg xmlns="http://www.w3.org/2000/svg" fill="none" viewBox="0 0 24 24"><path fill="#292D32" fill-rule="evenodd" d="M5.04 2H20.5c.55 0 1 .45 1 1v10.59c0 .27-.11.52-.29.71l-4.41 4.41a1 1 0 0 1-.71.29h-4.05c-.33 0-.65.17-.83.45L9.8 21.56c-.19.28-.5.45-.83.45H7.51c-.55 0-1-.45-1-1v-1c0-.55-.45-1-1-1h-2c-.55 0-1-.45-1-1V5.31c0-.2.06-.39.17-.55l1.54-2.3A.94.94 0 0 1 5.04 2" clip-rule="evenodd" opacity=".4"/><path fill="#292D32" fill-rule="evenodd" d="M8.5 7.14v5.71c0 .32.26.57.57.57h1.14c.32 0 .57-.26.57-.57V7.14a.57.57 0 0 0-.57-.57H9.07c-.31 0-.57.26-.57.57m5.71 0v5.71c0 .32.26.57.57.57h1.14c.32 0 .57-.26.57-.57V7.14a.57.57 0 0 0-.57-.57h-1.14c-.31 0-.57.26-.57.57" clip-rule="evenodd"/></svg>