<svg xmlns="http://www.w3.org/2000/svg" fill="none" viewBox="0 0 24 24"><path fill="#292D32" d="M14.95 8.29a.5.5 0 0 0-.45-.28h-5c-.19 0-.36.11-.45.28a.47.47 0 0 0 .05.52l2.5 3.33c.09.13.24.2.4.2s.31-.07.4-.2l2.5-3.33a.51.51 0 0 0 .05-.52"/><path fill="#292D32" d="M12 22c5.523 0 10-4.477 10-10S17.523 2 12 2 2 6.477 2 12s4.477 10 10 10" opacity=".4"/><path fill="#292D32" d="M12 17.75c-.24 0-.47-.12-.61-.31l-5-7a.76.76 0 0 1 .17-1.05.76.76 0 0 1 1.05.17L12 15.71l4.39-6.15c.24-.34.71-.42 1.05-.17.34.24.42.71.17 1.05l-5 7c-.14.19-.37.31-.61.31"/></svg>