<svg xmlns="http://www.w3.org/2000/svg" fill="none" viewBox="0 0 24 24"><path fill="#292D32" fill-rule="evenodd" d="m20.8 2.24-8 1.6c-.47.09-.8.5-.8.98V10c0 .55.45 1 1 1h8c.55 0 1-.45 1-1V3.22c0-.63-.58-1.1-1.2-.98" clip-rule="evenodd" opacity=".4"/><path fill="#292D32" fill-rule="evenodd" d="m20.8 21.76-8-1.6c-.47-.09-.8-.5-.8-.98V14c0-.55.45-1 1-1h8c.55 0 1 .45 1 1v6.78c0 .63-.58 1.1-1.2.98M8.79 4.56l-6 1.28c-.46.1-.79.51-.79.98V10c0 .55.45 1 1 1h6c.55 0 1-.45 1-1V5.53c0-.63-.59-1.11-1.21-.97" clip-rule="evenodd"/><path fill="#292D32" fill-rule="evenodd" d="m8.79 19.44-6-1.28c-.46-.1-.79-.51-.79-.98V14c0-.55.45-1 1-1h6c.55 0 1 .45 1 1v4.47c0 .63-.59 1.11-1.21.97" clip-rule="evenodd" opacity=".4"/></svg>