<svg xmlns="http://www.w3.org/2000/svg" fill="none" viewBox="0 0 24 24"><path fill="#292D32" d="M12 22c5.523 0 10-4.477 10-10S17.523 2 12 2 2 6.477 2 12s4.477 10 10 10" opacity=".4"/><path fill="#292D32" fill-rule="evenodd" d="M6.25 9.68v2.8c0 1.54 1.25 2.78 2.79 2.77l3.68-.03c.51 0 .92-.42.92-.92v-2.77a2.77 2.77 0 0 0-2.77-2.77H7.18a.92.92 0 0 0-.93.92m11.5.34V14c0 .43-.48.69-.84.45l-1.92-1.28a.54.54 0 0 1-.24-.45V11.3c0-.18.09-.35.24-.45l1.92-1.28c.36-.24.84.02.84.45" clip-rule="evenodd"/></svg>