<svg xmlns="http://www.w3.org/2000/svg" fill="none" viewBox="0 0 24 24"><path stroke="#292D32" stroke-linecap="round" stroke-linejoin="round" stroke-width="1.5" d="m12.2 11.8-1.41 1.41c-.78.78-.78 2.05 0 2.83s2.05.78 2.83 0l2.22-2.22a4.01 4.01 0 0 0 0-5.66 4.01 4.01 0 0 0-5.66 0l-2.42 2.42a3.43 3.43 0 0 0 0 4.85"/><path stroke="#292D32" stroke-linecap="round" stroke-linejoin="round" stroke-width="1.5" d="M4 6c-1.25 1.67-2 3.75-2 6 0 5.52 4.48 10 10 10s10-4.48 10-10S17.52 2 12 2c-1.43 0-2.8.3-4.03.85"/></svg>