<svg xmlns="http://www.w3.org/2000/svg" fill="none" viewBox="0 0 24 24"><path stroke="#292D32" stroke-linecap="round" stroke-linejoin="round" stroke-width="1.5" d="M9.87 5.67 6.45 7.75 4.89 5.19a2.01 2.01 0 0 1 .67-2.75 2.01 2.01 0 0 1 2.75.67zM9.2 20.44c.66 1.35 2.26 1.82 3.54 1.03l6.43-3.91c1.29-.78 1.6-2.41.71-3.62l-2.77-3.74c-1.2-1.61-3.46-2.16-5.29-1.04l-3.16 1.92a3.98 3.98 0 0 0-1.51 5.18"/><path stroke="#292D32" stroke-linecap="round" stroke-linejoin="round" stroke-width="1.5" d="m10.757 5.098-5.124 3.12 2.08 3.417 5.125-3.12zM14.31 16.81l1.65 2.71m-4.21-1.15 1.65 2.71m3.47-5.83 1.65 2.71"/></svg>