<svg xmlns="http://www.w3.org/2000/svg" fill="none" viewBox="0 0 24 24"><path stroke="#292D32" stroke-linecap="round" stroke-linejoin="round" stroke-width="1.5" d="M22 12c0-5.52-4.48-10-10-10S2 6.48 2 12s4.48 10 10 10"/><path stroke="#292D32" stroke-linecap="round" stroke-linejoin="round" stroke-width="1.5" d="M8 3h1a28.42 28.42 0 0 0 0 18H8m7-18c.97 2.92 1.46 5.96 1.46 9"/><path stroke="#292D32" stroke-linecap="round" stroke-linejoin="round" stroke-width="1.5" d="M3 16v-1c2.92.97 5.96 1.46 9 1.46M21 9c-2.92-.97-5.96-1.46-9-1.46M3 9c1.59-.53 3.21-.91 4.85-1.16M18.2 21.4a3.2 3.2 0 1 0 0-6.4 3.2 3.2 0 0 0 0 6.4m3.8.6-1-1"/></svg>