<svg xmlns="http://www.w3.org/2000/svg" fill="none" viewBox="0 0 24 24"><path stroke="#292D32" stroke-linecap="round" stroke-linejoin="round" stroke-miterlimit="10" stroke-width="1.5" d="M12 12 3.33 7.02C2.49 8.49 2 10.19 2 12c0 5.52 4.48 10 10 10s10-4.48 10-10c0-2.05-.62-3.96-1.68-5.54M6 4a9.99 9.99 0 0 1 11.13-.58"/><path stroke="#292D32" stroke-linecap="round" stroke-linejoin="round" stroke-miterlimit="10" stroke-width="1.5" d="M6.83 8.96A5.9 5.9 0 0 0 6 12c0 3.31 2.69 6 6 6s6-2.69 6-6-2.69-6-6-6c-.91 0-1.78.2-2.55.57"/></svg>