<svg xmlns="http://www.w3.org/2000/svg" fill="none" viewBox="0 0 24 24"><path stroke="#292D32" stroke-linecap="round" stroke-linejoin="round" stroke-width="1.5" d="M18.97 22h-14c-3 0-3-1.35-3-3v-1c0-.55.45-1 1-1h18c.55 0 1 .45 1 1v1c0 1.65 0 3-3 3M4.62 8.56A8.02 8.02 0 0 1 11.27 5h1.45c.58 0 1.15.06 1.69.18 3.61.78 6.31 3.98 6.31 7.82v4H3.27v-4"/><path stroke="#292D32" stroke-linecap="round" stroke-linejoin="round" stroke-width="1.5" d="M14.5 4.5c0 .24-.03.46-.09.68-.54-.12-1.11-.18-1.69-.18h-1.45q-.87 0-1.68.18c-.06-.22-.09-.44-.09-.68a2.5 2.5 0 0 1 5 0M15 11H9"/></svg>