<svg xmlns="http://www.w3.org/2000/svg" width="24" height="24" fill="none"><path stroke="#292D32" stroke-linecap="round" stroke-linejoin="round" stroke-width="1.5" d="M12.55 12.92a2.206 2.206 0 0 1-2.68-2.68 2.205 2.205 0 0 1 4.32.26M7.64 3.15a8.78 8.78 0 0 0-4.43 7.64c0 2.54 1.08 4.83 2.81 6.43m11.99-.03a8.73 8.73 0 0 0 2.78-6.4A8.79 8.79 0 0 0 12 2"/><path stroke="#292D32" stroke-linecap="round" stroke-linejoin="round" stroke-width="1.5" d="M8 14.55c-.92-.98-1.49-2.3-1.49-3.76C6.51 7.76 8.97 5.3 12 5.3s5.49 2.46 5.49 5.49c0 1.46-.57 2.77-1.49 3.76m-5.7 2.11-1.44 1.79c-1.14 1.43-.13 3.54 1.7 3.54h2.87c1.83 0 2.85-2.12 1.7-3.54l-1.44-1.79c-.86-1.09-2.52-1.09-3.39 0"/></svg>