<svg xmlns="http://www.w3.org/2000/svg" fill="none" viewBox="0 0 24 24"><path stroke="#292D32" stroke-linecap="round" stroke-linejoin="round" stroke-width="1.5" d="M2 13v2c0 5 2 7 7 7h6c5 0 7-2 7-7V9c0-5-2-7-7-7H9C4 2 2 4 2 9"/><path stroke="#292D32" stroke-linecap="round" stroke-linejoin="round" stroke-width="1.5" d="M18 7.75v6.75c0-1.1-.9-2-2-2H8c-1.1 0-2 .9-2 2V7.75c0-1.1.9-2 2-2h8c1.1 0 2 .9 2 2m1 8h-1m-12 0H5"/><path stroke="#292D32" stroke-linecap="round" stroke-linejoin="round" stroke-width="1.5" d="M18 14v-3c0-1.1-.9-2-2-2H8c-1.1 0-2 .9-2 2v3"/><path stroke="#292D32" stroke-linecap="round" stroke-linejoin="round" stroke-width="1.5" d="M18 14.5v1.25h-3.5a2.5 2.5 0 0 1-5 0H6V14.5c0-1.1.9-2 2-2h8c1.1 0 2 .9 2 2"/></svg>