<svg xmlns="http://www.w3.org/2000/svg" fill="none" viewBox="0 0 24 24"><path stroke="#292D32" stroke-linecap="round" stroke-linejoin="round" stroke-width="1.5" d="M20 8c0-2 0-3-3-3h-1m-6 11c0-1.66 0-3 3-3h4c2.03 0 2.68-.46 2.9-1.37M12 2H8a9.48 9.48 0 0 0 0 6h4c.65-1.95.65-4.05 0-6"/><path stroke="#292D32" stroke-linecap="round" stroke-linejoin="round" stroke-width="1.5" d="M8 2H7Q4 2 4 5t3 3h1Q6.5 5 8 2m5 0h-1q1.5 3 0 6h1q3 0 3-3t-3-3M9.5 22h1c1.5 0 1.5-1 1.5-1.5v-3c0-.5 0-1.5-1.5-1.5h-1C8 16 8 17 8 17.5v3C8 21 8 22 9.5 22"/></svg>