<svg xmlns="http://www.w3.org/2000/svg" fill="none" viewBox="0 0 24 24"><path stroke="#292D32" stroke-linecap="round" stroke-linejoin="round" stroke-miterlimit="10" stroke-width="1.5" d="m9.69 3.29 7.35 7.35c.37.37.37.97 0 1.34L11.02 18c-1.34 1.34-2.67 1.34-4.01 0L3 13.99c-1.34-1.34-1.34-2.67 0-4.01l4.31-4.31m1.04-3.72 1.34 1.34m-7.62 8.63 15.12-.66M3 22h7m3 0h3"/><path stroke="#292D32" stroke-linecap="round" stroke-linejoin="round" stroke-width="1.5" d="M18.85 15S17 17.01 17 18.24c0 1.02.83 1.85 1.85 1.85s1.85-.83 1.85-1.85c0-1.23-1.85-3.24-1.85-3.24"/></svg>