<svg xmlns="http://www.w3.org/2000/svg" width="24" height="24" fill="none" viewBox="0 0 24 24"><path stroke="#292D32" stroke-linecap="round" stroke-linejoin="round" stroke-width="1.5" d="M3 12.97V15c0 5 2 7 7 7h4c5 0 7-2 7-7V9c0-5-2-7-7-7h-4C5 2 3 4 3 9"/><path stroke="#292D32" stroke-linecap="round" stroke-linejoin="round" stroke-width="1.5" d="M16.5 7.58v1c0 .82-.67 1.5-1.5 1.5H9c-.82 0-1.5-.67-1.5-1.5v-1c0-.82.67-1.5 1.5-1.5h6c.83 0 1.5.67 1.5 1.5"/><path stroke="#292D32" stroke-linecap="round" stroke-linejoin="round" stroke-width="2" d="M8.136 14h.012m3.848 0h.011m3.848 0h.011m-7.73 3.5h.012m3.848 0h.011m3.848 0h.011"/></svg>