<svg xmlns="http://www.w3.org/2000/svg" width="24" height="24" fill="none"><path stroke="#292D32" stroke-linecap="round" stroke-linejoin="round" stroke-miterlimit="10" stroke-width="1.5" d="M6 10.03h15.9"/><path stroke="#292D32" stroke-linecap="round" stroke-linejoin="round" stroke-width="1.5" d="M11.46 20.53H6.35c-3.55 0-4.45-.88-4.45-4.39V7.92c0-3.18.74-4.2 3.53-4.36.28-.01.59-.02.92-.02h11.11c3.55 0 4.45.88 4.45 4.39v4.41"/><path stroke="#292D32" stroke-linecap="round" stroke-linejoin="round" stroke-miterlimit="10" stroke-width="1.5" d="M17.9 22.03a4 4 0 1 0 0-8 4 4 0 0 0 0 8m1.07-2.88-2.11-2.12m2.09.03-2.12 2.11M5.9 16.03h4"/></svg>