<svg xmlns="http://www.w3.org/2000/svg" width="24" height="24" fill="none" viewBox="0 0 24 24"><path stroke="#292D32" stroke-linecap="round" stroke-linejoin="round" stroke-width="1.5" d="M22 13V9c0-5-2-7-7-7H9C4 2 2 4 2 9v6c0 5 2 7 7 7h4"/><path stroke="#292D32" stroke-linecap="round" stroke-linejoin="round" stroke-width="1.5" d="M22 13V9c0-5-2-7-7-7H9C4 2 2 4 2 9v6c0 5 2 7 7 7h4M7 10.74v3.2m10-3.2v3.2"/><path stroke="#292D32" stroke-linecap="round" stroke-linejoin="round" stroke-width="1.5" d="M2 13v2c0 5 2 7 7 7h4m9-9V9c0-5-2-7-7-7H9C4 2 2 4 2 9m14 10.43L17.58 21 21 17m-9-6.5v3"/></svg>