<svg xmlns="http://www.w3.org/2000/svg" width="24" height="24" fill="none"><path stroke="#292D32" stroke-linecap="round" stroke-linejoin="round" stroke-width="1.509" d="M15.72 9.69a5.25 5.25 0 0 0-7.44 0 5.25 5.25 0 0 0 0 7.44 5.25 5.25 0 0 0 7.44 0 5.23 5.23 0 0 0 1.54-3.72m-5.26 0L10.41 15"/><path stroke="#292D32" stroke-miterlimit="10" d="M19.07 6.34c.15.15.15.4 0 .56-.15.15-.4.15-.56 0s-.15-.4 0-.56.41-.16.56 0Z"/><path stroke="#292D32" stroke-linecap="round" stroke-linejoin="round" stroke-width="1.5" d="M19.07 6.34c.15.15.15.4 0 .56-.15.15-.4.15-.56 0s-.15-.4 0-.56.41-.16.56 0"/><path stroke="#292D32" stroke-miterlimit="10" d="M5.49 19.92c.15.15.15.4 0 .56s-.4.15-.56 0a.405.405 0 0 1 0-.56c.15-.16.41-.16.56 0Z"/><path stroke="#292D32" stroke-linecap="round" stroke-linejoin="round" stroke-width="1.5" d="M5.49 19.92c.15.15.15.4 0 .56s-.4.15-.56 0a.405.405 0 0 1 0-.56c.15-.16.41-.16.56 0"/><path stroke="#292D32" stroke-miterlimit="10" d="M21.88 13.13c.15.15.15.4 0 .56-.15.15-.4.15-.56 0s-.15-.4 0-.56.41-.16.56 0Z"/><path stroke="#292D32" stroke-linecap="round" stroke-linejoin="round" stroke-width="1.5" d="M21.88 13.13c.15.15.15.4 0 .56-.15.15-.4.15-.56 0s-.15-.4 0-.56.41-.16.56 0"/><path stroke="#292D32" stroke-miterlimit="10" d="M2.67 13.13c.15.15.15.4 0 .56s-.4.15-.56 0a.405.405 0 0 1 0-.56c.16-.16.41-.16.56 0Z"/><path stroke="#292D32" stroke-linecap="round" stroke-linejoin="round" stroke-width="1.5" d="M2.67 13.13c.15.15.15.4 0 .56s-.4.15-.56 0a.405.405 0 0 1 0-.56c.16-.16.41-.16.56 0"/><path stroke="#292D32" stroke-miterlimit="10" d="M19.07 19.92c.15.15.15.4 0 .56-.15.15-.4.15-.56 0s-.15-.4 0-.56c.16-.16.41-.16.56 0Z"/><path stroke="#292D32" stroke-linecap="round" stroke-linejoin="round" stroke-width="1.5" d="M19.07 19.92c.15.15.15.4 0 .56-.15.15-.4.15-.56 0s-.15-.4 0-.56c.16-.16.41-.16.56 0"/><path stroke="#292D32" stroke-miterlimit="10" d="M5.49 6.34c.15.15.15.4 0 .56s-.4.15-.56 0a.405.405 0 0 1 0-.56c.15-.16.41-.16.56 0Z"/><path stroke="#292D32" stroke-linecap="round" stroke-linejoin="round" stroke-width="1.5" d="M5.49 6.34c.15.15.15.4 0 .56s-.4.15-.56 0a.405.405 0 0 1 0-.56c.15-.16.41-.16.56 0"/><path stroke="#292D32" stroke-miterlimit="10" d="M12.28 3.52c.15.15.15.4 0 .56s-.4.15-.56 0-.15-.4 0-.56.41-.15.56 0Z"/><path stroke="#292D32" stroke-linecap="round" stroke-linejoin="round" stroke-width="1.5" d="M12.28 3.52c.15.15.15.4 0 .56s-.4.15-.56 0-.15-.4 0-.56.41-.15.56 0"/></svg>