<svg xmlns="http://www.w3.org/2000/svg" width="24" height="24" fill="none" viewBox="0 0 24 24"><path stroke="#292D32" stroke-linecap="round" stroke-linejoin="round" stroke-width="1.5" d="M10 17.5h4m-12 0v-10c0-4 1-5 5-5m15 15v-10c0-4-1-5-5-5"/><path stroke="#292D32" stroke-linecap="round" stroke-linejoin="round" stroke-width="1.5" d="M10 15.91v3.29c0 2-.8 2.8-2.8 2.8H4.8c-2 0-2.8-.8-2.8-2.8v-3.29c0-2 .8-2.8 2.8-2.8h2.4m14.8 2.8v3.29c0 2-.8 2.8-2.8 2.8h-2.4c-2 0-2.8-.8-2.8-2.8v-3.29c0-2 .8-2.8 2.8-2.8h2.4c2 0 2.8.8 2.8 2.8"/></svg>