<svg xmlns="http://www.w3.org/2000/svg" width="24" height="24" fill="none"><path stroke="#292D32" stroke-linecap="round" stroke-linejoin="round" stroke-width="1.5" d="M2 12.22C1.89 6.6 6.33 2.05 11.95 2.05S22 6.6 22 12.11v6.16c0 1.95-1.62 3.57-3.57 3.57s-3.57-1.62-3.57-3.57v-2.81c0-.97.76-1.84 1.84-1.84.97 0 1.84.76 1.84 1.84v3.03"/><path stroke="#292D32" stroke-linecap="round" stroke-linejoin="round" stroke-width="1.5" d="M5.46 18.49v-2.92c0-.97.76-1.84 1.84-1.84.97 0 1.84.76 1.84 1.84v2.81c0 1.95-1.62 3.57-3.57 3.57S2 20.32 2 18.38V16"/></svg>