<svg xmlns="http://www.w3.org/2000/svg" width="24" height="24" fill="none" viewBox="0 0 24 24"><path stroke="#292D32" stroke-linecap="round" stroke-linejoin="round" stroke-width="1.5" d="M2 13.02V15c0 5 2 7 7 7h6c5 0 7-2 7-7V9c0-5-2-7-7-7H9C4 2 2 4 2 9m5.8 1.2v4.2"/><path stroke="#292D32" stroke-linecap="round" stroke-linejoin="round" stroke-width="1.5" d="M7.95 9.9a1.95 1.95 0 1 0 0-3.9 1.95 1.95 0 0 0 0 3.9M7.8 18a1.8 1.8 0 1 0 0-3.6 1.8 1.8 0 0 0 0 3.6m8.4 0a1.8 1.8 0 1 0 0-3.6 1.8 1.8 0 0 0 0 3.6"/><path stroke="#292D32" stroke-linecap="round" stroke-linejoin="round" stroke-width="1.5" d="M7.88 10.2a2.425 2.425 0 0 0 2.36 1.82l2.06-.01c1.57-.01 2.91 1 3.4 2.41"/></svg>