<svg xmlns="http://www.w3.org/2000/svg" width="24" height="24" fill="none" viewBox="0 0 24 24"><path stroke="#292D32" stroke-linecap="round" stroke-linejoin="round" stroke-width="1.5" d="M2 12c0 2.76 1.12 5.26 2.93 7.07L19.07 4.93A9.97 9.97 0 0 0 12 2C8.07 2 4.67 4.27 3.03 7.57"/><path stroke="#292D32" stroke-linecap="round" stroke-linejoin="round" stroke-width="1.5" d="M22 12c0 5.52-4.48 10-10 10-2.76 0-5.26-1.12-7.07-2.93L19.07 4.93A9.97 9.97 0 0 1 22 12M7.76 16.24l5.65 5.66m-2.12-9.19 6.58 6.57M14.83 9.17l6.29 6.3"/></svg>