<svg xmlns="http://www.w3.org/2000/svg" width="24" height="24" fill="none" viewBox="0 0 24 24"><path stroke="#292D32" stroke-linecap="round" stroke-linejoin="round" stroke-miterlimit="10" stroke-width="1.5" d="M9 17.5q0 .48-.12.93c-.09.4-.25.79-.46 1.13A3.97 3.97 0 0 1 5 21.5a3.92 3.92 0 0 1-2.66-1.03c-.3-.26-.56-.57-.76-.91A3.9 3.9 0 0 1 1 17.5a3.995 3.995 0 0 1 4-4c1.18 0 2.25.51 2.97 1.33.64.71 1.03 1.65 1.03 2.67m-2.51-.02H3.51M5 16.02v2.99m3.5-8.51h7"/><path stroke="#292D32" stroke-linecap="round" stroke-linejoin="round" stroke-miterlimit="10" stroke-width="1.5" d="M22 11.54v1.89c0 1.5-.5 2.75-1.38 3.63-.87.87-2.12 1.37-3.62 1.37v2.13c0 .8-.89 1.28-1.55.84L11 18.43H8.88q.12-.45.12-.93c0-1.02-.39-1.96-1.03-2.67A3.94 3.94 0 0 0 5 13.5c-1.12 0-2.14.46-2.87 1.21-.09-.4-.13-.83-.13-1.28v-6c0-3 2-5 5-5h10c3 0 5 2 5 5"/></svg>