<svg xmlns="http://www.w3.org/2000/svg" width="24" height="24" fill="none" viewBox="0 0 24 24"><path stroke="#292D32" stroke-linecap="round" stroke-linejoin="round" stroke-miterlimit="10" stroke-width="1.5" d="M2 8q0-6 6-6h6m8 8v3q0 6-6 6h-.5c-.31 0-.61.15-.8.4l-1.5 2c-.66.88-1.74.88-2.4 0l-1.5-2c-.16-.22-.53-.4-.8-.4H8c-4 0-6-1-6-6v-1"/><path stroke="#292D32" stroke-linecap="round" stroke-linejoin="round" stroke-width="1.5" d="M22 4.5a2.5 2.5 0 0 0-5 0A2.5 2.5 0 0 0 19.5 7"/><path stroke="#292D32" stroke-linecap="round" stroke-linejoin="round" stroke-width="2" d="M15.997 11h.008m-4.01 0h.009m-4.009 0h.008"/></svg>