<svg xmlns="http://www.w3.org/2000/svg" width="24" height="24" fill="none"><path stroke="#292D32" stroke-linecap="round" stroke-linejoin="round" stroke-miterlimit="10" stroke-width="1.5" d="M13.2 21.37c-.66.88-1.74.88-2.4 0l-1.5-2c-.17-.22-.53-.4-.8-.4H8c-4 0-6-1-6-6v-5q0-6 6-6h8q6 0 6 6v5"/><path stroke="#292D32" stroke-linecap="round" stroke-linejoin="round" stroke-width="1.5" d="M21.4 18.2c0 1.77-1.43 3.2-3.2 3.2S15 19.97 15 18.2s1.43-3.2 3.2-3.2m3.8 7-1-1"/><path stroke="#292D32" stroke-linecap="round" stroke-linejoin="round" stroke-width="2" d="M15.997 11h.008m-4.01 0h.009m-4.009 0h.008"/></svg>