<svg xmlns="http://www.w3.org/2000/svg" width="24" height="24" fill="none"><path stroke="#292D32" stroke-linecap="round" stroke-linejoin="round" stroke-width="1.5" d="M2 9c0-5 2-7 7-7h6c5 0 7 2 7 7v6c0 5-2 7-7 7H9c-5 0-7-2-7-7v-1.41M7 2.5v19"/><path stroke="#292D32" stroke-linecap="round" stroke-linejoin="round" stroke-width="1.5" d="M11.47 16.8a1.49 1.49 0 1 0 0-2.98 1.49 1.49 0 0 0 0 2.98"/><path stroke="#292D32" stroke-linecap="round" stroke-linejoin="round" stroke-width="1.5" d="M18.43 14.31V8.48c0-1.24-.78-1.41-1.57-1.2l-2.98.81c-.54.15-.92.58-.92 1.2v6.01"/><path stroke="#292D32" stroke-linecap="round" stroke-linejoin="round" stroke-width="1.5" d="M16.931 15.8a1.49 1.49 0 1 0 0-2.98 1.49 1.49 0 0 0 0 2.98m-3.971-4.76 5.47-1.49"/></svg>