<svg xmlns="http://www.w3.org/2000/svg" width="24" height="24" fill="none"><path stroke="#292D32" stroke-linecap="round" stroke-linejoin="round" stroke-width="1.5" d="M10.751 22.5h2.52c.96 0 1.58-.68 1.4-1.51l-.41-1.81h-4.5l-.41 1.81c-.18.78.5 1.51 1.4 1.51m3.469-9.83-1.05-1.33c-.64-.81-1.69-.81-2.33 0l-3.05 3.87c-.77.97-.77 1.6.24 2.43l1.73 1.54m4.502-.01 1.73-1.54c.97-.86 1.01-1.46.24-2.43m-4.22-4.08v2.53M12.52 5h-1c-.55 0-1-.45-1-1V3c0-.55.45-1 1-1h1c.55 0 1 .45 1 1v1c0 .55-.45 1-1 1m-9.25 9.17h1c.55 0 1-.45 1-1v-1c0-.55-.45-1-1-1h-1c-.55 0-1 .45-1 1v1c0 .55.45 1 1 1m17.46 0h-1c-.55 0-1-.45-1-1v-1c0-.55.45-1 1-1h1c.55 0 1 .45 1 1v1c0 .55-.45 1-1 1m-16.98-3c0-1.97.74-3.76 1.96-5.12m4.81-2.49a8.2 8.2 0 0 0-1.85.45"/><path stroke="#292D32" stroke-linecap="round" stroke-linejoin="round" stroke-width="1.5" d="M20.25 11.17c0-3.92-2.94-7.14-6.73-7.61"/></svg>