<svg xmlns="http://www.w3.org/2000/svg" width="24" height="24" fill="none"><path stroke="#292D32" stroke-linecap="round" stroke-linejoin="round" stroke-miterlimit="10" stroke-width="1.5" d="M7.25 7h9.5V5c0-2-.75-3-3-3h-3.5c-2.25 0-3 1-3 3zm5.72 8H16v4q0 3-3 3h-2c-1.69 0-2.67-.71-2.93-2.14"/><path stroke="#292D32" stroke-linecap="round" stroke-linejoin="round" stroke-miterlimit="10" stroke-width="1.5" d="M6 18q-3 0-3-3v-5q0-3 3-3h10.59M21 14v1q0 3-3 3h-2v-3h-3m6.97-7.48C20.66 8 21 8.83 21 10m-4 5h-1.21M7 11h2"/><path stroke="#292D32" stroke-linecap="round" stroke-linejoin="round" stroke-width="1.5" d="M22 2 2 22"/></svg>