<svg xmlns="http://www.w3.org/2000/svg" width="24" height="24" fill="none" viewBox="0 0 24 24"><path stroke="#292D32" stroke-width="1.5" d="M5.47 9a3.5 3.5 0 1 0 0-7 3.5 3.5 0 0 0 0 7Z"/><path stroke="#292D32" stroke-linecap="round" stroke-linejoin="round" stroke-width="1.5" d="M19.97 22h-3c-1.1 0-2-.9-2-2v-3c0-1.1.9-2 2-2h3c1.1 0 2 .9 2 2v2M12.002 5h2.68c1.85 0 2.71 2.29 1.32 3.51l-7.99 6.99c-1.39 1.21-.53 3.5 1.31 3.5h2.68"/><path stroke="#292D32" stroke-linecap="round" stroke-linejoin="round" stroke-width="2" d="M5.488 5.5h.011m12.989 13h.011"/></svg>