<svg xmlns="http://www.w3.org/2000/svg" width="24" height="24" fill="none" viewBox="0 0 24 24"><path stroke="#292D32" stroke-linecap="round" stroke-linejoin="round" stroke-width="1.5" d="M2 13.01V15c0 5 2 7 7 7h6c5 0 7-2 7-7V9c0-5-2-7-7-7H9C4 2 2 4 2 9"/><path stroke="#292D32" stroke-linecap="round" stroke-linejoin="round" stroke-miterlimit="10" stroke-width="1.5" d="M15.57 18.5v-3.9m0-7.15V5.5m-2.59 4.55c0-1.44 1.16-2.6 2.6-2.6s2.6 1.16 2.6 2.6-1.16 2.6-2.6 2.6M8.43 18.5v-1.95m0-7.15V5.5m0 11.05a2.6 2.6 0 1 0 0-5.2 2.6 2.6 0 0 0 0 5.2"/></svg>