<svg xmlns="http://www.w3.org/2000/svg" width="24" height="24" fill="none" viewBox="0 0 24 24"><path stroke="#292D32" stroke-linecap="round" stroke-linejoin="round" stroke-miterlimit="10" stroke-width="1.5" d="M2 8.5c0-3.5 2-5 5-5h10c3 0 5 1.5 5 5v3m-10 9H7c-3 0-5-1.5-5-5v-3.06"/><path stroke="#292D32" stroke-linecap="round" stroke-linejoin="round" stroke-miterlimit="10" stroke-width="1.5" d="m17 9-3.13 2.5c-1.03.82-2.72.82-3.75 0L7 9"/><path stroke="#292D32" stroke-linecap="round" stroke-linejoin="round" stroke-width="1.5" d="M18.2 21.4a3.2 3.2 0 1 0 0-6.4 3.2 3.2 0 0 0 0 6.4m3.8.6-1-1"/></svg>