<svg xmlns="http://www.w3.org/2000/svg" width="24" height="24" fill="none" viewBox="0 0 24 24"><path fill="#292D32" d="M12 22c5.523 0 10-4.477 10-10S17.523 2 12 2 2 6.477 2 12s4.477 10 10 10" opacity=".4"/><path fill="#292D32" d="M12.2 17.38a2.75 2.75 0 0 1-2.75-2.74c0-.73.29-1.43.81-1.94l1.41-1.41c.29-.29.77-.29 1.06 0s.29.77 0 1.06l-1.41 1.41a1.234 1.234 0 0 0 0 1.76c.49.49 1.28.49 1.77 0l2.22-2.22a3.253 3.253 0 0 0-4.6-4.6l-2.42 2.42a2.657 2.657 0 0 0 0 3.78c.29.29.29.77 0 1.06s-.77.29-1.06 0A4.15 4.15 0 0 1 6.01 13c0-1.12.43-2.17 1.22-2.96l2.42-2.42a4.76 4.76 0 0 1 6.72 0 4.76 4.76 0 0 1 0 6.72l-2.22 2.22c-.54.55-1.24.82-1.95.82"/></svg>