<svg xmlns="http://www.w3.org/2000/svg" width="24" height="24" fill="none" viewBox="0 0 24 24"><path fill="#292D32" d="M16.19 2H7.82C4.18 2 2.01 4.17 2.01 7.81v8.37c0 3.64 2.17 5.81 5.81 5.81h8.37c3.64 0 5.81-2.17 5.81-5.81V7.81C22 4.17 19.83 2 16.19 2" opacity=".4"/><path fill="#292D32" d="M12.08 19c-.23 0-.41-.06-.51-.11-.23-.11-.77-.46-.77-1.44v-3.39l-2.9 2.65c-.3.28-.78.26-1.06-.05a.746.746 0 0 1 .05-1.06l3.91-3.58v-.08L6.89 8.4a.746.746 0 0 1-.05-1.06c.28-.31.75-.33 1.06-.05l2.9 2.65V6.55c0-.98.54-1.34.77-1.44.23-.11.85-.29 1.6.34l2.41 2.01c.33.27.52.66.53 1.07s-.16.81-.47 1.1L13.05 12l2.59 2.37c.31.29.49.69.48 1.1s-.2.8-.53 1.07l-2.41 2.01c-.43.35-.81.45-1.1.45m.22-5.7v4.02l2.31-1.93zm0-6.62v3.96l2.31-2.12z"/><path fill="#292D32" d="M6.62 13.38c-.76 0-1.38-.62-1.38-1.38s.62-1.38 1.38-1.38S8 11.24 8 12s-.62 1.38-1.38 1.38m0-1.5c-.07 0-.12.06-.12.12 0 .14.25.14.25 0 0-.07-.06-.12-.13-.12m10.76 1.5c-.76 0-1.38-.62-1.38-1.38s.62-1.38 1.38-1.38 1.38.62 1.38 1.38-.63 1.38-1.38 1.38m0-1.5c-.07 0-.12.06-.12.12 0 .14.25.14.25 0a.14.14 0 0 0-.13-.12"/></svg>