<svg xmlns="http://www.w3.org/2000/svg" width="24" height="24" fill="none" viewBox="0 0 24 24"><path fill="#292D32" d="M16.75 3.56V2c0-.41-.34-.75-.75-.75s-.75.34-.75.75v1.5h-6.5V2c0-.41-.34-.75-.75-.75s-.75.34-.75.75v1.56c-2.7.25-4.01 1.86-4.21 4.25-.02.29.22.53.5.53h16.92c.29 0 .53-.25.5-.53-.2-2.39-1.51-4-4.21-4.25"/><path fill="#292D32" d="M21 10.84v1.74c0 .61-.54 1.08-1.14.98-.28-.04-.57-.07-.86-.07a5.51 5.51 0 0 0-5.5 5.5c0 .46.18 1.1.37 1.68a.998.998 0 0 1-.95 1.32H8c-3.5 0-5-2-5-5v-6.16c0-.55.45-1 1-1h16c.55.01 1 .46 1 1.01" opacity=".4"/><path fill="#292D32" d="M19 15c-2.21 0-4 1.79-4 4s1.79 4 4 4 4-1.79 4-4-1.79-4-4-4m1.6 5.64c-.15.15-.34.22-.53.22s-.38-.07-.53-.22l-.53-.53-.55.55c-.15.15-.34.22-.53.22s-.38-.07-.53-.22a.754.754 0 0 1 0-1.06l.55-.55-.53-.53a.754.754 0 0 1 0-1.06c.29-.29.77-.29 1.06 0l.53.53.5-.5c.29-.29.77-.29 1.06 0s.29.77 0 1.06l-.5.5.53.53c.29.3.29.77 0 1.06M8.5 15c-.26 0-.52-.11-.71-.29-.18-.19-.29-.45-.29-.71s.11-.52.29-.71c.23-.23.58-.34.91-.27q.09.015.18.06.09.03.18.09l.15.12c.18.19.29.45.29.71s-.11.52-.29.71l-.15.12q-.09.06-.18.09-.09.045-.18.06c-.07.01-.14.02-.2.02m3.5 0c-.26 0-.52-.11-.71-.29-.18-.19-.29-.45-.29-.71s.11-.52.29-.71c.38-.37 1.05-.37 1.42 0 .18.19.29.45.29.71s-.11.52-.29.71c-.19.18-.45.29-.71.29m-3.5 3.5c-.26 0-.52-.11-.71-.29-.18-.19-.29-.45-.29-.71s.11-.52.29-.71c.1-.09.2-.16.33-.21.37-.16.81-.07 1.09.21.18.19.29.45.29.71s-.11.52-.29.71c-.19.18-.45.29-.71.29"/></svg>