<svg xmlns="http://www.w3.org/2000/svg" width="24" height="24" fill="none" viewBox="0 0 24 24"><path fill="#292D32" d="M22 7.77V9H2V7.54C2 5.25 3.86 3.4 6.15 3.4H16v2.57C16 7.24 16.76 8 18.03 8h2.94c.4 0 .74-.07 1.03-.23" opacity=".4"/><path fill="#292D32" d="M2 9v7.46c0 2.29 1.86 4.14 4.15 4.14h11.7c2.29 0 4.15-1.85 4.15-4.14V9zm6 8.25H6c-.41 0-.75-.34-.75-.75s.34-.75.75-.75h2c.41 0 .75.34.75.75s-.34.75-.75.75m6.5 0h-4c-.41 0-.75-.34-.75-.75s.34-.75.75-.75h4c.41 0 .75.34.75.75s-.34.75-.75.75M20.97 1h-2.94C16.76 1 16 1.76 16 3.03v2.94C16 7.24 16.76 8 18.03 8h2.94C22.24 8 23 7.24 23 5.97V3.03C23 1.76 22.24 1 20.97 1m.94 3.93c-.1.1-.25.17-.41.18h-1.41l.01 1.39c-.01.17-.07.31-.19.43-.1.1-.25.17-.41.17-.33 0-.6-.27-.6-.6V5.1l-1.4.01a.61.61 0 0 1-.6-.61c0-.33.27-.6.6-.6l1.4.01v-1.4c0-.33.27-.61.6-.61s.6.28.6.61l-.01 1.39h1.41c.33 0 .6.27.6.6a.68.68 0 0 1-.19.43"/></svg>