<svg xmlns="http://www.w3.org/2000/svg" fill="none" viewBox="0 0 24 24"><path fill="#292D32" d="M19.799 12h-15.6c-.22 0-.42-.15-.49-.36C.96 2.55 14.84-.94 16.44 8.82c1.66.21 2.97 1.15 3.78 2.41.22.33-.03.77-.42.77"/><path fill="#292D32" d="M20 15.78H4c-.41 0-.75-.34-.75-.75s.34-.75.75-.75h16c.41 0 .75.34.75.75s-.34.75-.75.75m-2 3H6c-.41 0-.75-.34-.75-.75s.34-.75.75-.75h12c.41 0 .75.34.75.75s-.34.75-.75.75m-3 3H9c-.41 0-.75-.34-.75-.75s.34-.75.75-.75h6c.41 0 .75.34.75.75s-.34.75-.75.75" opacity=".4"/></svg>