<svg xmlns="http://www.w3.org/2000/svg" width="24" height="24" fill="none"><path fill="#292D32" d="M17.79 10.47V12H2v-1.53c0-2.32 1.89-4.21 4.21-4.21h7.37c2.32 0 4.21 1.89 4.21 4.21" opacity=".6"/><path fill="#292D32" d="M17.79 12v5.79c0 2.32-1.89 4.21-4.21 4.21H6.21C3.89 22 2 20.11 2 17.79V12z" opacity=".4"/><path fill="#292D32" d="M5.5 5.12c-.41 0-.75-.34-.75-.75V2.62c0-.41.34-.75.75-.75s.75.34.75.75v1.75c0 .42-.34.75-.75.75m4 0c-.41 0-.75-.34-.75-.75V2.62c0-.41.34-.75.75-.75s.75.34.75.75v1.75c0 .42-.34.75-.75.75m4 0c-.41 0-.75-.34-.75-.75V2.62c0-.41.34-.75.75-.75s.75.34.75.75v1.75c0 .42-.34.75-.75.75m8.15 9.2c0 2.15-1.74 3.89-3.89 3.89v-7.79c2.14 0 3.89 1.75 3.89 3.9"/></svg>