<svg xmlns="http://www.w3.org/2000/svg" fill="none" viewBox="0 0 24 24"><path fill="#292D32" d="M22 9.75c-.41 0-.75-.34-.75-.75V7c0-2.58-1.67-4.25-4.25-4.25H7C4.42 2.75 2.75 4.42 2.75 7v2c0 .41-.34.75-.75.75s-.75-.34-.75-.75V7c0-3.44 2.31-5.75 5.75-5.75h10c3.44 0 5.75 2.31 5.75 5.75v2c0 .41-.34.75-.75.75m-5 13H7c-3.44 0-5.75-2.31-5.75-5.75v-2c0-.41.34-.75.75-.75s.75.34.75.75v2c0 2.58 1.67 4.25 4.25 4.25h10c2.58 0 4.25-1.67 4.25-4.25v-2c0-.41.34-.75.75-.75s.75.34.75.75v2c0 3.44-2.31 5.75-5.75 5.75" opacity=".4"/><path fill="#292D32" d="m16.4 8.21-3.76-2.03c-.4-.21-.87-.21-1.27 0L7.61 8.21a.87.87 0 0 0-.44.77c0 .33.17.62.44.77l3.76 2.03c.2.11.42.16.64.16s.44-.05.64-.16l3.76-2.03a.87.87 0 0 0 .44-.77.9.9 0 0 0-.45-.77m-5.66 4.26-3.5-1.75a.87.87 0 0 0-.84.04c-.26.16-.41.43-.41.73v3.31c0 .57.32 1.09.83 1.34l3.5 1.75q.18.09.39.09c.16 0 .31-.04.45-.13.26-.16.41-.43.41-.73v-3.31c0-.57-.31-1.08-.83-1.34m6.85-1.71a.87.87 0 0 0-.84-.04l-3.5 1.75a1.5 1.5 0 0 0-.83 1.34v3.31c0 .3.15.57.41.73.14.09.29.13.45.13q.195 0 .39-.09l3.5-1.75c.51-.26.83-.77.83-1.34v-3.31c0-.3-.15-.57-.41-.73"/></svg>