<svg xmlns="http://www.w3.org/2000/svg" width="24" height="24" fill="none"><path fill="#292D32" d="M19.32 10H4.69c-1.48 0-2.68-1.21-2.68-2.68V4.69c0-1.48 1.21-2.68 2.68-2.68h14.63C20.8 2.01 22 3.22 22 4.69v2.63C22 8.79 20.79 10 19.32 10m0 12H4.69c-1.48 0-2.68-1.21-2.68-2.68v-2.63c0-1.48 1.21-2.68 2.68-2.68h14.63c1.48 0 2.68 1.21 2.68 2.68v2.63c0 1.47-1.21 2.68-2.68 2.68" opacity=".4"/><path fill="#292D32" d="M6 7.75c-.41 0-.75-.34-.75-.75V5c0-.41.34-.75.75-.75s.75.34.75.75v2c0 .41-.34.75-.75.75m4 0c-.41 0-.75-.34-.75-.75V5c0-.41.34-.75.75-.75s.75.34.75.75v2c0 .41-.34.75-.75.75m-4 12c-.41 0-.75-.34-.75-.75v-2c0-.41.34-.75.75-.75s.75.34.75.75v2c0 .41-.34.75-.75.75m4 0c-.41 0-.75-.34-.75-.75v-2c0-.41.34-.75.75-.75s.75.34.75.75v2c0 .41-.34.75-.75.75m8-13h-4c-.41 0-.75-.34-.75-.75s.34-.75.75-.75h4c.41 0 .75.34.75.75s-.34.75-.75.75m0 12h-4c-.41 0-.75-.34-.75-.75s.34-.75.75-.75h4c.41 0 .75.34.75.75s-.34.75-.75.75"/></svg>