<svg xmlns="http://www.w3.org/2000/svg" fill="none" viewBox="0 0 24 24"><path fill="#292D32" d="M21 6v7.25a1 1 0 0 1-1 1H5a1 1 0 0 1-1-1V6c0-2.21 1.79-4 4-4h9c2.21 0 4 1.79 4 4" opacity=".4"/><path fill="#292D32" d="M8 12.75H7c-.41 0-.75-.34-.75-.75s.34-.75.75-.75h1c.41 0 .75.34.75.75s-.34.75-.75.75m0-2.5H7c-.41 0-.75-.34-.75-.75s.34-.75.75-.75h1c.41 0 .75.34.75.75s-.34.75-.75.75m0-2.5H7c-.41 0-.75-.34-.75-.75s.34-.75.75-.75h1c.41 0 .75.34.75.75s-.34.75-.75.75m-3 8a1 1 0 0 0-1 1V18c0 2.21 1.79 4 4 4h9c2.21 0 4-1.79 4-4v-1.25a1 1 0 0 0-1-1zm12.71 3.71c-.19.18-.45.29-.71.29s-.52-.11-.71-.29c-.18-.19-.29-.45-.29-.71s.11-.52.29-.71c.37-.37 1.04-.37 1.42 0 .18.19.29.45.29.71s-.11.52-.29.71"/></svg>