<svg xmlns="http://www.w3.org/2000/svg" width="24" height="24" fill="none"><path fill="#292D32" d="M20.46 3.54 3.54 20.46c-1-1-1.54-2.45-1.54-4.27V7.81C2 4.17 4.17 2 7.81 2h8.38c1.82 0 3.27.54 4.27 1.54M22 7.81v6.09l-1.63-1.4c-.78-.67-2.04-.67-2.82 0l-4.16 3.57c-.71.61-1.83.67-2.61.15L21.61 5.39c.14.38.24.78.3 1.21.06.38.09.79.09 1.21" opacity=".4"/><path fill="#292D32" d="M22 13.9v2.29c0 3.64-2.17 5.81-5.81 5.81H7.81c-.42 0-.83-.03-1.21-.09-.43-.06-.83-.16-1.21-.3l5.39-5.39c.78.52 1.9.46 2.61-.15l4.16-3.57c.78-.67 2.04-.67 2.82 0zm-.23-11.67c-.3-.3-.79-.3-1.09 0L2.23 20.69c-.3.3-.3.79 0 1.09a.76.76 0 0 0 1.08-.01L21.77 3.31c.31-.3.31-.78 0-1.08M8 10.38a2.38 2.38 0 1 0 0-4.76 2.38 2.38 0 0 0 0 4.76"/></svg>