<svg xmlns="http://www.w3.org/2000/svg" width="24" height="24" fill="none" viewBox="0 0 24 24"><path fill="#292D32" d="M16.19 22H7.82c-3.64 0-5.81-2.17-5.81-5.81V7.82c0-3.64 2.17-5.81 5.81-5.81h8.37c3.64 0 5.81 2.17 5.81 5.81v8.37c0 3.64-2.17 5.81-5.81 5.81" opacity=".4"/><path fill="#292D32" d="M16.41 9.83a4.34 4.34 0 0 1-4.09 2.91h-.02l-2.06-.01h-.01c-.76 0-1.42.51-1.62 1.24.89.28 1.54 1.11 1.54 2.09 0 1.21-.99 2.2-2.2 2.2s-2.2-.99-2.2-2.2c0-.89.54-1.66 1.3-2V9.72a2.05 2.05 0 0 1-1.3-1.9c0-1.13.92-2.05 2.05-2.05s2.05.92 2.05 2.05c0 .87-.54 1.6-1.3 1.9v2.02c.49-.31 1.07-.49 1.68-.49h.01l2.06.01c1.18.04 2.23-.72 2.65-1.82-.49-.38-.81-.96-.81-1.62 0-1.13.92-2.05 2.05-2.05s2.05.92 2.05 2.05c.01 1.04-.8 1.9-1.83 2.01"/></svg>