<svg xmlns="http://www.w3.org/2000/svg" width="24" height="24" fill="none" viewBox="0 0 24 24"><path fill="#292D32" d="M16.19 2H7.81C4.17 2 2 4.17 2 7.81v8.37C2 19.83 4.17 22 7.81 22h8.37c3.64 0 5.81-2.17 5.81-5.81V7.81C22 4.17 19.83 2 16.19 2" opacity=".4"/><path fill="#292D32" d="M18.69 5.71a.78.78 0 0 0-.41-.41.9.9 0 0 0-.28-.05h-4c-.41 0-.75.34-.75.75s.34.75.75.75h2.19l-9.44 9.44V14c0-.41-.34-.75-.75-.75s-.75.34-.75.75v4c0 .1.02.19.06.29.08.18.22.33.41.41.08.03.18.05.28.05h4c.41 0 .75-.34.75-.75s-.34-.75-.75-.75H7.81l9.44-9.44V10c0 .41.34.75.75.75s.75-.34.75-.75V6c0-.1-.02-.19-.06-.29"/></svg>