<svg xmlns="http://www.w3.org/2000/svg" fill="none" viewBox="0 0 24 24"><path fill="#292D32" d="M8.5 18.97H8c-4 0-6-1-6-6v-5q0-6 6-6h8q6 0 6 6v5q0 6-6 6h-.5c-.31 0-.61.15-.8.4l-1.5 2c-.66.88-1.74.88-2.4 0l-1.5-2c-.16-.22-.52-.4-.8-.4" opacity=".4"/><path fill="#292D32" d="M8 13.45c-.19 0-.38-.07-.53-.22l-2-2a.754.754 0 0 1 0-1.06l2-2c.29-.29.77-.29 1.06 0s.29.77 0 1.06L7.06 10.7l1.47 1.47c.29.29.29.77 0 1.06-.15.15-.34.22-.53.22m8 0c-.19 0-.38-.07-.53-.22a.754.754 0 0 1 0-1.06l1.47-1.47-1.47-1.47a.754.754 0 0 1 0-1.06c.29-.29.77-.29 1.06 0l2 2c.29.29.29.77 0 1.06l-2 2c-.15.15-.34.22-.53.22m-5 .33q-.15 0-.3-.06a.745.745 0 0 1-.39-.99l2-4.67c.16-.38.6-.56.99-.39.38.16.56.6.39.99l-2 4.67c-.12.28-.4.45-.69.45"/></svg>