<svg xmlns="http://www.w3.org/2000/svg" width="24" height="24" fill="none" viewBox="0 0 24 24"><path fill="#292D32" d="M17.62 5.72 7.01 16.33c-.73-.99-1.13-2.2-1.13-3.51V8.11c0-1.84.82-3.49 2.12-4.61v4.14c0 .39.32.71.7.71.39 0 .71-.32.71-.71V2.57c.46-.23.95-.39 1.46-.48v3.66c0 .4.32.71.71.71s.71-.31.71-.71V2c2.39.11 4.45 1.61 5.33 3.72" opacity=".4"/><path fill="#292D32" d="M18.12 8.88v3.94c0 3.37-2.75 6.12-6.12 6.12q-.27 0-.54-.03c-.08 0-.16-.01-.23-.02-.13-.02-.26-.04-.38-.06-.05 0-.09-.02-.15-.03-.14-.03-.28-.07-.41-.11a6 6 0 0 1-.63-.22c-.13-.05-.25-.1-.37-.17-.03-.01-.05-.03-.08-.04-.1-.05-.2-.1-.3-.17z"/><path fill="#292D32" d="M21.75 11v2c0 5.38-4.37 9.75-9.75 9.75-2.12 0-4.15-.68-5.82-1.93l1.08-1.08A8.15 8.15 0 0 0 12 21.25c4.55 0 8.25-3.7 8.25-8.25v-2c0-.41.34-.75.75-.75s.75.34.75.75m.02-8.77c-.3-.3-.79-.3-1.09 0L2.23 20.69c-.3.3-.3.79 0 1.09a.76.76 0 0 0 1.08-.01L21.77 3.31c.31-.3.31-.78 0-1.08"/></svg>