<svg xmlns="http://www.w3.org/2000/svg" width="24" height="24" fill="none" viewBox="0 0 24 24"><path fill="#292D32" d="M16.19 2H7.81C4.17 2 2 4.17 2 7.81v8.37C2 19.83 4.17 22 7.81 22h8.37c3.64 0 5.81-2.17 5.81-5.81V7.81C22 4.17 19.83 2 16.19 2" opacity=".4"/><path fill="#292D32" d="M12 10.31a1.31 1.31 0 1 0 0-2.62 1.31 1.31 0 0 0 0 2.62m-3.69 3.38C7.59 13.69 7 14.28 7 15s.59 1.31 1.31 1.31 1.31-.59 1.31-1.31-.59-1.31-1.31-1.31m7.38 0c-.72 0-1.31.59-1.31 1.31s.59 1.31 1.31 1.31S17 15.72 17 15s-.59-1.31-1.31-1.31" opacity=".97"/></svg>