<svg xmlns="http://www.w3.org/2000/svg" width="24" height="24" fill="none" viewBox="0 0 24 24"><path fill="#292D32" d="M10.29 10.34v8.07A3.6 3.6 0 0 1 6.7 22c-1.98 0-3.59-1.61-3.59-3.59 0-1.97 1.61-3.58 3.59-3.58.83 0 1.58.29 2.19.76v-4.85zm10.6-3.02v9.16c0 1.98-1.61 3.59-3.59 3.59a3.6 3.6 0 0 1-3.59-3.59c0-1.97 1.62-3.58 3.59-3.58.84 0 1.59.29 2.2.77V7.72z"/><path fill="#292D32" d="M20.89 5.18v2.14l-12 3.42V6.75c0-1.47.89-2.61 2.3-2.99l5.78-1.58c1.17-.32 2.16-.21 2.86.33.71.53 1.06 1.43 1.06 2.67" opacity=".4"/></svg>