<svg xmlns="http://www.w3.org/2000/svg" fill="none" viewBox="0 0 24 24"><path fill="#292D32" d="M16.19 2H7.81C4.17 2 2 4.17 2 7.81v8.37C2 19.83 4.17 22 7.81 22h8.37c3.64 0 5.81-2.17 5.81-5.81V7.81C22 4.17 19.83 2 16.19 2" opacity=".4"/><path fill="#292D32" d="M12.2 17.66c-.7 0-1.41-.27-1.94-.8a2.76 2.76 0 0 1 0-3.89l1.41-1.41c.29-.29.77-.29 1.06 0s.29.77 0 1.06l-1.41 1.41a1.25 1.25 0 0 0 0 1.77c.49.49 1.28.49 1.77 0l2.22-2.22c.61-.61.95-1.43.95-2.3s-.34-1.68-.95-2.3c-1.23-1.23-3.37-1.23-4.6 0L8.29 11.4a2.69 2.69 0 0 0 0 3.79c.29.29.29.77 0 1.06s-.77.29-1.06 0a4.183 4.183 0 0 1 0-5.91l2.42-2.42c.9-.9 2.09-1.39 3.36-1.39s2.46.49 3.36 1.39 1.39 2.09 1.39 3.36-.49 2.46-1.39 3.36l-2.22 2.22c-.54.53-1.24.8-1.95.8"/></svg>