<svg xmlns="http://www.w3.org/2000/svg" width="24" height="24" fill="none"><path fill="#292D32" d="M6 7q-3 0-3 3v5q0 3 3 3l2-2v-1h1l8-8zm1 4.75c-.41 0-.75-.34-.75-.75s.34-.75.75-.75h2c.41 0 .75.34.75.75s-.34.75-.75.75z" opacity=".4"/><path fill="#292D32" d="m9 15-1 1v-1zm8-10v2H7V5c0-1.66 1.34-3 3-3h4c1.66 0 3 1.34 3 3"/><path fill="#292D32" fill-rule="evenodd" d="M22.53 1.47a.75.75 0 0 1 0 1.06l-20 20a.75.75 0 0 1-1.06-1.06l20-20a.75.75 0 0 1 1.06 0" clip-rule="evenodd"/><path fill="#292D32" d="M9.75 11c0 .41-.34.75-.75.75H7c-.41 0-.75-.34-.75-.75s.34-.75.75-.75h2c.41 0 .75.34.75.75m8 4c0 .41-.34.75-.75.75h-5.75l1.5-1.5H17c.41 0 .75.34.75.75"/><path fill="#292D32" d="M16 15v4c0 1.66-1.34 3-3 3h-2c-1.66 0-3-1.34-3-3l4-4z"/><path fill="#292D32" d="M21 10v5q0 3-3 3h-2v-3h-4l7.67-7.67C20.56 7.78 21 8.67 21 10" opacity=".4"/></svg>