<svg xmlns="http://www.w3.org/2000/svg" width="24" height="24" fill="none"><path fill="#292D32" d="M22 10v7c0 3-2 5-5 5H7c-3 0-5-2-5-5v-7c0-2.74 1.67-4.65 4.25-4.95.24-.04.49-.05.75-.05h10c3 0 5 2 5 5" opacity=".4"/><path fill="#292D32" d="M7.75 2v3H7c-.26 0-.51.01-.75.05V2c0-.41.34-.75.75-.75s.75.34.75.75m.13 14a2.5 2.5 0 1 0 0-5 2.5 2.5 0 0 0 0 5m10-3.75h-4c-.41 0-.75-.34-.75-.75s.34-.75.75-.75h4c.41 0 .75.34.75.75s-.34.75-.75.75m-3.5 4h-.5c-.41 0-.75-.34-.75-.75s.34-.75.75-.75h.5c.41 0 .75.34.75.75s-.34.75-.75.75m3.5 0h-.5c-.41 0-.75-.34-.75-.75s.34-.75.75-.75h.5c.41 0 .75.34.75.75s-.34.75-.75.75"/></svg>