<svg xmlns="http://www.w3.org/2000/svg" fill="none" viewBox="0 0 24 24"><path fill="#292D32" d="M21.97 18v1c0 1.65 0 3-3 3h-14c-3 0-3-1.35-3-3v-1c0-.55.45-1 1-1h18c.55 0 1 .45 1 1"/><path fill="#292D32" d="M20.72 13v4H3.27v-4a8 8 0 0 1 8-8h1.45c.58 0 1.15.06 1.69.18 3.61.78 6.31 3.98 6.31 7.82" opacity=".4"/><path fill="#292D32" d="M14.5 4.5c0 .24-.03.46-.09.68-.54-.12-1.11-.18-1.69-.18h-1.45q-.87 0-1.68.18c-.06-.22-.09-.44-.09-.68a2.5 2.5 0 0 1 5 0m.5 7.25H9c-.41 0-.75-.34-.75-.75s.34-.75.75-.75h6c.41 0 .75.34.75.75s-.34.75-.75.75"/></svg>