<svg xmlns="http://www.w3.org/2000/svg" width="24" height="24" fill="none"><path fill="#292D32" d="M21.69 2.71a.78.78 0 0 0-.41-.41.7.7 0 0 0-.29-.06h-9c-.41 0-.75.34-.75.75s.34.75.75.75h7.19L2.46 20.46c-.29.29-.29.77 0 1.06.15.15.34.22.53.22s.38-.07.53-.22L20.24 4.8V12c0 .41.34.75.75.75s.75-.34.75-.75V3c.01-.1-.01-.19-.05-.29"/><path fill="#292D32" d="M17.4 18.15a.74.74 0 0 1-.53-.22L6.07 7.13a.754.754 0 0 1 0-1.06c.29-.29.77-.29 1.06 0l10.799 10.8c.29.29.29.77 0 1.06-.15.15-.34.22-.53.22" opacity=".4"/></svg>