<svg xmlns="http://www.w3.org/2000/svg" width="24" height="24" fill="none" viewBox="0 0 24 24"><path fill="#292D32" d="M16 8.99v11.36c0 1.45-1.04 2.06-2.31 1.36l-3.93-2.19c-.42-.23-1.1-.23-1.52 0l-3.93 2.19c-1.27.7-2.31.09-2.31-1.36V8.99c0-1.71 1.4-3.11 3.11-3.11h7.78c1.71 0 3.11 1.4 3.11 3.11" opacity=".4"/><path fill="#292D32" d="M22 5.11v11.36c0 1.45-1.04 2.06-2.31 1.36L16 15.77V8.99c0-1.71-1.4-3.11-3.11-3.11H8v-.77C8 3.4 9.4 2 11.11 2h7.78C20.6 2 22 3.4 22 5.11m-11 7.64H7c-.41 0-.75-.34-.75-.75s.34-.75.75-.75h4c.41 0 .75.34.75.75s-.34.75-.75.75"/></svg>