<svg xmlns="http://www.w3.org/2000/svg" width="24" height="24" fill="none"><path fill="#292D32" d="M11 20.01a9.01 9.01 0 1 0 0-18.02 9.01 9.01 0 0 0 0 18.02" opacity=".4"/><path fill="#292D32" d="M14 10.25H8c-.41 0-.75-.34-.75-.75s.34-.75.75-.75h6c.41 0 .75.34.75.75s-.34.75-.75.75m-3 3H8c-.41 0-.75-.34-.75-.75s.34-.75.75-.75h3c.41 0 .75.34.75.75s-.34.75-.75.75m10.99 5.7c-.33-.61-1.03-.95-1.97-.95-.71 0-1.32.29-1.68.79s-.44 1.17-.22 1.84c.43 1.3 1.18 1.59 1.59 1.64.06.01.12.01.19.01.44 0 1.12-.19 1.78-1.18.53-.77.63-1.54.31-2.15"/></svg>