<svg xmlns="http://www.w3.org/2000/svg" width="24" height="24" fill="none"><path fill="#292D32" d="M16.19 2H7.81C4.17 2 2 4.17 2 7.81v8.37C2 19.83 4.17 22 7.81 22h8.37c3.64 0 5.81-2.17 5.81-5.81V7.81C22 4.17 19.83 2 16.19 2" opacity=".4"/><path fill="#292D32" d="M15.58 19.25c-.41 0-.75-.34-.75-.75v-3.9c0-.41.34-.75.75-.75s.75.34.75.75v3.9c0 .41-.34.75-.75.75m0-11.05c-.41 0-.75-.34-.75-.75V5.5c0-.41.34-.75.75-.75s.75.34.75.75v1.95c0 .41-.34.75-.75.75M8.42 19.25c-.41 0-.75-.34-.75-.75v-1.95c0-.41.34-.75.75-.75s.75.34.75.75v1.95c0 .41-.33.75-.75.75m0-9.1c-.41 0-.75-.34-.75-.75V5.5c0-.41.34-.75.75-.75s.75.34.75.75v3.9c0 .41-.33.75-.75.75"/><path fill="#292D32" d="M15.58 7.33c-1.5 0-2.73 1.22-2.73 2.72s1.22 2.73 2.73 2.73c1.5 0 2.72-1.22 2.72-2.73s-1.22-2.72-2.72-2.72m-7.16 3.9c-1.5 0-2.72 1.22-2.72 2.73s1.22 2.72 2.72 2.72 2.73-1.22 2.73-2.72-1.22-2.73-2.73-2.73"/></svg>