<svg xmlns="http://www.w3.org/2000/svg" width="24" height="24" fill="none" viewBox="0 0 24 24"><path fill="#292D32" d="M21 5.25H3c-.41 0-.75-.34-.75-.75s.34-.75.75-.75h18c.41 0 .75.34.75.75s-.34.75-.75.75"/><path fill="#292D32" d="M16.74 10.25H7.26c-.41 0-.75-.34-.75-.75s.34-.75.75-.75h9.47c.41 0 .75.34.75.75s-.33.75-.74.75" opacity=".4"/><path fill="#292D32" d="M21 15.25H3c-.41 0-.75-.34-.75-.75s.34-.75.75-.75h18c.41 0 .75.34.75.75s-.34.75-.75.75"/><path fill="#292D32" d="M16.74 20.25H7.26c-.41 0-.75-.34-.75-.75s.34-.75.75-.75h9.47c.41 0 .75.34.75.75s-.33.75-.74.75" opacity=".4"/></svg>