<svg xmlns="http://www.w3.org/2000/svg" fill="none" viewBox="0 0 24 24"><path fill="#292D32" d="M20.97 14.33A3.94 3.94 0 0 0 18 13a3.995 3.995 0 0 0-4 4c0 .75.21 1.46.58 2.06.2.34.46.65.76.91.7.64 1.63 1.03 2.66 1.03 1.46 0 2.73-.78 3.42-1.94.21-.34.37-.73.46-1.13q.12-.45.12-.93c0-1.02-.39-1.96-1.03-2.67m-1.47 3.4h-2.99c-.41 0-.75-.34-.75-.75s.34-.75.75-.75h2.99c.41 0 .75.34.75.75s-.34.75-.75.75"/><path fill="#292D32" d="M21.09 21.5c0 .28-.22.5-.5.5H3.41c-.28 0-.5-.22-.5-.5 0-4.14 4.08-7.5 9.09-7.5 1.03 0 2.03.14 2.95.41-.59.7-.95 1.61-.95 2.59 0 .75.21 1.46.58 2.06.2.34.46.65.76.91.7.64 1.63 1.03 2.66 1.03 1.12 0 2.13-.46 2.85-1.2.16.54.24 1.11.24 1.7" opacity=".4"/><path fill="#292D32" d="M12 12a5 5 0 1 0 0-10 5 5 0 0 0 0 10"/></svg>