<svg xmlns="http://www.w3.org/2000/svg" width="24" height="24" fill="none"><path fill="#292D32" d="M8.5 19h7c2.33 0 3.5-1.17 3.5-3.5v-7C19 6.17 17.83 5 15.5 5h-7C6.17 5 5 6.17 5 8.5v7C5 17.83 6.17 19 8.5 19" opacity=".4"/><path fill="#292D32" d="M16 3.75H8c-.41 0-.75-.34-.75-.75s.34-.75.75-.75h8c.41 0 .75.34.75.75s-.34.75-.75.75m0 18H8c-.41 0-.75-.34-.75-.75s.34-.75.75-.75h8c.41 0 .75.34.75.75s-.34.75-.75.75m-4-7c-.41 0-.75-.34-.75-.75v-4c0-.41.34-.75.75-.75s.75.34.75.75v4c0 .42-.34.75-.75.75m3 0c-.41 0-.75-.34-.75-.75v-2c0-.41.34-.75.75-.75s.75.34.75.75v2c0 .42-.33.75-.75.75m-6 0c-.41 0-.75-.34-.75-.75v-1c0-.41.34-.75.75-.75s.75.34.75.75v1c0 .42-.34.75-.75.75"/></svg>