<svg xmlns="http://www.w3.org/2000/svg" width="24" height="24" fill="none"><path fill="#292D32" d="M17.18 5.25c-1.71 0-3.75.65-3.75 3.75v6c0 3.1 2.04 3.75 3.75 3.75s3.75-.65 3.75-3.75V9c0-3.1-2.04-3.75-3.75-3.75m-10.36 0c-1.71 0-3.75.65-3.75 3.75v6c0 3.1 2.04 3.75 3.75 3.75s3.75-.65 3.75-3.75V9c0-3.1-2.04-3.75-3.75-3.75" opacity=".4"/><path fill="#292D32" d="M13.43 11.25h-2.86v1.5h2.86zm9.07 4c-.41 0-.75-.34-.75-.75v-5c0-.41.34-.75.75-.75s.75.34.75.75v5c0 .41-.34.75-.75.75m-21 0c-.41 0-.75-.34-.75-.75v-5c0-.41.34-.75.75-.75s.75.34.75.75v5c0 .41-.34.75-.75.75"/></svg>