<svg xmlns="http://www.w3.org/2000/svg" fill="none" viewBox="0 0 24 24"><path fill="#292D32" d="M16 22.75H9c-3.44 0-5.75-2.31-5.75-5.75V7c0-3.44 2.31-5.75 5.75-5.75h7c3.44 0 5.75 2.31 5.75 5.75v10c0 3.44-2.31 5.75-5.75 5.75m-7-20C6.42 2.75 4.75 4.42 4.75 7v10c0 2.58 1.67 4.25 4.25 4.25h7c2.58 0 4.25-1.67 4.25-4.25V7c0-2.58-1.67-4.25-4.25-4.25z"/><path fill="#292D32" d="M21 15.75H4c-.41 0-.75-.34-.75-.75s.34-.75.75-.75h17c.41 0 .75.34.75.75s-.34.75-.75.75m-13-3H7c-.41 0-.75-.34-.75-.75s.34-.75.75-.75h1c.41 0 .75.34.75.75s-.34.75-.75.75m0-2.5H7c-.41 0-.75-.34-.75-.75s.34-.75.75-.75h1c.41 0 .75.34.75.75s-.34.75-.75.75m0-2.5H7c-.41 0-.75-.34-.75-.75s.34-.75.75-.75h1c.41 0 .75.34.75.75s-.34.75-.75.75m9 11.75c-.26 0-.52-.11-.71-.29-.18-.19-.29-.45-.29-.71 0-.27.11-.52.29-.71.28-.28.72-.37 1.09-.21q.18.075.33.21c.18.19.29.45.29.71s-.11.52-.29.71c-.1.09-.2.16-.33.21-.12.05-.25.08-.38.08"/></svg>