<svg xmlns="http://www.w3.org/2000/svg" fill="none" viewBox="0 0 24 24"><path fill="#292D32" d="M5 14.75c-1.52 0-2.75-1.23-2.75-2.75S3.48 9.25 5 9.25 7.75 10.48 7.75 12 6.52 14.75 5 14.75m0-4a1.25 1.25 0 1 0 0 2.5 1.25 1.25 0 0 0 0-2.5m14 4c-1.52 0-2.75-1.23-2.75-2.75S17.48 9.25 19 9.25s2.75 1.23 2.75 2.75-1.23 2.75-2.75 2.75m0-4a1.25 1.25 0 1 0 0 2.5 1.25 1.25 0 0 0 0-2.5m-7 4c-1.52 0-2.75-1.23-2.75-2.75S10.48 9.25 12 9.25s2.75 1.23 2.75 2.75-1.23 2.75-2.75 2.75m0-4a1.25 1.25 0 1 0 0 2.5 1.25 1.25 0 0 0 0-2.5"/></svg>