<svg xmlns="http://www.w3.org/2000/svg" fill="none" viewBox="0 0 24 24"><path fill="#292D32" d="M5.51 6.5c-.55 0-1-.45-1-1s.44-1 1-1h.01c.55 0 1 .45 1 1s-.45 1-1.01 1m13 13c-.55 0-1-.45-1-1s.44-1 1-1h.01c.55 0 1 .45 1 1s-.45 1-1.01 1"/><path fill="#292D32" d="M5.47 9.75A4.26 4.26 0 0 1 1.22 5.5a4.26 4.26 0 0 1 4.25-4.25A4.26 4.26 0 0 1 9.72 5.5c0 2.34-1.9 4.25-4.25 4.25m0-7c-1.52 0-2.75 1.23-2.75 2.75s1.23 2.75 2.75 2.75S8.22 7.02 8.22 5.5 6.99 2.75 5.47 2.75m14.5 20h-3c-1.52 0-2.75-1.23-2.75-2.75v-3c0-1.52 1.23-2.75 2.75-2.75h3c1.52 0 2.75 1.23 2.75 2.75v3c0 1.52-1.23 2.75-2.75 2.75m-3-7c-.69 0-1.25.56-1.25 1.25v3c0 .69.56 1.25 1.25 1.25h3c.69 0 1.25-.56 1.25-1.25v-3c0-.69-.56-1.25-1.25-1.25zm-4.97 4H9.32c-1.16 0-2.17-.7-2.57-1.78-.41-1.08-.11-2.27.76-3.04l7.99-6.99c.48-.42.49-.99.35-1.38-.15-.39-.53-.81-1.17-.81H12c-.41 0-.75-.34-.75-.75s.34-.75.75-.75h2.68c1.16 0 2.17.7 2.57 1.78.41 1.08.11 2.27-.76 3.04L8.5 16.06c-.48.42-.49.99-.35 1.38.15.39.53.81 1.17.81H12c.41 0 .75.34.75.75s-.34.75-.75.75"/></svg>