<svg xmlns="http://www.w3.org/2000/svg" fill="none" viewBox="0 0 24 24"><path fill="#292D32" d="M8.27 22.75H4.23c-2.01 0-2.98-.93-2.98-2.85V4.1c0-1.92.98-2.85 2.98-2.85h4.04c2.01 0 2.98.93 2.98 2.85v15.8c0 1.92-.98 2.85-2.98 2.85m-4.04-20c-1.27 0-1.48.34-1.48 1.35v15.8c0 1.01.21 1.35 1.48 1.35h4.04c1.27 0 1.48-.34 1.48-1.35V4.1c0-1.01-.21-1.35-1.48-1.35zm15.54 20h-4.04c-2.01 0-2.98-.93-2.98-2.85V4.1c0-1.92.98-2.85 2.98-2.85h4.04c2.01 0 2.98.93 2.98 2.85v15.8c0 1.92-.98 2.85-2.98 2.85m-4.04-20c-1.27 0-1.48.34-1.48 1.35v15.8c0 1.01.21 1.35 1.48 1.35h4.04c1.27 0 1.48-.34 1.48-1.35V4.1c0-1.01-.21-1.35-1.48-1.35z"/></svg>